<?xml version="1.0" encoding="utf-8"?>
<!-- Generator: Adobe Illustrator 25.2.2, SVG Export Plug-In . SVG Version: 6.00 Build 0)  -->
<svg version="1.1" id="Calque_1" xmlns="http://www.w3.org/2000/svg" xmlns:xlink="http://www.w3.org/1999/xlink" x="0px" y="0px"
	 viewBox="0 0 318.1 330.1" style="enable-background:new 0 0 318.1 330.1;" xml:space="preserve">
<style type="text/css">
	.st0{fill:#FFFFFF;stroke:#1D1D1B;stroke-width:5;stroke-linecap:round;stroke-linejoin:round;}
	.st1{fill:none;stroke:#1D1D1B;stroke-width:5;stroke-linecap:round;stroke-linejoin:round;}
</style>
<path class="st1" d="M266.7,228.4c-1.4-4.9-3.9-8.7-9.1-10c-0.9-0.2-1.9-0.2-2.8-0.5c-0.5-0.1-1.2-0.5-1.3-0.9
	c-0.9-2.3-2.6-2.9-4.8-2.9c-10,0-20,0-30.1,0c-17.8,0-35.5,0-53.3,0c-2.6,0-4.9,0.2-5.8,3.2c-0.1,0.3-1,0.6-1.5,0.7
	c-8,1.2-12.7,7.5-11.6,15.4c0.3,2.2,1.8,3.3,4.6,3.3c7.7,0,15.4,0,23,0c29.1,0,58.3,0,87.4,0c2.3,0,4.2-0.5,5.3-2.6
	C266.7,232.2,266.7,230.3,266.7,228.4z"/>
<path class="st1" d="M163,153.7c3,3.7,5.5,3.3,7.5-1c0.2-0.4,0.7-0.8,1.2-0.9c1.5-0.3,3-0.4,4.6-0.5c0.9,2.9,1.9,5.7,2.8,8.5
	c0.2,0.5-0.2,1.2-0.2,1.7c0.1,1.4-0.1,3.2,0.6,4c0.8,0.9,2.7,1.3,3.9,1.1c3.3-0.5,5.8,2.1,4.8,5.4c-0.2,0.6-0.9,1.2-1.5,1.5
	c-3.9,2.2-5.3,5.4-4,9.7c0.2,0.8,0.5,1.5,0.7,2.2c1.7,5.2,5.4,7.2,10.6,5.5c11.5-3.7,23.1-7.5,34.6-11.2c2.5-0.8,5.1-1.6,7.6-2.5
	c4.1-1.5,6-5.2,4.8-9.4c-0.3-1.2-0.7-2.4-1.1-3.6c-1.3-3.6-4.4-5.5-8.3-5.1c-3,0.3-5.5-3.1-4.3-5.9c0.3-0.6,1.2-1.2,1.9-1.4
	c1.7-0.6,2.9-1.5,3.1-3.4c0.2-1.7-0.7-2.9-2.2-3.8c-0.6-0.4-1-1.2-1.2-1.8c-3.7-11.2-7.3-22.4-11-33.7c-0.2-0.7,0.2-1.6,0.1-2.4
	c-0.2-1.4,0-3.2-0.8-4c-0.8-0.8-2.7-1.1-4-0.9c-2.6,0.4-3.5,0.2-4.3-2.2c-0.8-2.2-0.9-4.1,1.5-5.1c3.5-1.6,4.9-5.2,3.8-8.9
	c-0.3-1.1-0.7-2.2-1.1-3.3c-1.6-4.5-5.4-6.5-9.9-5.1c-14.1,4.5-28.1,9.1-42.2,13.7c-4.6,1.5-6.6,5.3-5.2,10c0.4,1.3,0.7,2.6,1.3,3.8
	c1.4,3.3,4.7,5,8.2,4.5c2.4-0.4,3.3,0.3,4.1,3.2c0.6,2,0.2,3.3-2,4.2c-1.2,0.5-2.5,1.9-2.9,3.2c-0.6,1.6,0.5,2.9,1.9,3.8
	c0.6,0.4,1.1,1.1,1.3,1.8c0.9,2.5,1.7,5,2.6,7.8c-1.5,0.9-3.1,1.8-4.2,2.5c-2-0.6-3.7-1.5-5-1.2c-1.1,0.2-2.4,1.8-2.7,3
	c-0.3,1.4-0.8,1.9-2.1,2.3c-35,10.7-70,21.5-105,32.2c-1.1,0.3-2.3,0.3-3.4,0.2c-5.4-0.6-10.3,2.4-12.1,7.3
	c-1.8,4.9,0,10.4,4.4,13.2c4.4,2.9,10.2,2.4,14.1-1.3c0.8-0.7,1.7-1.4,2.7-1.8c35-12,70-24,105-35.9
	C162.4,153.9,162.6,153.8,163,153.7z"/>
<path class="st1" d="M151.5,160.1l-78,26.5c-3.6,1.2-7.5-0.7-8.7-4.3l-2.7-8c-1.2-3.5,0.7-7.5,4.3-8.7l78-26.5
	c3.6-1.2,7.5,0.7,8.7,4.3l2.7,8C157,155,155,158.9,151.5,160.1z"/>
<path class="st1" d="M229.6,152.5l-45.9,14.8c-2.4,0.8-4.9-0.5-5.7-2.9l-13.9-43.1c-0.8-2.3,0.6-4.9,2.9-5.7l45.9-14.8
	c2.4-0.8,4.9,0.6,5.7,2.9l13.9,43.1C233.2,149.2,231.9,151.8,229.6,152.5z"/>
</svg>
