<?xml version="1.0" encoding="utf-8"?>
<!-- Generator: Adobe Illustrator 25.2.2, SVG Export Plug-In . SVG Version: 6.00 Build 0)  -->
<svg version="1.1" id="Calque_1" xmlns="http://www.w3.org/2000/svg" xmlns:xlink="http://www.w3.org/1999/xlink" x="0px" y="0px"
	 viewBox="0 0 318.1 330.1" style="enable-background:new 0 0 318.1 330.1;" xml:space="preserve">
<style type="text/css">
	.st0{fill:#FFFFFF;stroke:#1D1D1B;stroke-width:5;stroke-linecap:round;stroke-linejoin:round;}
	
		.st1{fill-rule:evenodd;clip-rule:evenodd;fill:#FFFFFF;stroke:#1D1D1B;stroke-width:5;stroke-linecap:round;stroke-linejoin:round;}
</style>
<g>
	<polygon class="st0" points="155,37.7 68,61 23.4,73 84.2,300 260.4,252.8 199.6,25.8 	"/>
	<polygon class="st0" points="155.8,55.8 76.3,77.1 45.1,85.5 96.7,278.3 238.7,240.2 187.1,47.4 	"/>
	<polygon class="st0" points="156.4,68.2 82,88.1 63,51.5 154.5,26.9 	"/>
	<polyline class="st0" points="87.1,178.8 92.6,182 103.5,163.2 	"/>
	<polyline class="st0" points="102.3,229 107.8,232.2 118.7,213.4 	"/>
	<line class="st0" x1="104.3" y1="113.5" x2="180.9" y2="93"/>
	<line class="st0" x1="111.3" y1="141.3" x2="187.9" y2="120.7"/>
	<line class="st0" x1="118.2" y1="167.2" x2="194.8" y2="146.7"/>
	<line class="st0" x1="125.2" y1="193.1" x2="201.8" y2="172.6"/>
	<line class="st0" x1="132.1" y1="219.1" x2="208.8" y2="198.6"/>
	<g>
		<polygon class="st1" points="270.9,77.2 186.1,196.6 179,228.1 206.5,211 291.3,91.7 		"/>
		<path class="st1" d="M295.8,85.4l-4.5,6.3l-20.4-14.5l4.5-6.3c4-5.6,11.8-7,17.4-3C298.5,72,299.8,79.8,295.8,85.4z"/>
		<path class="st1" d="M207.8,209.1c-3.2,0.5-7.4-3.2-7.9-6.7c-0.2-1.5-0.5-3-0.5-3s-1.5,0.2-3,0.5c-3.4,0.6-8.3-2.1-8.9-5.3"/>
	</g>
	<g>
		<line class="st0" x1="75.8" y1="127.9" x2="86.6" y2="109.9"/>
		<line class="st0" x1="72.2" y1="113.5" x2="90.2" y2="124.3"/>
	</g>
	<g>
		<line class="st0" x1="83.8" y1="155.7" x2="94.5" y2="137.7"/>
		<line class="st0" x1="80.1" y1="141.3" x2="98.1" y2="152.1"/>
	</g>
	<g>
		<line class="st0" x1="96.9" y1="210.4" x2="107.6" y2="192.4"/>
		<line class="st0" x1="93.3" y1="196" x2="111.3" y2="206.8"/>
	</g>
</g>
</svg>
