<?xml version="1.0" encoding="utf-8"?>
<!-- Generator: Adobe Illustrator 25.2.2, SVG Export Plug-In . SVG Version: 6.00 Build 0)  -->
<svg version="1.1" id="Calque_1" xmlns="http://www.w3.org/2000/svg" xmlns:xlink="http://www.w3.org/1999/xlink" x="0px" y="0px"
	 viewBox="0 0 318.1 330.1" style="enable-background:new 0 0 318.1 330.1;" xml:space="preserve">
<style type="text/css">
	.st0{fill:#FFFFFF;stroke:#1D1D1B;stroke-width:5;stroke-linecap:round;stroke-linejoin:round;}
</style>
<g>
	<line class="st0" x1="181.8" y1="278.6" x2="298.1" y2="278.6"/>
	<line class="st0" x1="25.8" y1="278.6" x2="161.9" y2="278.6"/>
	<polyline class="st0" points="278.8,260.7 298.1,278.6 278.8,296.5 	"/>
</g>
<g>
	<path class="st0" d="M133.8,266v-6.9h-7.1v6.9h-21.8v-19.1c0-2.8,2.3-5.1,5.1-5.1h37.8l-6.6,10.7l10.5,13.5H133.8z"/>
	<rect x="126.7" y="259.1" class="st0" width="7.1" height="6.9"/>
	<path class="st0" d="M219,246.9V266h-21.8v-6.9h-7.1v6.9h-20.2l-10.4-13.5l6.6-10.7h47.8C216.7,241.8,219,244.1,219,246.9z"/>
	<rect x="190.1" y="259.1" class="st0" width="7.1" height="6.9"/>
	<path class="st0" d="M216.5,266v40.6c0,2.8-2.3,5.1-5.1,5.1h-49.1l20.5-28.9L169.9,266h20.2v6.9h7.1V266H216.5z"/>
	<path class="st0" d="M164.6,282.7l-20.5,28.9h-31.6c-2.8,0-5.1-2.3-5.1-5.1v-40.6h19.3v6.9h7.1v-6.9h17.9L164.6,282.7z"/>
	<polyline class="st0" points="147.8,241.8 136.9,241.8 136.9,231.6 154,231.6 	"/>
	<polyline class="st0" points="172.3,231.6 186.8,231.6 186.8,241.8 166,241.8 	"/>
	<rect x="126.7" y="259.1" class="st0" width="7.1" height="13.8"/>
	<rect x="190.1" y="259.1" class="st0" width="7.1" height="13.8"/>
</g>
<g>
	<polygon class="st0" points="51,104.8 51,151.2 58.4,151.2 63.9,195.4 85.4,195.4 90.9,151.2 98.3,151.2 98.3,104.8 	"/>
	<g>
		<g>
			<path class="st0" d="M88.4,86.1c0,7.6-6.2,13.7-13.7,13.7c-7.6,0-13.7-6.1-13.7-13.7c0-7.6,6.2-13.7,13.7-13.7
				C82.2,72.4,88.4,78.6,88.4,86.1"/>
			<path class="st0" d="M88.4,86.1c0,7.6-6.2,13.7-13.7,13.7c-7.6,0-13.7-6.1-13.7-13.7c0-7.6,6.2-13.7,13.7-13.7
				C82.2,72.4,88.4,78.6,88.4,86.1z"/>
		</g>
		<polygon class="st0" points="98.3,104.8 51,104.8 51,151.2 58.4,151.2 63.9,195.4 85.4,195.4 90.9,151.2 98.3,151.2 		"/>
	</g>
	<g>
		<path class="st0" d="M167.9,59.5c0,9.4-7.6,17.1-17.1,17.1c-9.4,0-17.1-7.6-17.1-17.1c0-9.4,7.6-17.1,17.1-17.1
			C160.2,42.4,167.9,50.1,167.9,59.5z"/>
		<g>
			<polygon class="st0" points="180.2,82.7 121.4,82.7 121.4,140.4 130.6,140.4 137.5,195.4 164.1,195.4 171,140.4 180.2,140.4 			
				"/>
		</g>
	</g>
	<g>
		<polygon class="st0" points="269.4,82.7 210.5,82.7 210.5,140.4 219.7,140.4 226.6,195.4 253.3,195.4 260.1,140.4 269.4,140.4 		
			"/>
		<path class="st0" d="M257,68.4c0,9.4-7.6,17.1-17.1,17.1c-9.4,0-17.1-7.7-17.1-17.1c0-9.4,7.6-17.1,17.1-17.1
			C249.4,51.3,257,58.9,257,68.4"/>
		<path class="st0" d="M257,68.4c0,9.4-7.6,17.1-17.1,17.1c-9.4,0-17.1-7.7-17.1-17.1c0-9.4,7.6-17.1,17.1-17.1
			C249.4,51.3,257,58.9,257,68.4z"/>
		<polyline class="st0" points="272.9,195.2 272.9,140.4 269.4,140.4 		"/>
	</g>
</g>
</svg>
