<?xml version="1.0" encoding="utf-8"?>
<!-- Generator: Adobe Illustrator 25.2.2, SVG Export Plug-In . SVG Version: 6.00 Build 0)  -->
<svg version="1.1" id="Calque_1" xmlns="http://www.w3.org/2000/svg" xmlns:xlink="http://www.w3.org/1999/xlink" x="0px" y="0px"
	 viewBox="0 0 318.1 330.1" style="enable-background:new 0 0 318.1 330.1;" xml:space="preserve">
<style type="text/css">
	.st0{fill:#FFFFFF;stroke:#1D1D1B;stroke-width:5;stroke-linecap:round;stroke-linejoin:round;}
</style>
<path class="st0" d="M274.7,231.5c0,26.4-21.4,47.9-47.9,47.9H88.2c-26.4,0-47.9-21.4-47.9-47.9V94c0-26.4,21.4-47.9,47.9-47.9
	h138.6c26.4,0,47.9,21.4,47.9,47.9V231.5z"/>
<path class="st0" d="M280.8,162.7c0,68.1-55.2,123.3-123.3,123.3c-68.1,0-123.3-55.2-123.3-123.3c0-68.1,55.2-123.3,123.3-123.3
	C225.6,39.5,280.8,94.6,280.8,162.7z"/>
<g>
	<path class="st0" d="M124.5,100l-24.4-46.4C77.1,65.8,58.5,85,46.9,108.4l47,23.1C100.6,118,111.3,107,124.5,100z"/>
	<path class="st0" d="M221,131.5l47-23.1c-11.5-23.4-30.2-42.7-53.2-54.8L190.4,100C203.7,107,214.4,118,221,131.5z"/>
	<path class="st0" d="M190.4,225.4l24.4,46.4c23.1-12.1,41.7-31.4,53.2-54.8l-47-23.1C214.4,207.4,203.7,218.5,190.4,225.4z"/>
	<path class="st0" d="M93.9,193.9l-47,23.1c11.5,23.4,30.2,42.7,53.2,54.8l24.4-46.4C111.3,218.5,100.6,207.4,93.9,193.9z"/>
</g>
<path class="st0" d="M228.4,162.7c0,39.2-31.7,70.9-70.9,70.9s-70.9-31.7-70.9-70.9c0-39.1,31.7-70.9,70.9-70.9
	S228.4,123.6,228.4,162.7z"/>
<g>
	<path class="st0" d="M178.4,187.9c-4.6,6.3-11.5,10.4-18.9,10.4c-14.8,0.1-22.2-15.9-22.2-35.6s7.3-35.6,22.2-35.6
		c7.4,0,14.2,4,18.9,10.4"/>
	<line class="st0" x1="126.3" y1="171.8" x2="159.7" y2="171.8"/>
	<line class="st0" x1="126.3" y1="153.3" x2="159.7" y2="153.3"/>
</g>
</svg>
