<?xml version="1.0" encoding="utf-8"?>
<!-- Generator: Adobe Illustrator 25.2.2, SVG Export Plug-In . SVG Version: 6.00 Build 0)  -->
<svg version="1.1" id="Calque_1" xmlns="http://www.w3.org/2000/svg" xmlns:xlink="http://www.w3.org/1999/xlink" x="0px" y="0px"
	 viewBox="0 0 318.1 330.1" style="enable-background:new 0 0 318.1 330.1;" xml:space="preserve">
<style type="text/css">
	.st0{fill:#FFFFFF;stroke:#1D1D1B;stroke-width:5;stroke-linecap:round;stroke-linejoin:round;}
</style>
<g>
	<g>
		<g>
			<polygon class="st0" points="62.5,113.2 62.5,207.1 203.2,207.1 203.2,113.2 132.8,42.8 			"/>
			<polyline class="st0" points="226.6,136.6 132.8,42.8 39.1,136.6 			"/>
		</g>
	</g>
	<g>
		<g>
			
				<ellipse transform="matrix(0.9871 -0.1602 0.1602 0.9871 -18.4462 34.2428)" class="st0" cx="203.2" cy="131.5" rx="29.8" ry="29.8"/>
			<path class="st0" d="M254.9,249.2c9.8-4.6,24.1-8.4,24.1-18.3s-16.1-40.1-16.1-40.1C251.7,170,246.3,170,229.6,170h-26.4h-26.4
				c-16.7,0-22.1,0-33.4,20.8c0,0-16.1,30.3-16.1,40.1s14.3,13.7,24.1,18.3"/>
		</g>
		<path class="st0" d="M244.5,190.2h-82.6c-4.5,0-8.2,3.7-8.2,8.2v61.4h99v-61.4C252.7,193.9,249,190.2,244.5,190.2z"/>
		<line class="st0" x1="127.3" y1="259.8" x2="279" y2="259.8"/>
	</g>
</g>
</svg>
