<?xml version="1.0" encoding="utf-8"?>
<!-- Generator: Adobe Illustrator 25.2.2, SVG Export Plug-In . SVG Version: 6.00 Build 0)  -->
<svg version="1.1" id="Calque_1" xmlns="http://www.w3.org/2000/svg" xmlns:xlink="http://www.w3.org/1999/xlink" x="0px" y="0px"
	 viewBox="0 0 280.9 301.6" style="enable-background:new 0 0 280.9 301.6;" xml:space="preserve">
<style type="text/css">
	.st0{fill:none;stroke:#1D1D1B;stroke-width:8.2;stroke-linecap:round;stroke-linejoin:round;}
</style>
<g>
	<g>
		<rect x="79.6" y="49.3" class="st0" width="121.6" height="75.7"/>
		<g>
			<polyline class="st0" points="159.7,49.3 140.4,22.9 121.2,49.3 			"/>
		</g>
		<polygon class="st0" points="143.4,76.9 104,125 182.8,125 		"/>
		<path class="st0" d="M184.6,73.7c0,4.1-3.3,7.5-7.5,7.5c-4.1,0-7.5-3.3-7.5-7.5c0-4.1,3.3-7.5,7.5-7.5
			C181.3,66.3,184.6,69.6,184.6,73.7z"/>
		<polygon class="st0" points="111.7,87.8 79.6,119.9 79.6,125 149,125 		"/>
		<line class="st0" x1="74.4" y1="181.9" x2="74.4" y2="270.2"/>
		<line class="st0" x1="206.4" y1="181.9" x2="206.4" y2="270.2"/>
		<path class="st0" d="M206.4,180.6c-9.4,28.9-38.3,49.4-66,49.4c-27.8,0-56.6-20.5-66-49.4"/>
		<path class="st0" d="M74.4,180.6C65,209.5,41.4,230,13.6,230"/>
		<path class="st0" d="M267.2,230c-27.8,0-51.4-20.5-60.8-49.4"/>
	</g>
	<circle class="st0" cx="74.4" cy="174" r="10.4"/>
	<circle class="st0" cx="206.4" cy="174" r="10.4"/>
</g>
</svg>
