<?xml version="1.0" encoding="utf-8"?>
<!-- Generator: Adobe Illustrator 25.2.2, SVG Export Plug-In . SVG Version: 6.00 Build 0)  -->
<svg version="1.1" id="Calque_1" xmlns="http://www.w3.org/2000/svg" xmlns:xlink="http://www.w3.org/1999/xlink" x="0px" y="0px"
	 viewBox="0 0 318.1 330.1" style="enable-background:new 0 0 318.1 330.1;" xml:space="preserve">
<style type="text/css">
	.st0{fill:#FFFFFF;stroke:#1D1D1B;stroke-width:5;stroke-linecap:round;stroke-linejoin:round;}
</style>
<circle class="st0" cx="98.8" cy="66.6" r="9.1"/>
<circle class="st0" cx="297.9" cy="87.8" r="10.7"/>
<circle class="st0" cx="212.5" cy="186.5" r="3.9"/>
<circle class="st0" cx="25.4" cy="112.4" r="5.7"/>
<circle class="st0" cx="191.3" cy="263" r="5.4"/>
<rect x="36.8" y="257.8" class="st0" width="127" height="34.4"/>
<rect x="48.1" y="221.7" class="st0" width="127" height="34.4"/>
<rect x="11.6" y="185.5" class="st0" width="127" height="34.4"/>
<rect x="53.7" y="149.4" class="st0" width="127" height="34.4"/>
<rect x="75.1" y="113.2" class="st0" width="127" height="34.4"/>
<rect x="133.1" y="72" transform="matrix(0.9516 0.3074 -0.3074 0.9516 36.9531 -56.1292)" class="st0" width="127" height="34.4"/>
<line class="st0" x1="219.3" y1="65.1" x2="251" y2="75"/>
<line class="st0" x1="235.2" y1="60.1" x2="266.9" y2="70"/>
<line class="st0" x1="23.8" y1="170.1" x2="36.8" y2="170.1"/>
<line class="st0" x1="148.1" y1="196.2" x2="148.1" y2="209.3"/>
<line class="st0" x1="14" y1="159.5" x2="36.8" y2="159.5"/>
</svg>
