<?xml version="1.0" encoding="utf-8"?>
<!-- Generator: Adobe Illustrator 25.2.2, SVG Export Plug-In . SVG Version: 6.00 Build 0)  -->
<svg version="1.1" id="Calque_1" xmlns="http://www.w3.org/2000/svg" xmlns:xlink="http://www.w3.org/1999/xlink" x="0px" y="0px"
	 viewBox="0 0 280.9 301.6" style="enable-background:new 0 0 280.9 301.6;" xml:space="preserve">
<g>
	<g>
		<path d="M138.8,153.1c0-1.3-0.7-2.4-1.8-3c-1.1-0.6-2.5-0.5-3.5,0.2c-7.4,5.2-15.7,7.6-26.2,7.6c-10.5,0-18.8-2.4-26.2-7.6
			c-1-0.7-2.4-0.8-3.5-0.2c-1.1,0.6-1.8,1.8-1.8,3c0.1,17.3,14.3,31.4,31.6,31.4C124.5,184.4,138.7,170.4,138.8,153.1z M83.4,159.5
			c7,3.4,14.8,5.1,23.8,5.1s16.8-1.7,23.8-5.1c-2.9,10.4-12.5,18.1-23.8,18.1C96,177.6,86.4,169.9,83.4,159.5z"/>
		<path d="M91.7,107.3c1.9,0,3.4-1.5,3.4-3.4c0-0.2,0-0.4-0.1-0.6c-0.3-10.3-8.8-18.7-19.3-18.7c-10.6,0-19.3,8.6-19.3,19.3
			c0,1.9,1.5,3.4,3.4,3.4H91.7C91.7,107.3,91.7,107.3,91.7,107.3z M63.9,100.4c1.5-5.2,6.3-9,12-9s10.5,3.8,12,9H63.9z"/>
		<path d="M122.8,107.3h31.7c0,0,0,0,0,0c1.9,0,3.4-1.5,3.4-3.4c0-0.2,0-0.4-0.1-0.6c-0.3-10.3-8.8-18.7-19.3-18.7
			c-10.6,0-19.3,8.6-19.3,19.3C119.4,105.7,120.9,107.3,122.8,107.3z M138.7,91.4c5.7,0,10.5,3.8,12,9h-23.9
			C128.2,95.2,133,91.4,138.7,91.4z"/>
		<path d="M162.7,189.6c-1.3-0.2-2.7-0.3-4-0.3c-15.7,0-29.1,11.8-31.3,27.3c-0.2,1.3,0.4,2.5,1.4,3.3c1,0.7,2.4,0.8,3.5,0.2
			c8-4.2,16.7-5.5,27-4.2c10.4,1.3,18.3,4.8,25,10.8c0.6,0.6,1.5,0.9,2.3,0.9c0.4,0,0.8-0.1,1.2-0.2c1.2-0.4,2-1.5,2.2-2.8
			C192.1,207.5,179.9,191.8,162.7,189.6z M160.2,209.2c-2.8-0.4-5.6-0.5-8.2-0.5c-5.7,0-11,0.8-16,2.5c3.8-8.9,12.7-15.1,22.7-15.1
			c1.1,0,2.1,0.1,3.2,0.2c11.2,1.4,19.7,10.3,21.3,20.9C176.7,213,169.1,210.4,160.2,209.2z"/>
		<path d="M179.2,157c-0.1,0.9,0.1,1.8,0.7,2.5c0.6,0.7,1.4,1.2,2.3,1.3l31.5,4c0.1,0,0.3,0,0.4,0c1.7,0,3.2-1.3,3.4-3
			c0.7-5.1-0.7-10.2-3.9-14.2c-3.1-4.1-7.7-6.7-12.8-7.3c-0.8-0.1-1.7-0.2-2.5-0.2C188.6,140.2,180.4,147.4,179.2,157z M199.9,147.1
			c3.3,0.4,6.2,2.1,8.3,4.7c1.3,1.7,2.2,3.7,2.5,5.7l-23.7-3C189,149.6,194.2,146.4,199.9,147.1z"/>
		<path d="M244.7,106.4c-1.1-0.7-2.5-0.8-3.6-0.1c-11.3,6.7-32.3,11-53.4,11c-4.7,0-9.1-0.2-13.2-0.7c3.6-19.5,5.4-42.3,5.4-68.3
			c0-1.3-0.7-2.5-1.9-3.1c-1.2-0.6-2.6-0.4-3.6,0.4c-14.9,11.6-46.4,18.8-67.1,18.8c-20.7,0-52.2-7.2-67.1-18.8
			c-1-0.8-2.4-0.9-3.6-0.4c-1.2,0.6-1.9,1.8-1.9,3.1c0,94.6,23.5,146.1,71.8,157.2c0.1,0,0.2,0,0.3,0c8.7,25.4,24.4,42.4,46.6,50.6
			c0.4,0.1,0.8,0.2,1.2,0.2c0.1,0,0.2,0,0.3,0c49.4-4.9,79.2-52.9,91.2-146.8C246.3,108.4,245.7,107.2,244.7,106.4z M41.5,54.9
			c17.4,10.4,45.8,16.5,65.7,16.5c20,0,48.4-6.1,65.7-16.5c-0.8,67.4-14.1,110.9-40.4,131.7c-0.2,0.1-0.4,0.3-0.5,0.4
			c-1.4,1-2.7,2-4.2,3c-1,0.6-1.9,1.2-2.9,1.8c-0.4,0.2-0.8,0.5-1.2,0.7c-4.8,2.6-9.9,4.6-15.5,6.1c-0.1,0-0.2,0.1-0.2,0.1
			c-0.3,0.1-0.5,0.1-0.8,0.2C64.1,188.4,42.5,141.3,41.5,54.9z M155,249.7c-19.9-7.6-33.5-22.5-41.5-45.5c20.9-6.4,36.7-21,47.7-44
			c0.1-0.2,0.2-0.3,0.2-0.5c0.8-1.6,1.5-3.3,2.2-4.9c3.9-9.2,7.2-19.6,9.6-31.2c4.5,0.5,9.3,0.7,14.4,0.7c15.5,0,36-2.4,50.8-8.9
			C226.5,200.8,199.2,244.8,155,249.7z"/>
	</g>
</g>
</svg>
