<?xml version="1.0" encoding="utf-8"?>
<!-- Generator: Adobe Illustrator 25.2.2, SVG Export Plug-In . SVG Version: 6.00 Build 0)  -->
<svg version="1.1" id="Calque_1" xmlns="http://www.w3.org/2000/svg" xmlns:xlink="http://www.w3.org/1999/xlink" x="0px" y="0px"
	 viewBox="0 0 280.9 301.6" style="enable-background:new 0 0 280.9 301.6;" xml:space="preserve">
<style type="text/css">
	.st0{fill:none;stroke:#1D1D1B;stroke-width:8.2;stroke-linecap:round;stroke-linejoin:round;}
</style>
<ellipse class="st0" cx="131.4" cy="139.4" rx="89.6" ry="89.5"/>
<ellipse class="st0" cx="131.4" cy="139.4" rx="11.2" ry="11.2"/>
<path class="st0" d="M200.4,139.4c0,10.3-8.4,18.6-18.7,18.6c-10.3,0-18.7-8.3-18.7-18.6c0-10.3,8.4-18.6,18.7-18.6
	C192.1,120.8,200.4,129.1,200.4,139.4z"/>
<path class="st0" d="M99.7,139.4c0,10.3-8.4,18.6-18.7,18.6c-10.3,0-18.7-8.3-18.7-18.6c0-10.3,8.4-18.6,18.7-18.6
	C91.3,120.8,99.7,129.1,99.7,139.4z"/>
<ellipse class="st0" cx="131.4" cy="89.1" rx="18.7" ry="18.6"/>
<path class="st0" d="M131.4,171.1c10.3,0,18.7,8.3,18.7,18.6c0,10.3-8.4,18.6-18.7,18.6s-18.7-8.3-18.7-18.6
	C112.7,179.4,121.1,171.1,131.4,171.1z"/>
<path class="st0" d="M194.7,202.7c17.5-17.5,45.9-17.5,63.3,0C240.6,185.2,212.2,185.2,194.7,202.7z"/>
</svg>
