<?xml version="1.0" encoding="utf-8"?>
<!-- Generator: Adobe Illustrator 25.2.2, SVG Export Plug-In . SVG Version: 6.00 Build 0)  -->
<svg version="1.1" id="Calque_1" xmlns="http://www.w3.org/2000/svg" xmlns:xlink="http://www.w3.org/1999/xlink" x="0px" y="0px"
	 viewBox="0 0 318.1 330.1" style="enable-background:new 0 0 318.1 330.1;" xml:space="preserve">
<style type="text/css">
	.st0{fill:#FFFFFF;stroke:#1D1D1B;stroke-width:5;stroke-linecap:round;stroke-linejoin:round;}
</style>
<path class="st0" d="M218,191.9c-4-7.4-15-12.6-28.2-20.2c-13.2-7.7-30.8-8.5-30.8-8.5l0,0l0,0h0l0,0c0,0-17.6,0.8-30.8,8.5
	c-13.2,7.7-24.2,12.9-28.2,20.2s-5.5,18.4-5.5,31.9c0,6.7,0,52.1,0,52.1H159h64.5c0,0,0-45.4,0-52.1
	C223.6,210.3,222,199.2,218,191.9z"/>
<polygon class="st0" points="164.9,185 153.1,185 148,239.2 159,258.5 159,258.5 170.1,239.2 "/>
<g>
	<polygon class="st0" points="159,163.2 159,163.2 159.1,163.2 	"/>
	<polyline class="st0" points="140.1,166.7 153.1,185 159,185 164.9,185 178,166.7 	"/>
</g>
<g>
	<path class="st0" d="M159,162c-24.8,0-45-20.2-45-45c0-24.8,20.2-45,45-45c24.8,0,45,20.2,45,45C204.1,141.8,183.9,162,159,162z"/>
	<line class="st0" x1="159" y1="92.8" x2="159" y2="112.5"/>
	<line class="st0" x1="159" y1="71.9" x2="159" y2="80.9"/>
	<line class="st0" x1="114" y1="117" x2="123" y2="117"/>
	<line class="st0" x1="159" y1="162" x2="159" y2="153"/>
	<line class="st0" x1="204.1" y1="117" x2="195.1" y2="117"/>
	<line class="st0" x1="181.2" y1="138.5" x2="162.3" y2="120.1"/>
	<path class="st0" d="M163.5,117c0,2.5-2,4.5-4.5,4.5c-2.5,0-4.5-2-4.5-4.5c0-2.5,2-4.5,4.5-4.5C161.5,112.5,163.5,114.5,163.5,117z
		"/>
</g>
</svg>
