<svg id="Calque_1" data-name="Calque 1" xmlns="http://www.w3.org/2000/svg" viewBox="0 0 280.85 301.58"><defs><style>.cls-1{fill:#fff;stroke:#1d1d1b;stroke-linecap:round;stroke-linejoin:round;stroke-width:8.2px;}</style></defs><rect class="cls-1" x="37.45" y="37.47" width="115.67" height="232.3"/><rect class="cls-1" x="52.25" y="96.33" width="19.97" height="28.23"/><rect class="cls-1" x="85.3" y="96.33" width="19.97" height="28.23"/><rect class="cls-1" x="118.35" y="96.33" width="19.97" height="28.23"/><rect class="cls-1" x="52.25" y="55.01" width="19.97" height="28.23"/><rect class="cls-1" x="85.3" y="55.01" width="19.97" height="28.23"/><rect class="cls-1" x="118.35" y="55.01" width="19.97" height="28.23"/><rect class="cls-1" x="52.25" y="137.64" width="19.97" height="28.24"/><rect class="cls-1" x="85.3" y="137.64" width="19.97" height="28.24"/><rect class="cls-1" x="118.35" y="137.64" width="19.97" height="28.24"/><rect class="cls-1" x="52.25" y="178.96" width="19.97" height="28.23"/><rect class="cls-1" x="85.3" y="178.96" width="19.97" height="28.23"/><rect class="cls-1" x="74.63" y="223.56" width="41.31" height="46.21"/><rect class="cls-1" x="171.59" y="221.65" width="41.31" height="48.16"/><polygon class="cls-1" points="192.25 144.69 122.01 200.88 138.99 200.88 138.99 269.81 175.29 269.81 175.29 224.59 209.2 224.59 209.2 269.81 245.5 269.81 245.5 200.88 262.48 200.88 192.25 144.69"/></svg>