<?xml version="1.0" encoding="utf-8"?>
<!-- Generator: Adobe Illustrator 25.2.2, SVG Export Plug-In . SVG Version: 6.00 Build 0)  -->
<svg version="1.1" id="Calque_1" xmlns="http://www.w3.org/2000/svg" xmlns:xlink="http://www.w3.org/1999/xlink" x="0px" y="0px"
	 viewBox="0 0 280.9 301.6" style="enable-background:new 0 0 280.9 301.6;" xml:space="preserve">
<style type="text/css">
	.st0{fill-rule:evenodd;clip-rule:evenodd;fill:#FFFFFF;}
	.st1{fill:none;stroke:#1D1D1B;stroke-width:5;stroke-linecap:round;stroke-linejoin:round;}
	.st2{fill:#FFFFFF;stroke:#1D1D1B;stroke-width:5;stroke-linecap:round;stroke-linejoin:round;}
</style>
<text transform="matrix(1 0 0 1 50.1079 716.6976)" style="fill:#FFFFFF;stroke:#1D1D1B;stroke-width:8.2;stroke-linecap:round;stroke-linejoin:round; font-family:'RobotoCondensed-Regular'; font-size:79.8182px;">Ville</text>
<g>
	<g>
		<rect x="142" y="71.9" class="st0" width="117.9" height="183.4"/>
		<rect x="142" y="71.9" class="st1" width="117.9" height="183.4"/>
	</g>
	<g>
		<rect x="24.1" y="137.4" class="st0" width="99.6" height="117.9"/>
		<rect x="24.1" y="137.4" class="st1" width="99.6" height="117.9"/>
	</g>
	<g>
		<rect x="181.9" y="223.3" class="st0" width="17" height="32"/>
		<rect x="181.9" y="223.3" class="st1" width="17" height="32"/>
	</g>
	<g>
		<rect x="202.9" y="223.3" class="st0" width="17" height="32"/>
		<rect x="202.9" y="223.3" class="st1" width="17" height="32"/>
	</g>
	<g>
		<rect x="155.1" y="114.1" class="st0" width="15.6" height="21.8"/>
		<rect x="155.1" y="114.1" class="st1" width="15.6" height="21.8"/>
	</g>
	<g>
		<rect x="176.3" y="114.1" class="st0" width="15.6" height="21.8"/>
		<rect x="176.3" y="114.1" class="st1" width="15.6" height="21.8"/>
	</g>
	<g>
		<rect x="209.4" y="88.9" class="st0" width="15.6" height="21.8"/>
		<rect x="209.4" y="88.9" class="st1" width="15.6" height="21.8"/>
	</g>
	<g>
		<rect x="230.6" y="88.9" class="st0" width="15.6" height="21.8"/>
		<rect x="230.6" y="88.9" class="st1" width="15.6" height="21.8"/>
	</g>
	<g>
		<rect x="209.4" y="139.3" class="st0" width="15.6" height="21.8"/>
		<rect x="209.4" y="139.3" class="st1" width="15.6" height="21.8"/>
	</g>
	<g>
		<rect x="230.6" y="139.3" class="st0" width="15.6" height="21.8"/>
		<rect x="230.6" y="139.3" class="st1" width="15.6" height="21.8"/>
	</g>
	<g>
		<rect x="230.6" y="191.3" class="st0" width="15.6" height="21.7"/>
		<rect x="230.6" y="191.3" class="st1" width="15.6" height="21.7"/>
	</g>
	<g>
		<rect x="170.8" y="171.1" class="st0" width="15.6" height="21.8"/>
		<rect x="170.8" y="171.1" class="st1" width="15.6" height="21.8"/>
	</g>
	<g>
		<rect x="192" y="171.1" class="st0" width="15.6" height="21.8"/>
		<rect x="192" y="171.1" class="st1" width="15.6" height="21.8"/>
	</g>
	<g>
		<rect x="35.8" y="151.3" class="st0" width="21.2" height="15.7"/>
		<rect x="35.8" y="151.3" class="st1" width="21.2" height="15.7"/>
	</g>
	<g>
		<rect x="62.6" y="151.3" class="st0" width="21.2" height="15.7"/>
		<rect x="62.6" y="151.3" class="st1" width="21.2" height="15.7"/>
	</g>
	<g>
		<rect x="89.4" y="151.3" class="st0" width="21.2" height="15.7"/>
		<rect x="89.4" y="151.3" class="st1" width="21.2" height="15.7"/>
	</g>
	<g>
		<rect x="62.6" y="202.8" class="st0" width="21.2" height="15.7"/>
		<rect x="62.6" y="202.8" class="st1" width="21.2" height="15.7"/>
	</g>
	<g>
		<rect x="89.4" y="202.8" class="st0" width="21.2" height="15.7"/>
		<rect x="89.4" y="202.8" class="st1" width="21.2" height="15.7"/>
	</g>
	<g>
		<rect x="35.8" y="177.7" class="st0" width="21.2" height="15.7"/>
		<rect x="35.8" y="177.7" class="st1" width="21.2" height="15.7"/>
	</g>
	<g>
		<rect x="62.6" y="177.7" class="st0" width="21.2" height="15.7"/>
		<rect x="62.6" y="177.7" class="st1" width="21.2" height="15.7"/>
	</g>
	<g>
		<rect x="39.4" y="227.2" class="st0" width="17.8" height="28.1"/>
		<rect x="39.4" y="227.2" class="st1" width="17.8" height="28.1"/>
	</g>
	<line class="st2" x1="11" y1="255.3" x2="273" y2="255.3"/>
</g>
</svg>
