<?xml version="1.0" encoding="utf-8"?>
<!-- Generator: Adobe Illustrator 25.2.2, SVG Export Plug-In . SVG Version: 6.00 Build 0)  -->
<svg version="1.1" id="Calque_1" xmlns="http://www.w3.org/2000/svg" xmlns:xlink="http://www.w3.org/1999/xlink" x="0px" y="0px"
	 viewBox="0 0 318.1 330.1" style="enable-background:new 0 0 318.1 330.1;" xml:space="preserve">
<style type="text/css">
	.st0{fill:#FFFFFF;stroke:#1D1D1B;stroke-width:5;stroke-linecap:round;stroke-linejoin:round;}
	.st1{fill:none;stroke:#1D1D1B;stroke-width:5;stroke-linejoin:round;}
	.st2{fill:none;stroke:#1D1D1B;stroke-width:5;stroke-linecap:round;stroke-linejoin:round;}
</style>
<g>
	<rect x="37.8" y="93.2" class="st0" width="92.5" height="185.7"/>
	<rect x="49.7" y="140.3" class="st0" width="16" height="22.6"/>
	<rect x="76.1" y="140.3" class="st0" width="16" height="22.6"/>
	<rect x="102.4" y="140.3" class="st0" width="16" height="22.6"/>
	<rect x="49.7" y="107.2" class="st0" width="16" height="22.6"/>
	<rect x="76.1" y="107.2" class="st0" width="16" height="22.6"/>
	<rect x="102.4" y="107.2" class="st0" width="16" height="22.6"/>
	<rect x="49.7" y="173.2" class="st0" width="16" height="22.6"/>
	<rect x="76.1" y="173.2" class="st0" width="16" height="22.6"/>
	<rect x="102.4" y="173.2" class="st0" width="16" height="22.6"/>
	<rect x="49.7" y="206.2" class="st0" width="16" height="22.6"/>
	<rect x="76.1" y="206.2" class="st0" width="16" height="22.6"/>
	<rect x="102.4" y="206.2" class="st0" width="16" height="22.6"/>
	<rect x="67.6" y="242" class="st0" width="33" height="37"/>
</g>
<g>
	<rect x="193" y="229.9" class="st0" width="39.7" height="46.3"/>
	<polygon class="st0" points="212.9,155.4 145.3,209.4 161.7,209.4 161.7,275.6 196.6,275.6 196.6,232.1 229.1,232.1 229.1,275.6 
		264,275.6 264,209.4 280.3,209.4 	"/>
</g>
<polyline class="st1" points="84.1,15.6 152,81.5 206.7,39.7 276.1,116.3 "/>
<polyline class="st2" points="272.9,91.6 276.1,115.1 252.5,118.5 "/>
<path class="st0" d="M517.1,301.6v6.5c0,3.7-12.2,6.7-27.3,6.7s-27.3-3-27.3-6.7v-6.5"/>
<ellipse class="st0" cx="489.8" cy="301.6" rx="27.3" ry="6.7"/>
<path class="st0" d="M514,295.1v6.5c0,3.7-12.2,6.7-27.3,6.7s-27.3-3-27.3-6.7v-6.5"/>
<path class="st0" d="M459.4,295.1c0,3.7,12.2,6.7,27.3,6.7s27.3-3,27.3-6.7s-12.3-6.7-27.3-6.7C471.6,288.4,459.4,291.4,459.4,295.1
	z"/>
<path class="st0" d="M514,287.9v6.5c0,3.7-12.2,6.7-27.3,6.7s-27.3-3-27.3-6.7v-6.5"/>
<ellipse class="st0" cx="483.3" cy="288.6" rx="27.3" ry="6.7"/>
<path class="st0" d="M517.1,282.1v6.5c0,3.7-12.2,6.7-27.3,6.7s-27.3-3-27.3-6.7v-6.5"/>
<ellipse class="st0" cx="489.8" cy="282.1" rx="27.3" ry="6.7"/>
<path class="st0" d="M517.1,275.6v6.5c0,3.7-12.2,6.7-27.3,6.7s-27.3-3-27.3-6.7v-6.5"/>
<ellipse class="st0" cx="489.8" cy="275.6" rx="27.3" ry="6.7"/>
<path class="st0" d="M517.1,269.1v6.5c0,3.7-12.2,6.7-27.3,6.7s-27.3-3-27.3-6.7v-6.5"/>
<ellipse class="st0" cx="489.8" cy="269.1" rx="27.3" ry="6.7"/>
<path class="st0" d="M501.3,309.1v6.5c0,3.7,12.2,6.7,27.3,6.7s27.3-3,27.3-6.7v-6.5"/>
<ellipse class="st0" cx="528.6" cy="309.1" rx="27.3" ry="6.7"/>
<path class="st0" d="M507.8,302.5v6.5c0,3.7,12.2,6.7,27.3,6.7s27.3-3,27.3-6.7v-6.5"/>
<ellipse class="st0" cx="535.2" cy="302.5" rx="27.3" ry="6.7"/>
<path class="st0" d="M501.3,296v6.5c0,3.7,12.2,6.7,27.3,6.7s27.3-3,27.3-6.7V296"/>
<ellipse class="st0" cx="528.6" cy="296" rx="27.3" ry="6.7"/>
<path class="st0" d="M501.3,289.5v6.5c0,3.7,12.2,6.7,27.3,6.7s27.3-3,27.3-6.7v-6.5"/>
<ellipse class="st0" cx="528.6" cy="289.5" rx="27.3" ry="6.7"/>
<path class="st0" d="M501.3,283v6.5c0,3.7,12.2,6.7,27.3,6.7s27.3-3,27.3-6.7V283"/>
<ellipse class="st0" cx="528.6" cy="283" rx="27.3" ry="6.7"/>
<path class="st0" d="M462.4,262.6v6.5c0,3.7,12.2,6.7,27.3,6.7s27.3-3,27.3-6.7v-6.5"/>
<ellipse class="st0" cx="489.8" cy="262.6" rx="27.3" ry="6.7"/>
<path class="st0" d="M469,256.1v6.5c0,3.7,12.2,6.7,27.3,6.7s27.3-3,27.3-6.7v-6.5"/>
<path class="st0" d="M523.6,256.1c0,3.7-12.2,6.7-27.3,6.7s-27.3-3-27.3-6.7c0-3.7,12.2-6.7,27.3-6.7S523.6,252.4,523.6,256.1z"/>
<path class="st0" d="M462.4,249.6v6.5c0,3.7,12.2,6.7,27.3,6.7s27.3-3,27.3-6.7v-6.5"/>
<ellipse class="st0" cx="489.8" cy="249.6" rx="27.3" ry="6.7"/>
<path class="st0" d="M462.4,243.1v6.5c0,3.7,12.2,6.7,27.3,6.7s27.3-3,27.3-6.7v-6.5"/>
<ellipse class="st0" cx="489.8" cy="243.1" rx="27.3" ry="6.7"/>
<path class="st0" d="M462.4,236.5v6.5c0,3.7,12.2,6.7,27.3,6.7s27.3-3,27.3-6.7v-6.5"/>
<path class="st0" d="M517.1,236.5c0,3.7-12.2,6.7-27.3,6.7s-27.3-3-27.3-6.7c0-3.7,12.2-6.7,27.3-6.7S517.1,232.9,517.1,236.5z"/>
</svg>
