<svg id="Calque_1" data-name="Calque 1" xmlns="http://www.w3.org/2000/svg" viewBox="0 0 318.06 330.07"><defs><style>.cls-1{fill:none;stroke-linecap:round;stroke-linejoin:round;}.cls-1,.cls-2{stroke:#1d1d1b;stroke-width:9.54px;}.cls-2{fill:#fff;stroke-miterlimit:10;}</style></defs><line class="cls-1" x1="138.45" y1="17.89" x2="268.38" y2="92.9"/><polyline class="cls-1" points="259.17 58.54 268.38 92.9 234.02 102.11"/><path class="cls-2" d="M178.09,232.49v14c0,8-26.39,14.44-58.93,14.44s-58.94-6.47-58.94-14.44v-14"/><ellipse class="cls-2" cx="119.16" cy="232.49" rx="58.93" ry="14.43"/><path class="cls-2" d="M171.41,218.46v14c0,8-26.38,14.43-58.93,14.43s-58.93-6.46-58.93-14.43v-14"/><path class="cls-2" d="M53.55,218.46c0,8,26.38,14.43,58.93,14.43s58.93-6.46,58.93-14.43S145,204,112.48,204,53.55,210.49,53.55,218.46Z"/><path class="cls-2" d="M164.06,204.42v14c0,8-26.39,14.43-58.94,14.43s-58.93-6.46-58.93-14.43v-14"/><ellipse class="cls-2" cx="105.12" cy="204.42" rx="58.93" ry="14.43"/><path class="cls-2" d="M178.09,190.39v14c0,8-26.39,14.44-58.93,14.44s-58.94-6.46-58.94-14.44v-14"/><ellipse class="cls-2" cx="119.16" cy="190.39" rx="58.93" ry="14.43"/><path class="cls-2" d="M178.09,176.36v14c0,8-26.39,14.43-58.93,14.43s-58.94-6.46-58.94-14.43v-14"/><ellipse class="cls-2" cx="119.16" cy="176.36" rx="58.93" ry="14.43"/><path class="cls-2" d="M178.09,162.33v14c0,8-26.39,14.43-58.93,14.43s-58.94-6.46-58.94-14.43v-14"/><ellipse class="cls-2" cx="119.16" cy="162.33" rx="58.93" ry="14.43"/><path class="cls-2" d="M152.19,259.78v14c0,8,26.39,14.44,58.93,14.44s58.94-6.47,58.94-14.44v-14"/><ellipse class="cls-2" cx="211.12" cy="259.78" rx="58.93" ry="14.43"/><path class="cls-2" d="M166.22,245.75v14c0,8,26.39,14.43,58.94,14.43s58.93-6.46,58.93-14.43v-14"/><ellipse class="cls-2" cx="225.16" cy="245.75" rx="58.93" ry="14.43"/><path class="cls-2" d="M152.19,231.71v14c0,8,26.39,14.43,58.93,14.43s58.94-6.46,58.94-14.43v-14"/><ellipse class="cls-2" cx="211.12" cy="231.71" rx="58.93" ry="14.43"/><path class="cls-2" d="M152.19,217.68v14c0,8,26.39,14.44,58.93,14.44s58.94-6.47,58.94-14.44v-14"/><ellipse class="cls-2" cx="211.12" cy="217.68" rx="58.93" ry="14.43"/><path class="cls-2" d="M152.19,203.65v14c0,8,26.39,14.43,58.93,14.43s58.94-6.46,58.94-14.43v-14"/><ellipse class="cls-2" cx="211.12" cy="203.65" rx="58.93" ry="14.43"/><path class="cls-2" d="M60.22,148.29v14c0,8,26.39,14.43,58.94,14.43s58.93-6.46,58.93-14.43v-14"/><ellipse class="cls-2" cx="119.16" cy="148.29" rx="58.93" ry="14.43"/><path class="cls-2" d="M74.26,134.26v14c0,8,26.38,14.44,58.93,14.44s58.93-6.47,58.93-14.44v-14"/><path class="cls-2" d="M192.12,134.26c0,8-26.38,14.43-58.93,14.43s-58.93-6.46-58.93-14.43,26.38-14.43,58.93-14.43S192.12,126.29,192.12,134.26Z"/><path class="cls-2" d="M60.22,120.23v14c0,8,26.39,14.43,58.94,14.43s58.93-6.46,58.93-14.43v-14"/><ellipse class="cls-2" cx="119.16" cy="120.23" rx="58.93" ry="14.43"/><path class="cls-2" d="M60.22,106.19v14c0,8,26.39,14.43,58.94,14.43s58.93-6.46,58.93-14.43v-14"/><ellipse class="cls-2" cx="119.16" cy="106.19" rx="58.93" ry="14.43"/><path class="cls-2" d="M60.22,92.16v14c0,8,26.39,14.44,58.94,14.44s58.93-6.46,58.93-14.44v-14"/><path class="cls-2" d="M178.09,92.16c0,8-26.39,14.43-58.93,14.43s-58.94-6.46-58.94-14.43,26.39-14.43,58.94-14.43S178.09,84.19,178.09,92.16Z"/></svg>