<?xml version="1.0" encoding="utf-8"?>
<!-- Generator: Adobe Illustrator 25.2.2, SVG Export Plug-In . SVG Version: 6.00 Build 0)  -->
<svg version="1.1" id="Calque_1" xmlns="http://www.w3.org/2000/svg" xmlns:xlink="http://www.w3.org/1999/xlink" x="0px" y="0px"
	 viewBox="0 0 318.1 330.1" style="enable-background:new 0 0 318.1 330.1;" xml:space="preserve">
<style type="text/css">
	.st0{fill:#FFFFFF;stroke:#1D1D1B;stroke-width:5;stroke-linejoin:round;}
	.st1{fill:none;stroke:#1D1D1B;stroke-width:5;stroke-linecap:round;stroke-linejoin:round;}
	.st2{fill:#FFFFFF;stroke:#1D1D1B;stroke-width:5;stroke-linecap:round;stroke-linejoin:round;}
</style>
<g>
	<line class="st0" x1="189" y1="78" x2="289.8" y2="154.2"/>
	<polyline class="st1" points="285.7,124.6 289.8,154.2 260.1,158.4 	"/>
</g>
<path class="st2" d="M175.6,278.3v13.1c0,7.5-24.7,13.5-55.3,13.5s-55.3-6.1-55.3-13.5v-13.1"/>
<ellipse class="st2" cx="120.4" cy="278.3" rx="55.3" ry="13.5"/>
<path class="st2" d="M169.4,265.2v13.1c0,7.5-24.7,13.5-55.3,13.5s-55.3-6.1-55.3-13.5v-13.1"/>
<path class="st2" d="M58.9,265.2c0,7.5,24.7,13.5,55.3,13.5s55.3-6.1,55.3-13.5s-24.8-13.6-55.3-13.6S58.9,257.7,58.9,265.2z"/>
<path class="st2" d="M169.4,250.6v13.1c0,7.5-24.7,13.5-55.3,13.5s-55.3-6.1-55.3-13.5v-13.1"/>
<ellipse class="st2" cx="107.2" cy="252" rx="55.3" ry="13.5"/>
<path class="st2" d="M175.6,238.9V252c0,7.5-24.7,13.5-55.3,13.5s-55.3-6.1-55.3-13.5v-13.1"/>
<ellipse class="st2" cx="120.4" cy="238.9" rx="55.3" ry="13.5"/>
<path class="st2" d="M175.6,225.7v13.1c0,7.5-24.7,13.5-55.3,13.5s-55.3-6.1-55.3-13.5v-13.1"/>
<ellipse class="st2" cx="120.4" cy="225.7" rx="55.3" ry="13.5"/>
<path class="st2" d="M175.6,212.5v13.1c0,7.5-24.7,13.5-55.3,13.5s-55.3-6.1-55.3-13.5v-13.1"/>
<ellipse class="st2" cx="120.4" cy="212.5" rx="55.3" ry="13.5"/>
<path class="st2" d="M143.8,293.4v13.1c0,7.5,24.7,13.5,55.3,13.5s55.3-6.1,55.3-13.5v-13.1"/>
<ellipse class="st2" cx="199" cy="293.4" rx="55.3" ry="13.5"/>
<path class="st2" d="M156.9,280.2v13.1c0,7.5,24.7,13.5,55.3,13.5s55.3-6.1,55.3-13.5v-13.1"/>
<ellipse class="st2" cx="212.2" cy="280.2" rx="55.3" ry="13.5"/>
<path class="st2" d="M143.8,267v13.1c0,7.5,24.7,13.5,55.3,13.5s55.3-6.1,55.3-13.5V267"/>
<ellipse class="st2" cx="199" cy="267" rx="55.3" ry="13.5"/>
<path class="st2" d="M143.8,253.9V267c0,7.5,24.7,13.5,55.3,13.5s55.3-6.1,55.3-13.5v-13.1"/>
<ellipse class="st2" cx="199" cy="253.9" rx="55.3" ry="13.5"/>
<path class="st2" d="M143.8,240.7v13.1c0,7.5,24.7,13.5,55.3,13.5s55.3-6.1,55.3-13.5v-13.1"/>
<ellipse class="st2" cx="199" cy="240.7" rx="55.3" ry="13.5"/>
<path class="st2" d="M65.1,199.4v13.1c0,7.5,24.7,13.5,55.3,13.5s55.3-6.1,55.3-13.5v-13.1"/>
<ellipse class="st2" cx="120.4" cy="199.4" rx="55.3" ry="13.5"/>
<path class="st2" d="M78.3,186.2v13.1c0,7.5,24.7,13.5,55.3,13.5s55.3-6.1,55.3-13.5v-13.1"/>
<path class="st2" d="M188.8,186.2c0,7.5-24.7,13.5-55.3,13.5s-55.3-6.1-55.3-13.5s24.7-13.5,55.3-13.5S188.8,178.7,188.8,186.2z"/>
<path class="st2" d="M65.1,173.1v13.1c0,7.5,24.7,13.5,55.3,13.5s55.3-6.1,55.3-13.5v-13.1"/>
<ellipse class="st2" cx="120.4" cy="173.1" rx="55.3" ry="13.5"/>
<path class="st2" d="M65.1,159.9V173c0,7.5,24.7,13.5,55.3,13.5s55.3-6.1,55.3-13.5v-13.1"/>
<ellipse class="st2" cx="120.4" cy="159.9" rx="55.3" ry="13.5"/>
<path class="st2" d="M65.1,146.7v13.1c0,7.5,24.7,13.5,55.3,13.5s55.3-6.1,55.3-13.5v-13.1"/>
<path class="st2" d="M175.6,146.7c0,7.5-24.7,13.5-55.3,13.5s-55.3-6.1-55.3-13.5c0-7.5,24.7-13.5,55.3-13.5
	S175.6,139.3,175.6,146.7z"/>
<rect x="87.3" y="7.6" class="st2" width="69.3" height="139.1"/>
<rect x="96.2" y="42.9" class="st2" width="12" height="16.9"/>
<rect x="116" y="42.9" class="st2" width="12" height="16.9"/>
<rect x="135.7" y="42.9" class="st2" width="12" height="16.9"/>
<rect x="96.2" y="18.1" class="st2" width="12" height="16.9"/>
<rect x="116" y="18.1" class="st2" width="12" height="16.9"/>
<rect x="135.7" y="18.1" class="st2" width="12" height="16.9"/>
<rect x="96.2" y="67.6" class="st2" width="12" height="16.9"/>
<rect x="116" y="67.6" class="st2" width="12" height="16.9"/>
<rect x="135.7" y="67.6" class="st2" width="12" height="16.9"/>
<rect x="96.2" y="92.3" class="st2" width="12" height="16.9"/>
<rect x="116" y="92.3" class="st2" width="12" height="16.9"/>
<rect x="135.7" y="92.3" class="st2" width="12" height="16.9"/>
<rect x="109.6" y="119.1" class="st2" width="24.7" height="27.7"/>
<g>
	<rect x="184.2" y="206.8" class="st2" width="29.7" height="34.6"/>
	<polygon class="st2" points="199.1,151.1 148.6,191.5 160.8,191.5 160.8,241 186.9,241 186.9,208.5 211.2,208.5 211.2,241 
		237.3,241 237.3,191.5 249.5,191.5 	"/>
</g>
</svg>
