<?xml version="1.0" encoding="utf-8"?>
<!-- Generator: Adobe Illustrator 25.2.2, SVG Export Plug-In . SVG Version: 6.00 Build 0)  -->
<svg version="1.1" id="Calque_1" xmlns="http://www.w3.org/2000/svg" xmlns:xlink="http://www.w3.org/1999/xlink" x="0px" y="0px"
	 viewBox="0 0 280.9 301.6" style="enable-background:new 0 0 280.9 301.6;" xml:space="preserve">
<style type="text/css">
	.st0{fill:none;stroke:#1D1D1B;stroke-width:5;stroke-linecap:round;stroke-linejoin:round;}
</style>
<text transform="matrix(1 0 0 1 50.1079 716.6976)" style="fill:#FFFFFF; font-family:'RobotoCondensed-Regular'; font-size:79.8182px;">Ville</text>
<text transform="matrix(1 0 0 1 50.1079 716.6976)" style="fill:none;stroke:#1D1D1B;stroke-width:8.2;stroke-linecap:round;stroke-linejoin:round; font-family:'RobotoCondensed-Regular'; font-size:79.8182px;">Ville</text>
<g>
	<g>
		<g>
			<path class="st0" d="M242.7,109v126.5c0,8-6.5,14.4-14.4,14.4H101.7"/>
			<path class="st0" d="M38.2,186.4V59.9c0-8,6.5-14.4,14.4-14.4h126.5"/>
		</g>
		<g>
			<line class="st0" x1="38.2" y1="249.9" x2="96.1" y2="192.1"/>
		</g>
		<g>
			<polyline class="st0" points="70.9,249.9 38.2,249.9 38.2,217.2 			"/>
			<line class="st0" x1="38.2" y1="249.9" x2="96.1" y2="192.1"/>
		</g>
		<g>
			<polyline class="st0" points="210,45.5 242.7,45.5 242.7,78.2 			"/>
			<line class="st0" x1="242.7" y1="45.5" x2="184.8" y2="103.3"/>
		</g>
	</g>
	<g>
		<g>
			<line class="st0" x1="101" y1="135.6" x2="101" y2="177"/>
			<path class="st0" d="M101,148.7c0-6.8,5.5-12.3,12.3-12.3c6.8,0,12.3,5.5,12.3,12.3V177"/>
			<path class="st0" d="M125.6,148.7c0-6.8,5.5-12.3,12.3-12.3s12.3,5.5,12.3,12.3V177"/>
		</g>
		<path class="st0" d="M162.8,126.9c0-4.7,3.8-8.5,8.5-8.5c4.7,0,8.5,4.5,8.5,8.5c0,8.7-17.1,14.3-17.1,22.1h17.1"/>
	</g>
</g>
</svg>
