<?xml version="1.0" encoding="utf-8"?>
<!-- Generator: Adobe Illustrator 25.2.2, SVG Export Plug-In . SVG Version: 6.00 Build 0)  -->
<svg version="1.1" id="Calque_1" xmlns="http://www.w3.org/2000/svg" xmlns:xlink="http://www.w3.org/1999/xlink" x="0px" y="0px"
	 viewBox="0 0 318.1 330.1" style="enable-background:new 0 0 318.1 330.1;" xml:space="preserve">
<style type="text/css">
	
		.st0{fill-rule:evenodd;clip-rule:evenodd;fill:#FFFFFF;stroke:#1D1D1B;stroke-width:5;stroke-linecap:round;stroke-linejoin:round;}
	.st1{fill:#1D1D1B;}
	.st2{fill:#FFFFFF;stroke:#1D1D1B;stroke-width:5;stroke-linecap:round;stroke-linejoin:round;}
</style>
<polygon class="st0" points="194.8,212.4 194.8,70.9 178.5,70.9 167.1,51.6 63.8,51.6 52.4,70.9 36.1,70.9 36.1,212.4 28.3,212.4 
	28.3,212.4 83.7,212.4 83.7,220.5 115.5,220.5 147.2,220.5 147.2,212.4 202.6,212.4 202.6,212.4 "/>
<rect x="100.4" y="88.8" class="st0" width="30.2" height="26.3"/>
<rect x="100.4" y="128.8" class="st0" width="30.2" height="26.3"/>
<rect x="52.4" y="168.3" class="st0" width="30.2" height="26.3"/>
<rect x="52.4" y="128.8" class="st0" width="30.2" height="26.3"/>
<rect x="52.4" y="88.8" class="st0" width="30.2" height="26.3"/>
<rect x="92.9" y="168.3" class="st0" width="45.1" height="52.2"/>
<rect x="148.3" y="168.3" class="st0" width="30.2" height="26.3"/>
<rect x="148.3" y="128.8" class="st0" width="30.2" height="26.3"/>
<rect x="148.3" y="88.8" class="st0" width="30.2" height="26.3"/>
<line class="st0" x1="115.5" y1="168.3" x2="115.5" y2="220.5"/>
<g>
	<path class="st1" d="M87.3,58.5v8.5h4.3v-8.5h4.1v21.3h-4.1v-8.9h-4.3v8.9h-4.1V58.5H87.3z"/>
	<path class="st1" d="M112,68.8c0,8-2.8,11.3-6.9,11.3c-4.8,0-6.7-5.1-6.7-11c0-5.8,2.3-10.8,7-10.8C110.5,58.3,112,63.9,112,68.8z
		 M102.7,69.2c0,4.8,0.9,7.3,2.6,7.3c1.7,0,2.4-3.1,2.4-7.5c0-3.7-0.6-7.1-2.4-7.1C103.6,61.9,102.7,64.6,102.7,69.2z"/>
	<path class="st1" d="M116.7,62.4H113v-3.8h11.7v3.8h-3.8v17.5h-4.1V62.4z"/>
	<path class="st1" d="M135.8,70.5H131v5.7h5.5v3.6h-9.6V58.5h9.2v3.6H131V67h4.9V70.5z"/>
	<path class="st1" d="M139.3,58.5h4.1v17.8h5.5v3.5h-9.6V58.5z"/>
</g>
<g>
	<line class="st2" x1="99.8" y1="314.9" x2="307.5" y2="314.9"/>
	<path class="st2" d="M276.4,156c0,11-8.9,20-20,20c-11,0-20-8.9-20-20c0-11,8.9-20,20-20C267.5,136,276.4,145,276.4,156z"/>
	<polygon class="st2" points="290.9,183.1 222,183.1 222,250.6 232.8,250.6 240.9,314.9 272,314.9 280.1,250.6 290.9,250.6 	"/>
	<g>
		<path class="st2" d="M170.7,261.1v-9.9v-0.3l-0.3-0.1l-2-0.5c-3.7-0.9-7.4-1.3-11.2-1.3c-3.8,0-7.5,0.4-11.2,1.3l-2,0.5l-0.3,0.1
			v0.3v9.9"/>
		<path class="st2" d="M198.8,266.1c0-2.7-2.2-5-5-5l-73.1,0c-2.7,0-5,2.2-5,5v42c0,2.8,2.2,5,5,5l73.1,0c2.8,0,5-2.2,5-5V266.1"/>
		<line class="st2" x1="134.4" y1="261.1" x2="134.4" y2="313.1"/>
		<line class="st2" x1="180.1" y1="261.1" x2="180.1" y2="313.1"/>
	</g>
	<g>
		<path class="st2" d="M198.7,310.2V304c-0.5-0.1-1.1-0.2-1.6-0.2c-5.2,0-9.5,4.2-9.5,9.5c0,0.5,0.1,0.9,0.1,1.4h6.4
			C196.7,314.7,198.7,312.7,198.7,310.2z"/>
		<path class="st2" d="M117,303.1c-0.4,0-0.8,0.1-1.1,0.1v7c0,2.5,2,4.5,4.5,4.5h5.8c0.2-0.7,0.3-1.4,0.3-2.1
			C126.5,307.3,122.2,303.1,117,303.1z"/>
		<path class="st2" d="M127.2,264.4c0-0.5-0.1-0.9-0.1-1.4h-6.7c-2.5,0-4.5,2-4.5,4.5v6.1c0.6,0.1,1.2,0.2,1.9,0.2
			C123,273.8,127.2,269.6,127.2,264.4z"/>
		<path class="st2" d="M196.8,273.6c0.6,0,1.3-0.1,1.9-0.2v-5.9c0-2.5-2-4.5-4.5-4.5h-6.7c0,0.4-0.1,0.7-0.1,1.1
			C187.3,269.3,191.6,273.6,196.8,273.6z"/>
	</g>
</g>
</svg>
