<?xml version="1.0" encoding="utf-8"?>
<!-- Generator: Adobe Illustrator 25.2.2, SVG Export Plug-In . SVG Version: 6.00 Build 0)  -->
<svg version="1.1" id="Calque_1" xmlns="http://www.w3.org/2000/svg" xmlns:xlink="http://www.w3.org/1999/xlink" x="0px" y="0px"
	 viewBox="0 0 318.1 330.1" style="enable-background:new 0 0 318.1 330.1;" xml:space="preserve">
<style type="text/css">
	.st0{fill:#FFFFFF;stroke:#1D1D1B;stroke-width:5;stroke-linecap:round;stroke-linejoin:round;}
</style>
<g>
	<g>
		<g>
			<path class="st0" d="M181.1,125.1c0,1.5-1.2,2.7-2.7,2.7H84.2c-1.5,0-2.7-1.2-2.7-2.7V60.6c0-1.5,1.2-2.7,2.7-2.7h94.3
				c1.5,0,2.7,1.2,2.7,2.7V125.1z"/>
			<polygon class="st0" points="143.4,143.7 119.2,143.7 120.9,127.8 141.8,127.8 			"/>
		</g>
	</g>
	<rect x="43.1" y="143.7" class="st0" width="246.8" height="14.7"/>
	<rect x="53.4" y="158.4" class="st0" width="15.9" height="113.8"/>
	<rect x="263.2" y="158.4" class="st0" width="15.9" height="113.8"/>
	<rect x="69.4" y="158.4" class="st0" width="193.8" height="25.6"/>
	<g>
		<path class="st0" d="M162.7,200.1v-74.5c0-18.2,14.8-33,33-33l0,0c18.2,0,33,14.8,33,33v74.5H162.7z"/>
		<path class="st0" d="M204.8,206.4v8.8c0,5-4.1,9.1-9.1,9.1l0,0c-5,0-9.1-4.1-9.1-9.1v-8.8"/>
		<line class="st0" x1="195.7" y1="224.3" x2="195.7" y2="263.4"/>
		<path class="st0" d="M171.6,263.4v-3.1c0-6.4,5.2-8.5,11.5-8.5h12.6h12.6c6.4,0,11.5,2.2,11.5,8.5v3.1"/>
		<rect x="168" y="200.1" class="st0" width="55.6" height="6.3"/>
		<path class="st0" d="M171.6,263.4c-2.4,0-4.4,2-4.4,4.4c0,2.4,2,4.4,4.4,4.4c2.4,0,4.4-2,4.4-4.4C176,265.4,174,263.4,171.6,263.4
			L171.6,263.4z"/>
		<path class="st0" d="M195.7,263.4c-2.4,0-4.4,2-4.4,4.4c0,2.4,2,4.4,4.4,4.4c2.4,0,4.4-2,4.4-4.4
			C200.1,265.4,198.1,263.4,195.7,263.4L195.7,263.4z"/>
		<path class="st0" d="M219.9,263.4c-2.4,0-4.4,2-4.4,4.4c0,2.4,2,4.4,4.4,4.4c2.4,0,4.4-2,4.4-4.4
			C224.3,265.4,222.3,263.4,219.9,263.4L219.9,263.4z"/>
	</g>
</g>
</svg>
