<?xml version="1.0" encoding="utf-8"?>
<!-- Generator: Adobe Illustrator 25.2.2, SVG Export Plug-In . SVG Version: 6.00 Build 0)  -->
<svg version="1.1" id="Calque_1" xmlns="http://www.w3.org/2000/svg" xmlns:xlink="http://www.w3.org/1999/xlink" x="0px" y="0px"
	 viewBox="0 0 318.1 330.1" style="enable-background:new 0 0 318.1 330.1;" xml:space="preserve">
<style type="text/css">
	.st0{fill:#FFFFFF;stroke:#1D1D1B;stroke-width:5;stroke-linecap:round;stroke-linejoin:round;}
	.st1{fill:none;stroke:#1D1D1B;stroke-width:5;stroke-linecap:round;stroke-linejoin:round;}
</style>
<path class="st0" d="M236.3,132.5H104.5v-28.3c0-4,3.3-7.5,7.5-7.5h115.6C232.8,107.6,235.9,119.7,236.3,132.5z"/>
<path class="st0" d="M236.4,135.3c0,25.5-10.7,48.4-27.8,64.7h-93.1c-4,0-7.5-3.3-7.5-7.5v-60h128.3
	C236.3,133.4,236.4,134.4,236.4,135.3z"/>
<path class="st0" d="M191.1,72.1h-31.8c-4.2,0-7.5,3.4-7.5,7.5v2.1h46.8v-2.1C198.5,75.5,195.2,72.1,191.1,72.1z"/>
<line class="st1" x1="151.8" y1="81.7" x2="151.8" y2="96.7"/>
<line class="st1" x1="198.5" y1="81.7" x2="198.5" y2="96.7"/>
<rect x="136.7" y="122.3" class="st0" width="10.4" height="20.5"/>
<rect x="203.4" y="122.3" class="st0" width="10.4" height="20.5"/>
<line class="st1" x1="168.1" y1="122.3" x2="182.5" y2="122.3"/>
<path class="st1" d="M236.4,135.3c0,25.5-10.7,48.4-27.8,64.7c-16,15.2-37.6,24.5-61.4,24.5c-23,0-44-8.7-59.8-23
	c-18-16.3-29.4-39.9-29.4-66.2c0-49.3,39.9-89.2,89.2-89.2c35.4,0,66,20.7,80.4,50.6c5.2,10.9,8.3,23,8.7,35.8
	C236.3,133.4,236.4,134.4,236.4,135.3z"/>
<line class="st1" x1="266.5" y1="279.5" x2="197.1" y2="210.1"/>
</svg>
