<?xml version="1.0" encoding="utf-8"?>
<!-- Generator: Adobe Illustrator 25.2.2, SVG Export Plug-In . SVG Version: 6.00 Build 0)  -->
<svg version="1.1" id="Calque_1" xmlns="http://www.w3.org/2000/svg" xmlns:xlink="http://www.w3.org/1999/xlink" x="0px" y="0px"
	 viewBox="0 0 318.1 330.1" style="enable-background:new 0 0 318.1 330.1;" xml:space="preserve">
<g>
	<path d="M126.9,140.4H80.4V171H63v36.8h12.6v24.4h-5.5V269h101v-30.6h5.5v-36.8H164v-24.4h17.4v-30.6h46.6v-36.8h-101V140.4z
		 M164.9,262.8H76.3v-24.4h88.6V262.8z M170.4,207.8v24.4H81.8v-24.4H170.4z M157.8,201.6H69.2v-24.4h88.6L157.8,201.6L157.8,201.6z
		 M175.2,171H86.6v-24.4h88.6L175.2,171L175.2,171z M133.1,116h88.6v24.4h-88.6V116z"/>
	<path d="M171.2,93.1l97.1,27.7l10.1-35.4l-97.1-27.7L171.2,93.1z M270.8,89.7l-6.7,23.4l-85.2-24.3l6.7-23.4L270.8,89.7z"/>
	<rect x="253.6" y="57.3" transform="matrix(0.2747 -0.9615 0.9615 0.2747 118.967 297.4742)" width="6.2" height="25.1"/>
	<rect x="265.6" y="49" transform="matrix(0.2749 -0.9615 0.9615 0.2749 135.7073 302.9799)" width="6.2" height="25.1"/>
	<rect x="144.9" y="63.5" width="6.2" height="10.2"/>
	<rect x="144.9" y="88.4" width="6.2" height="10.2"/>
	<rect x="155.3" y="78" width="10.2" height="6.2"/>
	<rect x="130.5" y="78" width="10.2" height="6.2"/>
	<rect x="97.7" y="130.1" width="14" height="6.2"/>
	<rect x="83.5" y="118" width="28.2" height="6.2"/>
	<rect x="167.2" y="185.4" width="6.2" height="10.6"/>
	<rect x="180.9" y="229.1" width="6.2" height="7.8"/>
	<rect x="174.3" y="250.6" width="6.2" height="12.9"/>
</g>
</svg>
