<?xml version="1.0" encoding="utf-8"?>
<!-- Generator: Adobe Illustrator 25.2.2, SVG Export Plug-In . SVG Version: 6.00 Build 0)  -->
<svg version="1.1" id="Calque_1" xmlns="http://www.w3.org/2000/svg" xmlns:xlink="http://www.w3.org/1999/xlink" x="0px" y="0px"
	 viewBox="0 0 318.1 330.1" style="enable-background:new 0 0 318.1 330.1;" xml:space="preserve">
<path d="M111.6,186c-7.8,0-14.1,6.3-14.1,14.1c0,7.8,6.3,14.1,14.1,14.1s14.1-6.3,14.1-14.1C125.7,192.3,119.4,186,111.6,186z
	 M111.6,209.3c-5,0-8.9-3.9-8.9-8.9s3.9-8.9,8.9-8.9c5,0,8.9,3.9,8.9,8.9S116.5,209.3,111.6,209.3z"/>
<path d="M205.7,186c-7.8,0-14.1,6.3-14.1,14.1c0,7.8,6.3,14.1,14.1,14.1c7.8,0,14.1-6.3,14.1-14.1C219.9,192.3,213.6,186,205.7,186z
	 M205.7,209.3c-5,0-8.9-3.9-8.9-8.9s3.9-8.9,8.9-8.9c5,0,8.9,3.9,8.9,8.9S210.7,209.3,205.7,209.3z"/>
<path d="M139.6,94.2h38.2c5.5,0,9.7-4.4,9.7-9.7c0-5.5-4.4-9.7-9.7-9.7h-38.2c-5.5,0-9.7,4.4-9.7,9.7
	C129.9,89.7,134.3,94.2,139.6,94.2z M139.6,79.8h38.2c2.6,0,4.4,2.1,4.4,4.4s-2.1,4.4-4.4,4.4h-38.2c-2.6,0-4.4-2.1-4.4-4.4
	S137.2,79.8,139.6,79.8z"/>
<path d="M219.6,107.3H98c-1.6,0-2.6,1-2.6,2.6v62.3c0,1.6,1,2.6,2.6,2.6h121.7c1.6,0,2.6-1,2.6-2.6v-62.3
	C222.2,108.6,220.9,107.3,219.6,107.3z M217,169.5H100.6v-57H217V169.5z"/>
<path d="M246.6,107.3h-7.3v-9.4c0-0.5,0.8-9.9-8.4-19.9c-12.6-13.6-36.9-20.7-71.9-20.7c-35.3,0-59.4,6.8-71.9,20.7
	c-8.9,9.7-8.4,19.4-8.4,19.6v9.7h-7.1c-8.6,0-15.4,7.1-15.4,15.4v18.1c0,1.6,1,2.6,2.6,2.6H70c1.6,0,2.6-1,2.6-2.6v-28.3h6v124.3
	c0,1.6,1,2.6,2.6,2.6h12V253c0,7.1,5.8,12.6,12.6,12.6s12.6-5.8,12.6-12.6v-13.6h80.8V253c0,7.1,5.8,12.6,12.6,12.6
	c7.1,0,12.6-5.8,12.6-12.6v-13.6h12c1.6,0,2.6-1,2.6-2.6V112.5h6.5V141c0,1.6,1,2.6,2.6,2.6h11.2c1.6,0,2.6-1,2.6-2.6V123
	C262,114.3,254.9,107.3,246.6,107.3z M67.1,138.4h-6V123c0-4.2,2.6-7.8,6-9.4V138.4z M113.1,253c0,4.2-3.4,7.3-7.3,7.3
	c-3.9,0-7.3-3.4-7.3-7.3v-13.6h14.7V253z M219.1,253c0,4.2-3.4,7.3-7.3,7.3c-3.9,0-7.3-3.4-7.3-7.3v-13.6h14.7
	C219.1,239.4,219.1,253,219.1,253z M233.7,97.9v136.6H83.6V97.9c0-0.3-0.5-7.8,7.1-16c7.8-8.6,26.2-18.8,68-18.8
	c41.6,0,59.9,10.2,68,18.8C234.3,89.7,233.7,97.3,233.7,97.9z M256.8,138.4h-6v-24.9c3.7,1.6,6,5.2,6,9.4V138.4z"/>
</svg>
