<?xml version="1.0" encoding="utf-8"?>
<!-- Generator: Adobe Illustrator 25.2.2, SVG Export Plug-In . SVG Version: 6.00 Build 0)  -->
<svg version="1.1" id="Calque_1" xmlns="http://www.w3.org/2000/svg" xmlns:xlink="http://www.w3.org/1999/xlink" x="0px" y="0px"
	 viewBox="0 0 318.1 330.1" style="enable-background:new 0 0 318.1 330.1;" xml:space="preserve">
<style type="text/css">
	.st0{fill:#FFFFFF;stroke:#1D1D1B;stroke-width:5;stroke-linecap:round;stroke-linejoin:round;}
</style>
<g>
	<g>
		<path class="st0" d="M102.5,169.2c-2.3-4.3-8.8-7.3-16.5-11.8c-7.7-4.5-18-5-18-5l0,0l0,0h0l0,0c0,0-10.3,0.5-18,5
			c-7.7,4.5-14.2,7.5-16.5,11.8c-2.3,4.3-3.2,10.8-3.2,18.6c0,3.9,0,30.5,0,30.5H68h37.7c0,0,0-26.6,0-30.5
			C105.7,180,104.8,173.5,102.5,169.2z"/>
		<polygon class="st0" points="71.5,165.2 64.5,165.2 61.6,196.9 68,208.2 68,208.2 74.4,196.9 		"/>
		<g>
			<polygon class="st0" points="68,152.5 68,152.5 68,152.5 			"/>
			<polyline class="st0" points="56.9,154.5 64.5,165.2 68,165.2 71.5,165.2 79.1,154.5 			"/>
		</g>
		<path class="st0" d="M46.6,130c0,11.8,9.6,21.4,21.4,21.4c11.8,0,21.4-9.6,21.4-21.4c0-11.8-9.6-21.4-21.4-21.4
			C56.2,108.6,46.6,118.2,46.6,130z"/>
	</g>
	<g>
		<path class="st0" d="M277.4,149.9c-0.5-8.1-1.5-21.6-8.4-30.1c-6.9-8.5-22.4-8.7-22.4-8.7s-15.5,0.2-22.4,8.7
			c-6.9,8.5-7.9,22-8.4,30.1c-0.5,8.1-9.5,8.4-5.5,13.8s10.8,9.9,17.7,10.6s18.7,0,18.7,0s11.8,0.7,18.7,0s13.7-5.1,17.7-10.6
			C286.9,158.3,277.9,157.9,277.4,149.9z"/>
		<path class="st0" d="M281,176.9c-2.3-4.3-8.8-7.3-16.5-11.8c-7.7-4.5-18-5-18-5l0,0l0,0l0,0l0,0c0,0-10.3,0.5-18,5
			c-7.7,4.5-14.2,7.5-16.5,11.8c-2.3,4.3-3.2,10.8-3.2,18.6c0,3.9,0,22.9,0,22.9h37.7h37.7c0,0,0-18.9,0-22.9
			C284.2,187.6,283.3,181.2,281,176.9z"/>
		<path class="st0" d="M263.6,164.6c-7.6-4-17.1-4.5-17.1-4.5l0,0c0,0-9.5,0.5-17.1,4.5c3.9,5.2,10.1,8.7,17.1,8.7
			S259.7,169.8,263.6,164.6z"/>
		<path class="st0" d="M225.1,137.7c0,11.8,9.6,21.4,21.4,21.4c11.8,0,21.4-9.6,21.4-21.4c0-11.8-9.6-21.4-21.4-21.4
			C234.7,116.3,225.1,125.8,225.1,137.7z"/>
		<path class="st0" d="M258.7,100h-12.2h-12.2c-4.5,0-8.1,3.7-8.1,8.1l3.3,13.3h17.1h17.1l3.3-13.3C266.8,103.7,263.2,100,258.7,100
			z"/>
		<line class="st0" x1="246.5" y1="173.3" x2="246.5" y2="218.4"/>
		<line class="st0" x1="260.4" y1="190.8" x2="267.9" y2="190.8"/>
	</g>
	<g>
		<g>
			<path class="st0" d="M211.1,170.1c-3.6-6.7-13.7-11.5-25.8-18.5c-12-7-28.1-7.8-28.1-7.8l0,0l0,0l0,0l0,0c0,0-16.1,0.8-28.1,7.8
				c-12,7-22.1,11.8-25.8,18.5c-3.6,6.7-5.1,16.8-5.1,29.1c0,6.2,0,36.5,0,36.5h59h59c0,0,0-30.4,0-36.5
				C216.2,186.9,214.8,176.8,211.1,170.1z"/>
			<path class="st0" d="M133.1,191.8h0.3c3.5,0,6.4-2.9,6.4-6.4v-38.3c-3.6,1.1-7.3,2.5-10.6,4.5c-0.8,0.5-1.6,0.9-2.4,1.4v32.4
				C126.7,188.9,129.6,191.8,133.1,191.8z"/>
			<path class="st0" d="M181.4,191.8h-0.3c-3.5,0-6.4-2.9-6.4-6.4v-38.3c3.6,1.1,7.3,2.5,10.6,4.5c0.8,0.5,1.6,0.9,2.4,1.4v32.4
				C187.8,188.9,184.9,191.8,181.4,191.8z"/>
			<path class="st0" d="M178.9,175.6h-43.4c-7,0-12.7,5.7-12.7,12.7v47.5h68.8v-47.5C191.6,181.3,185.9,175.6,178.9,175.6z"/>
		</g>
		<path class="st0" d="M123.8,110.3c0,18.5,15,33.4,33.4,33.4c18.5,0,33.4-15,33.4-33.4c0-18.5-15-33.4-33.4-33.4
			C138.8,76.8,123.8,91.8,123.8,110.3z"/>
		<path class="st0" d="M164.5,48.6h-14.6c-14.9,0-27.1,22.5-27.1,37.4h68.8C191.6,71.1,179.4,48.6,164.5,48.6z"/>
		<path class="st0" d="M199.7,99.1h-85c-0.4,0-0.7-0.3-0.7-0.7V86.7c0-0.4,0.3-0.7,0.7-0.7h85c0.4,0,0.7,0.3,0.7,0.7v11.7
			C200.4,98.8,200,99.1,199.7,99.1z"/>
		<line class="st0" x1="149.4" y1="63.1" x2="149.4" y2="48.6"/>
		<line class="st0" x1="165.1" y1="63.1" x2="165.1" y2="48.6"/>
	</g>
</g>
</svg>
