<?xml version="1.0" encoding="utf-8"?>
<!-- Generator: Adobe Illustrator 25.2.2, SVG Export Plug-In . SVG Version: 6.00 Build 0)  -->
<svg version="1.1" id="Calque_1" xmlns="http://www.w3.org/2000/svg" xmlns:xlink="http://www.w3.org/1999/xlink" x="0px" y="0px"
	 viewBox="0 0 318.1 330.1" style="enable-background:new 0 0 318.1 330.1;" xml:space="preserve">
<style type="text/css">
	.st0{fill:#FFFFFF;stroke:#1D1D1B;stroke-width:5;stroke-linecap:round;stroke-linejoin:round;}
</style>
<g>
	<g>
		<g>
			<g>
				<circle class="st0" cx="166.1" cy="112.1" r="42.2"/>
			</g>
		</g>
		<g>
			<path class="st0" d="M178.2,129.1c-3.1,4.2-7.7,7-12.7,7c-9.9,0.1-14.9-10.7-14.9-23.9c0-13.2,4.9-23.9,14.9-23.9
				c5,0,9.5,2.7,12.7,7"/>
			<line class="st0" x1="143.2" y1="118.3" x2="165.6" y2="118.3"/>
			<line class="st0" x1="143.2" y1="105.9" x2="165.6" y2="105.9"/>
		</g>
	</g>
	<g>
		<path class="st0" d="M265.3,171.8c-7.9,6.7-17.6,16.6-24.7,24.1c-2.6-2.8-8.8-5.5-13.2-6.9c0.1-0.1,27.3-27.1,37.7-29.8
			c9.1-2.4,12.9,1.1,13.8,2C274,164.1,269.4,168.4,265.3,171.8z"/>
		<path class="st0" d="M242.3,174.5c-7.9,6.7-17.6,16.6-24.7,24.1c-2.6-2.8-8.8-5.5-13.2-6.9c0.1-0.1,27.3-27.1,37.7-29.8
			c9.1-2.4,12.9,1.1,13.8,2C251,166.8,246.4,171.1,242.3,174.5z"/>
		<path class="st0" d="M240.6,195.9c7.1-7.5,16.8-17.4,24.7-24.1c5.2-4.4,11.1-10.1,17.4-12.6c3.9-1.6,15.4-3,17.7,2
			c1.3,2.8-2.1,5.2-3.9,7.3c-15,16.5-30.6,32.5-47.2,47.5c-15.4,13.8-34.3,26.9-56.2,26.9c-15.3,0-38.9-2-71.3-2.5
			c-32.4-0.5-57.9,30.1-57.9,30.1l-32.5-36.6c0,0,40.5-23,49.2-30c9.8-7.9,15.7-15,23.6-20.1c7.9-5.1,14.5-6.2,30.5-6.2
			c14.2,0,21.2,3.8,37.7,7.1c18,3.6,35.3,0.1,52.4,3.7c4.5,0.9,14.1,4.9,16.6,8.5c4.1,5.8-1.6,11.3-7.5,11.3h-2.3
			c0,0-45.5,0-61.7-0.4c-16.1-0.4-15.1,3.8-15.1,3.8"/>
	</g>
</g>
</svg>
