<?xml version="1.0" encoding="utf-8"?>
<!-- Generator: Adobe Illustrator 25.2.2, SVG Export Plug-In . SVG Version: 6.00 Build 0)  -->
<svg version="1.1" id="Calque_1" xmlns="http://www.w3.org/2000/svg" xmlns:xlink="http://www.w3.org/1999/xlink" x="0px" y="0px"
	 viewBox="0 0 318.1 330.1" style="enable-background:new 0 0 318.1 330.1;" xml:space="preserve">
<style type="text/css">
	.st0{fill:none;stroke:#1D1D1B;stroke-width:5;stroke-linecap:round;stroke-linejoin:round;}
	.st1{fill:#FFFFFF;stroke:#1D1D1B;stroke-width:5;stroke-linecap:round;stroke-linejoin:round;}
</style>
<polygon class="st0" points="96,150.5 96,180.5 163.6,150.5 163.6,180.5 231.2,150.5 231.2,264.3 28.4,264.3 28.4,180.5 "/>
<g>
	<polygon class="st0" points="65.3,108.6 42,108.6 39,175.8 67.7,163 	"/>
</g>
<polyline class="st0" points="28.4,194.2 96,164.2 96,194.2 163.6,164.2 163.6,194.2 231.2,164.2 "/>
<g>
	<rect x="57" y="212.3" class="st0" width="31.1" height="16.7"/>
	<line class="st0" x1="72.6" y1="229.1" x2="72.6" y2="212.3"/>
</g>
<path class="st0" d="M60,87.5c0,3.3-2.7,6-6,6c-3.3,0-6-2.7-6-6c0-3.3,2.7-6,6-6C57.4,81.6,60,84.2,60,87.5z"/>
<path class="st0" d="M79.2,56c-3.6,0-6.7,2.2-8.1,5.2c-0.4-0.1-0.8-0.3-1.3-0.3c-3.5,0-6.3,2.8-6.3,6.3c0,3.5,2.8,6.3,6.3,6.3
	c1.6,0,3-0.6,4.1-1.6c1.5,1.1,3.2,1.9,5.2,1.9c4.9,0,8.9-4,8.9-8.9S84.1,56,79.2,56z"/>
<path class="st0" d="M169.6,43.3c-0.4,0-0.7,0.1-1,0.1c-2.9-10.2-12.1-17.6-23.2-17.6c-11.2,0-20.5,7.6-23.3,17.9
	c-0.7-0.1-1.5-0.2-2.2-0.2c-8.5,0-15.4,6.9-15.4,15.4c0,8.5,6.9,15.4,15.4,15.4c1.6,0,3.1-0.3,4.5-0.8c2.2,3.8,6.2,6.3,10.9,6.3
	c4.4,0,8.2-2.2,10.5-5.6c6.8-0.1,12.8-3,17.2-7.5c2,1.2,4.3,2,6.8,2c7,0,12.7-5.7,12.7-12.7S176.6,43.3,169.6,43.3z"/>
<g>
	<path class="st1" d="M196.5,225.9h-93.7c-3.1,0-5.6,2.5-5.6,5.6v20.9h104.8v-20.9C202.1,228.4,199.6,225.9,196.5,225.9z"/>
	<path class="st1" d="M99.9,252.4v44.4c0,3.1,2.5,5.6,5.6,5.6h88.3c3.1,0,5.6-2.5,5.6-5.6v-44.4H99.9z"/>
	<path class="st1" d="M161.3,207.7h-23.5c-3.1,0-5.6,2.5-5.6,5.6v1.5h34.6v-1.5C166.9,210.2,164.4,207.7,161.3,207.7z"/>
	<line class="st1" x1="132.2" y1="214.8" x2="132.2" y2="225.9"/>
	<line class="st1" x1="166.9" y1="214.8" x2="166.9" y2="225.9"/>
	<rect x="121.1" y="244.8" class="st1" width="7.7" height="15.1"/>
	<rect x="170.5" y="244.8" class="st1" width="7.7" height="15.1"/>
</g>
<g>
	<circle class="st1" cx="256.4" cy="113.4" r="23.2"/>
	<path class="st1" d="M295.5,208.3c0,0,0-27.8,0-31.9c0-8.2-0.9-14.9-3.3-19.4c-2.4-4.5-9.2-7.6-17.2-12.3s-18.8-5.2-18.8-5.2
		s-10.8,0.5-18.8,5.2c-8,4.7-14.8,7.8-17.2,12.3c-2.4,4.5-3.3,11.3-3.3,19.4c0,4.1,0,31.9,0,31.9l-0.2,19.5H229l9.4,74.6h36.1
		l9.4-74.6h12.5L295.5,208.3z"/>
</g>
<polygon class="st0" points="261.4,159.4 251.4,159.4 247.2,205 256.4,221.3 256.4,221.3 265.6,205 "/>
<polyline class="st0" points="240.4,144 251.4,159.4 256.4,159.4 261.4,159.4 272.4,144 "/>
<g>
	<path class="st1" d="M261.9,64.7h-10.3c-10.5,0-19.2,15.9-19.2,26.5h48.7C281.1,80.6,272.4,64.7,261.9,64.7z"/>
	<path class="st1" d="M286.8,100.5h-60.2c-0.3,0-0.5-0.2-0.5-0.5v-8.3c0-0.3,0.2-0.5,0.5-0.5h60.2c0.3,0,0.5,0.2,0.5,0.5v8.3
		C287.3,100.2,287,100.5,286.8,100.5z"/>
	<line class="st0" x1="251.2" y1="75" x2="251.2" y2="64.7"/>
	<line class="st0" x1="262.3" y1="75" x2="262.3" y2="64.7"/>
</g>
</svg>
