<?xml version="1.0" encoding="utf-8"?>
<!-- Generator: Adobe Illustrator 25.2.2, SVG Export Plug-In . SVG Version: 6.00 Build 0)  -->
<svg version="1.1" id="Calque_1" xmlns="http://www.w3.org/2000/svg" xmlns:xlink="http://www.w3.org/1999/xlink" x="0px" y="0px"
	 viewBox="0 0 318.1 330.1" style="enable-background:new 0 0 318.1 330.1;" xml:space="preserve">
<style type="text/css">
	.st0{fill:#FFFFFF;stroke:#1D1D1B;stroke-width:5;stroke-linecap:round;stroke-linejoin:round;}
</style>
<g>
	<path class="st0" d="M259.8,185c-7.7,6.5-17.1,16.1-24,23.4c-2.6-2.7-8.5-5.3-12.8-6.7c0.1-0.1,26.5-26.3,36.6-29
		c8.8-2.4,12.6,1,13.4,1.9C268.2,177.4,263.8,181.6,259.8,185z"/>
	<path class="st0" d="M237.4,187.6c-7.7,6.5-17.1,16.1-24,23.4c-2.6-2.7-8.5-5.3-12.8-6.7c0.1-0.1,26.5-26.3,36.6-29
		c8.8-2.4,12.6,1,13.4,1.9C245.8,180,241.4,184.2,237.4,187.6z"/>
	<path class="st0" d="M235.8,208.3c6.9-7.3,16.3-16.9,24-23.4c5-4.3,10.8-9.8,16.9-12.3c3.8-1.5,14.9-2.9,17.2,2
		c1.2,2.7-2,5.1-3.8,7.1c-14.6,16-29.7,31.6-45.9,46.1c-14.9,13.4-33.3,26.1-54.6,26.1c-14.8,0-37.8-1.9-69.3-2.4
		c-31.4-0.5-56.3,29.2-56.3,29.2l-31.5-35.5c0,0,39.3-22.4,47.8-29.2c9.5-7.7,15.3-14.6,22.9-19.5c7.6-4.9,14.1-6,29.6-6
		c13.8,0,20.6,3.7,36.7,6.9c17.5,3.5,34.2,0.1,50.9,3.6c4.3,0.9,13.6,4.8,16.1,8.3c4,5.6-1.6,11-7.2,11h-2.2c0,0-44.2,0-59.9-0.3
		c-15.7-0.3-14.6,3.7-14.6,3.7"/>
</g>
<g>
	<g>
		<path class="st0" d="M215.5,80.8H112.2c-3.4,0-6.1,2.8-6.1,6.1V110h115.5V86.9C221.6,83.5,218.9,80.8,215.5,80.8z"/>
		<path class="st0" d="M109,110v48.9c0,3.4,2.8,6.1,6.1,6.1h97.3c3.4,0,6.1-2.8,6.1-6.1V110H109z"/>
		<path class="st0" d="M176.7,60.7h-25.9c-3.4,0-6.1,2.8-6.1,6.1v1.7h38.2v-1.7C182.8,63.5,180.1,60.7,176.7,60.7z"/>
		<line class="st0" x1="144.7" y1="68.6" x2="144.7" y2="80.8"/>
		<line class="st0" x1="182.8" y1="68.6" x2="182.8" y2="80.8"/>
		<rect x="132.4" y="101.7" class="st0" width="8.5" height="16.7"/>
		<rect x="186.8" y="101.7" class="st0" width="8.5" height="16.7"/>
	</g>
	<line class="st0" x1="158" y1="101.7" x2="169.7" y2="101.7"/>
	<line class="st0" x1="209.9" y1="144.8" x2="209.9" y2="156.5"/>
</g>
</svg>
