<?xml version="1.0" encoding="utf-8"?>
<!-- Generator: Adobe Illustrator 25.2.2, SVG Export Plug-In . SVG Version: 6.00 Build 0)  -->
<svg version="1.1" id="Calque_1" xmlns="http://www.w3.org/2000/svg" xmlns:xlink="http://www.w3.org/1999/xlink" x="0px" y="0px"
	 viewBox="0 0 318.1 330.1" style="enable-background:new 0 0 318.1 330.1;" xml:space="preserve">
<style type="text/css">
	.st0{fill:#FFFFFF;stroke:#1D1D1B;stroke-width:5;stroke-linecap:round;stroke-linejoin:round;}
</style>
<g>
	<rect x="147.9" y="100.3" class="st0" width="21.6" height="13.1"/>
	<path class="st0" d="M147.9,113.4h21.6c0,0-5.6,8.6-10.8,8.6C153.5,122,147.9,113.4,147.9,113.4"/>
	<path class="st0" d="M182.3,72.3c2.8-4.3,4.4-9.5,4.4-15c0-15.4-12.5-27.9-27.9-27.9c-15.4,0-27.9,12.5-27.9,27.9
		c0,5.5,1.6,10.7,4.4,15c0,0,0,0,0,0c0.8,1.2,10.5,16.3,10.5,25.1c0,1.6,1.3,2.9,2.9,2.9h19.5c1.6,0,3.3-1.3,3.3-2.9l0,0
		C171.5,88.8,181.4,73.6,182.3,72.3C182.3,72.3,182.3,72.3,182.3,72.3z"/>
	<g>
		<line class="st0" x1="158.7" y1="18" x2="158.7" y2="22.7"/>
		<line class="st0" x1="146.4" y1="20.1" x2="147.8" y2="24.6"/>
		<line class="st0" x1="135.3" y1="25.8" x2="138.1" y2="29.7"/>
		<line class="st0" x1="126.5" y1="34.8" x2="130.3" y2="37.5"/>
		<line class="st0" x1="120.9" y1="46" x2="125.4" y2="47.4"/>
		<line class="st0" x1="119" y1="58.4" x2="123.8" y2="58.3"/>
		<line class="st0" x1="121.1" y1="70.7" x2="125.6" y2="69.2"/>
		<line class="st0" x1="126.9" y1="81.8" x2="130.7" y2="79"/>
		<line class="st0" x1="191.6" y1="81.3" x2="187.8" y2="78.5"/>
		<line class="st0" x1="197.2" y1="70.1" x2="192.7" y2="68.6"/>
		<line class="st0" x1="199.1" y1="57.7" x2="194.3" y2="57.7"/>
		<line class="st0" x1="197" y1="45.3" x2="192.5" y2="46.8"/>
		<line class="st0" x1="191.2" y1="34.2" x2="187.4" y2="37"/>
		<line class="st0" x1="182.3" y1="25.5" x2="179.5" y2="29.3"/>
		<line class="st0" x1="171.1" y1="19.9" x2="169.6" y2="24.4"/>
	</g>
</g>
<g>
	<circle class="st0" cx="82" cy="177.4" r="16.1"/>
	<circle class="st0" cx="159.1" cy="169.4" r="16.1"/>
	<path class="st0" d="M67,252.4c0-13.6,0-34.1,0-41.1c0-7.1,2.7-8.8,6.7-8.8c4,0,17.7,0,17.7,0l14.5,17.5c0,0,5.7,0,10.7,0
		c8.8,0,9,10.8,0,10.8c-5.7,0-10.4,0-10.4,0L91,225.6V248c0,0,11.1,0,17.2,0c6.1,0,12.8,2,14.3,7.9c1.5,5.9,10.4,45,10.4,45h-18.5
		l-12-35.4c0,0-13.6,0-22.1,0S67,261.2,67,252.4z"/>
	<path class="st0" d="M159.1,230.1h-14.7v-9.3v9.3h-12.5c0,0,0-10.4,0-18.1c0-23.2,54.4-23.2,54.4,0c0,7.7,0,18.1,0,18.1h-12.5v-9.3
		v9.3H159.1z"/>
	<circle class="st0" cx="236.1" cy="177.4" r="16.1"/>
	<path class="st0" d="M251.1,252.4c0-13.6,0-34.1,0-41.1c0-7.1-2.7-8.8-6.7-8.8s-17.7,0-17.7,0L212.2,220c0,0-5.7,0-10.7,0
		c-8.8,0-9,10.8,0,10.8c5.7,0,10.4,0,10.4,0l15.2-5.2V248c0,0-11.1,0-17.2,0s-12.8,2-14.3,7.9c-1.5,5.9-10.4,45-10.4,45h18.5
		l12-35.4c0,0,13.6,0,22.1,0S251.1,261.2,251.1,252.4z"/>
	<line class="st0" x1="106.2" y1="238.4" x2="211.9" y2="238.4"/>
</g>
</svg>
