<?xml version="1.0" encoding="utf-8"?>
<!-- Generator: Adobe Illustrator 25.2.2, SVG Export Plug-In . SVG Version: 6.00 Build 0)  -->
<svg version="1.1" id="Calque_1" xmlns="http://www.w3.org/2000/svg" xmlns:xlink="http://www.w3.org/1999/xlink" x="0px" y="0px"
	 viewBox="0 0 318.1 330.1" style="enable-background:new 0 0 318.1 330.1;" xml:space="preserve">
<style type="text/css">
	.st0{fill:#FFFFFF;stroke:#1D1D1B;stroke-width:5;stroke-linecap:round;stroke-linejoin:round;}
	.st1{fill:#FFFFFF;stroke:#1D1D1B;stroke-width:5;stroke-miterlimit:10;}
</style>
<path class="st0" d="M109.1,154.7v-12.6H96.2v12.6H56.4v-34.9c0-5.1,4.2-9.3,9.3-9.3h69l-12,19.5l19.1,24.7H109.1z"/>
<rect x="96.2" y="142.1" class="st0" width="12.9" height="12.6"/>
<path class="st0" d="M264.6,119.8v34.9h-39.8v-12.6h-12.9v12.6H175L156,130l12-19.5h87.3C260.4,110.5,264.6,114.7,264.6,119.8z"/>
<rect x="211.9" y="142.1" class="st0" width="12.9" height="12.6"/>
<path class="st0" d="M260.1,154.7v74.1c0,5.1-4.2,9.3-9.3,9.3h-89.6l37.4-52.8L175,154.7h36.9v12.6h12.9v-12.6H260.1z"/>
<path class="st0" d="M165.3,185.2l-37.4,52.8H70.2c-5.1,0-9.3-4.2-9.3-9.3v-74.1h35.3v12.6h12.9v-12.6h32.6L165.3,185.2z"/>
<rect x="96.2" y="154.7" class="st0" width="12.9" height="12.6"/>
<rect x="211.9" y="154.7" class="st0" width="12.9" height="12.6"/>
<polyline class="st0" points="134.7,110.5 114.8,110.5 114.8,92 146.1,92 "/>
<polyline class="st0" points="179.4,92 205.9,92 205.9,110.5 168,110.5 "/>
<rect x="96.2" y="142.1" class="st0" width="12.9" height="25.2"/>
<rect x="211.9" y="142.1" class="st0" width="12.9" height="25.2"/>
<line class="st0" x1="251.4" y1="198.9" x2="251.4" y2="216.5"/>
<line class="st1" x1="35.3" y1="48.2" x2="77.5" y2="48.2"/>
<line class="st1" x1="243.5" y1="51.3" x2="285.7" y2="51.3"/>
<line class="st1" x1="264.6" y1="30.2" x2="264.6" y2="72.4"/>
</svg>
