<?xml version="1.0" encoding="utf-8"?>
<!-- Generator: Adobe Illustrator 25.2.2, SVG Export Plug-In . SVG Version: 6.00 Build 0)  -->
<svg version="1.1" id="Calque_1" xmlns="http://www.w3.org/2000/svg" xmlns:xlink="http://www.w3.org/1999/xlink" x="0px" y="0px"
	 viewBox="0 0 618 531" style="enable-background:new 0 0 618 531;" xml:space="preserve">
<style type="text/css">
	.st0{fill:#C1C1C1;}
	.st1{fill:#EDEDED;}
	.st2{fill:#DBDBDB;}
	.st3{fill:#FFFFFF;}
</style>
<path class="st0" d="M312.7,223.7l-3-158.6c0,0-48-8.3-48-5.6s1,154.4,1,154.4L312.7,223.7z"/>
<polygon class="st1" points="324.7,211.2 312.7,223.7 309.7,65.1 321.7,56.8 "/>
<polygon class="st2" points="261.7,59.6 278.7,51.2 321.7,56.8 309.7,65.1 "/>
<g>
	<path class="st3" d="M276.9,173.8v3.5l2.2,1.2v1.2l-8.5-4.6v-1l8.5-1.7v1.1L276.9,173.8z M276,176.8V174l-4,0.7L276,176.8z"/>
	<path class="st3" d="M276,171c-0.7-0.1-1.3-0.3-1.8-0.6s-0.9-0.6-1.1-1s-0.4-0.8-0.3-1.3c0-0.7,0.3-1.3,0.8-1.7l-0.7-0.2v-1
		l6.2,1.1c0.8,0.1,1.5,0.4,1.9,1s0.7,1.2,0.7,2c0,0.4-0.1,0.8-0.3,1.2s-0.5,0.7-0.8,0.9l-0.7-0.6c0.6-0.4,0.9-0.9,0.9-1.5
		c0-0.5-0.1-0.9-0.4-1.3s-0.7-0.6-1.3-0.7l-0.6-0.1c0.5,0.5,0.8,1.1,0.8,1.8c0,0.4-0.1,0.7-0.3,1s-0.5,0.5-0.9,0.7s-0.8,0.2-1.3,0.3
		C276.6,171.1,276.3,171,276,171z M276.6,170c0.6,0,1-0.1,1.3-0.3s0.5-0.5,0.5-0.9c0-0.6-0.3-1.2-0.9-1.6l-2.9-0.5
		c-0.6,0.2-0.9,0.7-0.9,1.3c0,0.6,0.2,1,0.7,1.4c0.5,0.4,1.1,0.6,2,0.7L276.6,170z"/>
	<path class="st3" d="M279.3,162c0,0.8-0.3,1.4-0.9,1.9s-1.3,0.6-2.2,0.6l-0.3,0c-0.6-0.1-1.2-0.3-1.7-0.6s-0.9-0.7-1.2-1.1
		s-0.4-0.9-0.4-1.4c0-0.7,0.2-1.2,0.7-1.5s1-0.6,1.7-0.6c0.3,0,0.5,0,0.8,0l0.5,0.1v4.1c0.6,0.1,1.1,0,1.5-0.3s0.6-0.6,0.6-1.2
		c0-0.6-0.3-1.2-0.8-1.7l0.5-0.6c0.4,0.3,0.7,0.6,0.9,1S279.3,161.4,279.3,162z M273.6,161.3c0,0.4,0.1,0.8,0.4,1.1s0.8,0.6,1.4,0.8
		l0-3.1l-0.1,0c-0.5-0.1-0.9,0-1.2,0.2S273.6,160.9,273.6,161.3z"/>
	<path class="st3" d="M272.8,156.4l0.8,0.2c-0.6-0.6-0.9-1.2-0.9-1.9c0-0.6,0.2-1,0.6-1.3s1-0.4,1.7-0.3l4.2,0.7v1.1L275,154
		c-0.2,0-0.4,0-0.5,0c-0.5,0.1-0.8,0.4-0.8,1c0,0.6,0.3,1.2,1,1.7l4.5,0.8v1.1l-6.3-1.1L272.8,156.4z"/>
	<path class="st3" d="M278.4,149.3c0-0.4-0.1-0.7-0.3-1s-0.5-0.5-0.9-0.6l0-1c0.4,0.1,0.8,0.2,1.1,0.5s0.6,0.6,0.8,1
		s0.3,0.8,0.3,1.2c0,0.5-0.1,1-0.4,1.3s-0.6,0.6-1.1,0.8s-1,0.2-1.6,0.2l-0.3,0c-0.6-0.1-1.2-0.3-1.6-0.5s-0.9-0.6-1.1-1.1
		s-0.4-1-0.4-1.5c0-0.7,0.2-1.2,0.7-1.6s1-0.6,1.6-0.6l0,1c-0.4,0-0.7,0.1-1,0.3s-0.4,0.5-0.4,0.9c0,0.6,0.2,1,0.6,1.4
		s1,0.6,1.8,0.7l0.2,0c0.2,0,0.5,0,0.8,0c0.5,0,0.8-0.2,1.1-0.4S278.4,149.7,278.4,149.3z"/>
	<path class="st3" d="M279.3,143.1c0,0.8-0.3,1.4-0.9,1.9s-1.3,0.6-2.2,0.6l-0.3,0c-0.6-0.1-1.2-0.3-1.7-0.6s-0.9-0.7-1.2-1.1
		s-0.4-0.9-0.4-1.4c0-0.7,0.2-1.2,0.7-1.5s1-0.6,1.7-0.6c0.3,0,0.5,0,0.8,0l0.5,0.1v4.1c0.6,0.1,1.1,0,1.5-0.3s0.6-0.6,0.6-1.2
		c0-0.6-0.3-1.2-0.8-1.7l0.5-0.6c0.4,0.3,0.7,0.6,0.9,1S279.3,142.6,279.3,143.1z M273.6,142.4c0,0.4,0.1,0.8,0.4,1.1
		s0.8,0.6,1.4,0.8l0-3.1l-0.1,0c-0.5-0.1-0.9,0-1.2,0.2S273.6,142,273.6,142.4z"/>
	<path class="st3" d="M277.5,135.7c-0.4-0.1-0.7,0.2-0.9,0.7l-0.3,1.1c-0.3,0.9-0.9,1.4-1.6,1.3c-0.6,0-1-0.3-1.4-0.8
		s-0.5-1-0.5-1.7c0-0.6,0.2-1.2,0.6-1.6s0.8-0.6,1.4-0.6l0,1.1c-0.3,0-0.6,0.1-0.8,0.3s-0.3,0.5-0.3,0.8c0,0.4,0.1,0.7,0.3,0.9
		c0.2,0.2,0.4,0.4,0.7,0.4c0.4,0.1,0.6-0.2,0.8-0.7l0.1-0.5c0.2-0.7,0.4-1.2,0.7-1.5s0.7-0.4,1.1-0.4c0.4,0,0.7,0.2,1,0.4
		s0.5,0.5,0.7,0.9s0.2,0.8,0.2,1.2c0,0.7-0.2,1.2-0.6,1.7s-0.9,0.6-1.5,0.6l0-1.1c0.4,0,0.6-0.1,0.9-0.3s0.3-0.5,0.3-0.9
		c0-0.4-0.1-0.7-0.2-1S277.8,135.8,277.5,135.7z"/>
	<path class="st3" d="M276,130.3c-0.6-0.1-1.2-0.3-1.7-0.5s-0.9-0.6-1.2-1s-0.4-0.9-0.4-1.3c0-0.7,0.3-1.2,0.8-1.6l-3.3-0.6v-1.1
		l9,1.6v1l-0.7-0.1c0.5,0.5,0.8,1.1,0.8,1.9c0,0.6-0.2,1.1-0.7,1.4s-1,0.5-1.8,0.6C276.6,130.4,276.3,130.3,276,130.3z M276.6,129.3
		c0.6,0,1-0.1,1.3-0.3s0.5-0.5,0.5-0.9c0-0.6-0.3-1.2-0.9-1.6l-2.9-0.5c-0.6,0.2-0.9,0.7-0.9,1.3c0,0.4,0.1,0.8,0.4,1.1
		s0.6,0.6,1.1,0.7C275.6,129.2,276.1,129.3,276.6,129.3z"/>
	<path class="st3" d="M279.3,121.3c0,0.8-0.3,1.4-0.9,1.9s-1.3,0.6-2.2,0.6l-0.3,0c-0.6-0.1-1.2-0.3-1.7-0.6s-0.9-0.7-1.2-1.1
		s-0.4-0.9-0.4-1.4c0-0.7,0.2-1.2,0.7-1.5s1-0.6,1.7-0.6c0.3,0,0.5,0,0.8,0l0.5,0.1v4.1c0.6,0.1,1.1,0,1.5-0.3s0.6-0.6,0.6-1.2
		c0-0.6-0.3-1.2-0.8-1.7l0.5-0.6c0.4,0.3,0.7,0.6,0.9,1S279.3,120.7,279.3,121.3z M273.6,120.6c0,0.4,0.1,0.8,0.4,1.1
		s0.8,0.6,1.4,0.8l0-3.1l-0.1,0c-0.5-0.1-0.9,0-1.2,0.2S273.6,120.2,273.6,120.6z"/>
	<path class="st3" d="M277.7,112.5l-4.9-2.3v-1.1l6.3,3.2v0.8l-6.3,1.2v-1L277.7,112.5z"/>
	<path class="st3" d="M272.7,105.7c0-0.5,0.2-1,0.4-1.4s0.7-0.7,1.2-0.8s1-0.2,1.6-0.2l0.1,0c0.6,0.1,1.2,0.3,1.7,0.6
		s0.9,0.7,1.2,1.1s0.4,1,0.4,1.5c0,0.5-0.2,1-0.4,1.4s-0.7,0.7-1.1,0.8s-1,0.2-1.6,0.2c-0.7-0.1-1.2-0.2-1.8-0.5s-0.9-0.7-1.2-1.1
		S272.7,106.3,272.7,105.7z M276.1,107.9c0.2,0,0.5,0,0.8,0c0.5,0,0.8-0.2,1.1-0.4s0.4-0.6,0.4-0.9c0-0.4-0.1-0.7-0.3-1
		s-0.5-0.5-0.8-0.8s-0.8-0.3-1.2-0.4c-0.4,0-0.7,0-0.9,0c-0.5,0-0.8,0.2-1.1,0.4s-0.4,0.6-0.4,0.9c0,0.5,0.2,1,0.6,1.4
		s1,0.6,1.7,0.7L276.1,107.9z"/>
	<path class="st3" d="M277.6,100.3l-4.7-2.3v-1.2l7.4,3.8c1,0.5,1.5,1.2,1.5,2c0,0.1,0,0.4-0.1,0.6l-0.9-0.1l0-0.3
		c0-0.3-0.1-0.6-0.2-0.9s-0.4-0.5-0.8-0.6L279,101l-6.2,1.1V101L277.6,100.3z"/>
	<path class="st3" d="M279.2,93.1c-0.1,0-0.2,0-0.3,0l-0.3,0c0.5,0.6,0.8,1.2,0.8,1.9c0,0.6-0.2,1-0.5,1.4s-0.8,0.5-1.3,0.5
		c-0.7,0-1.2-0.3-1.6-0.9s-0.6-1.3-0.6-2.2l0-1.1l-0.5-0.1c-0.4,0-0.7,0-0.9,0.2s-0.3,0.5-0.3,0.8c0,0.4,0.1,0.7,0.3,1
		s0.4,0.5,0.7,0.5l0,1.1c-0.4,0-0.7-0.2-1-0.4s-0.5-0.6-0.7-1s-0.2-0.8-0.2-1.2c0-0.7,0.2-1.2,0.6-1.5s0.9-0.5,1.5-0.5L278,92l0.5,0
		c0.2,0,0.4,0,0.6-0.1l0.1,0V93.1z M278.4,94.7c0-0.3-0.1-0.7-0.2-1s-0.4-0.6-0.7-0.8l-1.3-0.2l0,0.8c0,0.7,0.1,1.2,0.3,1.5
		s0.5,0.6,0.9,0.6c0.3,0,0.5,0,0.7-0.2S278.3,95.1,278.4,94.7z"/>
	<path class="st3" d="M276,90.2c-0.7-0.1-1.3-0.3-1.8-0.6s-0.9-0.6-1.1-1s-0.4-0.8-0.3-1.3c0-0.7,0.3-1.3,0.8-1.7l-0.7-0.2v-1
		l6.2,1.1c0.8,0.1,1.5,0.4,1.9,1s0.7,1.2,0.7,2c0,0.4-0.1,0.8-0.3,1.2s-0.5,0.7-0.8,0.9l-0.7-0.6c0.6-0.4,0.9-0.9,0.9-1.5
		c0-0.5-0.1-0.9-0.4-1.3s-0.7-0.6-1.3-0.7l-0.6-0.1c0.5,0.5,0.8,1.1,0.8,1.8c0,0.4-0.1,0.7-0.3,1s-0.5,0.5-0.9,0.7s-0.8,0.2-1.3,0.3
		C276.6,90.3,276.3,90.3,276,90.2z M276.6,89.2c0.6,0,1-0.1,1.3-0.3s0.5-0.5,0.5-0.9c0-0.6-0.3-1.2-0.9-1.6l-2.9-0.5
		c-0.6,0.2-0.9,0.7-0.9,1.3c0,0.6,0.2,1,0.7,1.4c0.5,0.4,1.1,0.6,2,0.7L276.6,89.2z"/>
	<path class="st3" d="M279.3,81.2c0,0.8-0.3,1.4-0.9,1.9s-1.3,0.6-2.2,0.6l-0.3,0c-0.6-0.1-1.2-0.3-1.7-0.6s-0.9-0.7-1.2-1.1
		s-0.4-0.9-0.4-1.4c0-0.7,0.2-1.2,0.7-1.5s1-0.6,1.7-0.6c0.3,0,0.5,0,0.8,0l0.5,0.1v4.1c0.6,0.1,1.1,0,1.5-0.3s0.6-0.6,0.6-1.2
		c0-0.6-0.3-1.2-0.8-1.7l0.5-0.6c0.4,0.3,0.7,0.6,0.9,1S279.3,80.7,279.3,81.2z M273.6,80.5c0,0.4,0.1,0.8,0.4,1.1s0.8,0.6,1.4,0.8
		l0-3.1l-0.1,0c-0.5-0.1-0.9,0-1.2,0.2S273.6,80.1,273.6,80.5z"/>
	<path class="st3" d="M277.5,73.8c-0.4-0.1-0.7,0.2-0.9,0.7l-0.3,1.1c-0.3,0.9-0.9,1.4-1.6,1.3c-0.6,0-1-0.3-1.4-0.8s-0.5-1-0.5-1.7
		c0-0.6,0.2-1.2,0.6-1.6s0.8-0.6,1.4-0.6l0,1.1c-0.3,0-0.6,0.1-0.8,0.3s-0.3,0.5-0.3,0.8c0,0.4,0.1,0.7,0.3,0.9
		c0.2,0.2,0.4,0.4,0.7,0.4c0.4,0.1,0.6-0.2,0.8-0.7l0.1-0.5c0.2-0.7,0.4-1.2,0.7-1.5s0.7-0.4,1.1-0.4c0.4,0,0.7,0.2,1,0.4
		s0.5,0.5,0.7,0.9s0.2,0.8,0.2,1.2c0,0.7-0.2,1.2-0.6,1.7s-0.9,0.6-1.5,0.6l0-1.1c0.4,0,0.6-0.1,0.9-0.3s0.3-0.5,0.3-0.9
		c0-0.4-0.1-0.7-0.2-1S277.8,73.9,277.5,73.8z"/>
</g>
<g>
	<path class="st3" d="M297.3,163.3c0,0.8-0.3,1.4-0.9,1.9c-0.6,0.4-1.3,0.6-2.2,0.6l-0.3,0c-0.6-0.1-1.2-0.2-1.7-0.6
		c-0.5-0.3-0.9-0.7-1.2-1.1c-0.3-0.4-0.4-0.9-0.4-1.4c0-0.7,0.2-1.2,0.6-1.5s1-0.6,1.7-0.6c0.3,0,0.5,0,0.8,0l0.5,0.1l0,4.1
		c0.6,0.1,1.1,0,1.5-0.3c0.4-0.3,0.6-0.7,0.6-1.2c0-0.6-0.3-1.2-0.9-1.7l0.5-0.6c0.4,0.3,0.7,0.6,0.9,1S297.3,162.8,297.3,163.3z
		 M291.6,162.6c0,0.4,0.1,0.8,0.5,1.1c0.3,0.3,0.8,0.6,1.4,0.8l0-3.1l-0.1,0c-0.5-0.1-0.9,0-1.2,0.2
		C291.8,161.9,291.6,162.2,291.6,162.6z"/>
	<path class="st3" d="M289.3,157l1.5,0.3l0-1.2l0.8,0.1l0,1.1l3.9,0.6c0.1,0,0.2,0,0.3,0c0.3,0,0.5-0.2,0.5-0.5c0-0.1,0-0.3-0.1-0.5
		l0.9,0.1c0.1,0.3,0.1,0.5,0.1,0.8c0,0.4-0.2,0.7-0.5,1c-0.3,0.2-0.7,0.3-1.2,0.3l-3.9-0.6l0,1.1l-0.8-0.1l0-1.1l-1.5-0.3L289.3,157
		z"/>
	<path class="st3" d="M295.6,150.7l-4.9-2.3l0-1.1l6.4,3.2l0,0.8l-6.3,1.3l0-1L295.6,150.7z"/>
	<path class="st3" d="M290.6,143.9c0-0.5,0.1-1,0.4-1.4s0.7-0.7,1.2-0.8c0.5-0.2,1-0.2,1.6-0.2l0.1,0c0.6,0.1,1.2,0.3,1.7,0.5
		c0.5,0.3,0.9,0.7,1.2,1.1c0.3,0.5,0.4,1,0.4,1.5c0,0.5-0.1,1-0.4,1.4c-0.3,0.4-0.7,0.7-1.1,0.8c-0.5,0.2-1,0.2-1.6,0.2
		c-0.7-0.1-1.2-0.2-1.8-0.5s-0.9-0.7-1.2-1.1C290.7,145,290.6,144.5,290.6,143.9z M294,146c0.2,0,0.5,0,0.8,0c0.5,0,0.8-0.2,1.1-0.4
		c0.3-0.2,0.4-0.6,0.4-0.9c0-0.4-0.1-0.7-0.3-1s-0.5-0.5-0.8-0.7s-0.8-0.3-1.2-0.4c-0.4,0-0.7,0-0.9,0c-0.5,0-0.8,0.2-1.1,0.4
		c-0.3,0.2-0.4,0.6-0.4,1c0,0.5,0.2,1,0.7,1.4c0.4,0.4,1,0.6,1.7,0.7L294,146z"/>
	<path class="st3" d="M295.4,138.4l-4.8-2.2l0-1.2l7.4,3.7c1,0.5,1.5,1.2,1.5,2c0,0.1,0,0.4-0.1,0.6l-0.9-0.1l0-0.3
		c0-0.3-0.1-0.6-0.2-0.9c-0.2-0.2-0.4-0.5-0.8-0.6l-0.7-0.4l-6.2,1.1l0-1.1L295.4,138.4z"/>
	<path class="st3" d="M297,131.2c-0.1,0-0.2,0-0.3,0l-0.3,0c0.5,0.6,0.8,1.2,0.8,1.8c0,0.6-0.2,1-0.5,1.4c-0.3,0.4-0.8,0.5-1.3,0.5
		c-0.7,0-1.2-0.3-1.6-0.9s-0.6-1.3-0.6-2.2l0-1.1l-0.5-0.1c-0.4,0-0.7,0-0.9,0.2s-0.3,0.5-0.3,0.8c0,0.4,0.1,0.7,0.3,1
		s0.4,0.4,0.7,0.5l0,1.1c-0.4,0-0.7-0.2-1-0.4c-0.3-0.3-0.5-0.6-0.7-1c-0.2-0.4-0.2-0.8-0.2-1.2c0-0.7,0.2-1.2,0.6-1.5
		s0.9-0.5,1.5-0.5l3.1,0.5l0.5,0c0.2,0,0.4,0,0.6-0.1l0.1,0L297,131.2z M296.2,132.9c0-0.3-0.1-0.7-0.2-1s-0.4-0.6-0.7-0.8l-1.3-0.2
		l0,0.8c0,0.7,0.1,1.2,0.3,1.5c0.2,0.4,0.5,0.6,0.9,0.6c0.3,0,0.5,0,0.7-0.2S296.2,133.2,296.2,132.9z"/>
	<path class="st3" d="M293.8,128.4c-0.7-0.1-1.3-0.3-1.8-0.6c-0.5-0.3-0.9-0.6-1.1-1c-0.2-0.4-0.4-0.8-0.4-1.3
		c0-0.7,0.3-1.3,0.8-1.7l-0.7-0.2l0-1l6.2,1c0.8,0.1,1.5,0.4,1.9,1c0.5,0.5,0.7,1.2,0.7,2c0,0.4-0.1,0.8-0.3,1.2
		c-0.2,0.4-0.5,0.7-0.8,0.9l-0.7-0.6c0.6-0.4,0.9-0.9,0.9-1.5c0-0.5-0.1-0.9-0.4-1.3c-0.3-0.3-0.7-0.6-1.3-0.7l-0.6-0.1
		c0.5,0.5,0.8,1.1,0.8,1.8c0,0.4-0.1,0.7-0.3,1s-0.5,0.5-0.9,0.7c-0.4,0.2-0.8,0.3-1.3,0.3C294.4,128.5,294.1,128.5,293.8,128.4z
		 M294.4,127.4c0.6,0,1-0.1,1.3-0.3c0.3-0.2,0.5-0.5,0.5-0.9c0-0.6-0.3-1.2-0.9-1.6l-2.9-0.5c-0.6,0.2-0.9,0.7-0.9,1.3
		c0,0.6,0.2,1,0.7,1.4c0.5,0.4,1.1,0.6,2,0.6L294.4,127.4z"/>
	<path class="st3" d="M288.3,120.1c0-0.2,0-0.3,0.2-0.4s0.3-0.2,0.5-0.2c0.2,0,0.3,0.1,0.5,0.2c0.1,0.1,0.2,0.3,0.2,0.4
		c0,0.2,0,0.3-0.2,0.5c-0.1,0.1-0.3,0.2-0.4,0.2s-0.3-0.1-0.5-0.2C288.4,120.5,288.3,120.3,288.3,120.1z M297,121l0,1.1l-6.3-1.1
		l0-1.1L297,121z"/>
	<path class="st3" d="M295.2,115.3c-0.4-0.1-0.7,0.2-0.9,0.7l-0.3,1.1c-0.3,0.9-0.8,1.4-1.6,1.4c-0.6,0-1-0.3-1.4-0.8
		c-0.4-0.5-0.5-1-0.5-1.7c0-0.6,0.2-1.2,0.6-1.6s0.8-0.6,1.4-0.6l0,1.1c-0.3,0-0.6,0.1-0.8,0.3s-0.3,0.5-0.3,0.8
		c0,0.4,0.1,0.7,0.3,0.9c0.2,0.2,0.4,0.4,0.7,0.4c0.4,0,0.6-0.2,0.8-0.7l0.1-0.5c0.2-0.7,0.4-1.2,0.7-1.6c0.3-0.3,0.7-0.4,1.1-0.4
		c0.4,0,0.7,0.1,1,0.4c0.3,0.2,0.5,0.5,0.7,0.9c0.2,0.4,0.2,0.8,0.2,1.2c0,0.7-0.2,1.2-0.6,1.7c-0.4,0.4-0.9,0.7-1.5,0.6l0-1.1
		c0.4,0,0.6-0.1,0.9-0.3c0.2-0.2,0.3-0.5,0.3-0.9c0-0.4-0.1-0.7-0.2-1S295.5,115.4,295.2,115.3z"/>
	<path class="st3" d="M289,110.4l1.5,0.3l0-1.2l0.8,0.1l0,1.1l3.9,0.6c0.1,0,0.2,0,0.3,0c0.3,0,0.5-0.2,0.5-0.5c0-0.1,0-0.3-0.1-0.5
		l0.9,0.1c0.1,0.3,0.1,0.5,0.1,0.8c0,0.4-0.2,0.7-0.5,1c-0.3,0.2-0.7,0.3-1.2,0.3l-3.9-0.6l0,1.1l-0.8-0.1l0-1.1l-1.5-0.3L289,110.4
		z"/>
	<path class="st3" d="M297,106.6c0,0.8-0.3,1.4-0.9,1.9c-0.6,0.4-1.3,0.6-2.2,0.6l-0.3,0c-0.6-0.1-1.2-0.2-1.7-0.6
		c-0.5-0.3-0.9-0.7-1.2-1.1c-0.3-0.4-0.4-0.9-0.4-1.4c0-0.7,0.2-1.2,0.6-1.5s1-0.6,1.7-0.6c0.3,0,0.5,0,0.8,0l0.5,0.1l0,4.1
		c0.6,0.1,1.1,0,1.5-0.3c0.4-0.3,0.6-0.7,0.6-1.2c0-0.6-0.3-1.2-0.9-1.7l0.5-0.6c0.4,0.3,0.7,0.6,0.9,1S297,106.1,297,106.6z
		 M291.3,105.9c0,0.4,0.1,0.8,0.5,1.1c0.3,0.3,0.8,0.6,1.4,0.8l0-3.1l-0.1,0c-0.5-0.1-0.9,0-1.2,0.2
		C291.5,105.2,291.3,105.5,291.3,105.9z"/>
	<path class="st3" d="M295.1,99.2c-0.4-0.1-0.7,0.2-0.9,0.7l-0.3,1.1c-0.3,0.9-0.8,1.4-1.6,1.4c-0.6,0-1-0.3-1.4-0.8
		c-0.4-0.5-0.5-1-0.5-1.7c0-0.6,0.2-1.2,0.6-1.6c0.4-0.4,0.8-0.6,1.4-0.6l0,1.1c-0.3,0-0.6,0.1-0.8,0.3s-0.3,0.5-0.3,0.8
		c0,0.4,0.1,0.7,0.3,0.9c0.2,0.2,0.4,0.4,0.7,0.4c0.4,0,0.6-0.2,0.8-0.7l0.1-0.5c0.2-0.7,0.4-1.2,0.7-1.5c0.3-0.3,0.7-0.4,1.1-0.4
		c0.4,0,0.7,0.1,1,0.4c0.3,0.2,0.5,0.5,0.7,0.9s0.2,0.8,0.2,1.2c0,0.7-0.2,1.2-0.6,1.7s-0.9,0.7-1.5,0.6l0-1.1
		c0.4,0,0.6-0.1,0.9-0.3c0.2-0.2,0.3-0.5,0.3-0.9c0-0.4-0.1-0.7-0.2-1S295.4,99.2,295.1,99.2z"/>
</g>
<path class="st1" d="M265.7,353.7c-1-1.3-2-145-2-145l35-15.4l4,133.4L265.7,353.7z"/>
<polygon class="st0" points="241.7,343.5 265.7,353.7 263.7,208.8 241.7,199.8 "/>
<polygon class="st2" points="270.7,188.2 298.7,193.4 263.7,208.8 241.7,199.8 "/>
<g>
	<path class="st3" d="M250.4,336.6v3.5l3.8,0.7v1.1l-8.5-1.5v-5.1l0.9,0.2v4l2.9,0.5v-3.5L250.4,336.6z"/>
	<path class="st3" d="M245.5,333.5c0-0.2,0-0.3,0.2-0.4s0.3-0.2,0.5-0.2c0.2,0,0.3,0.1,0.5,0.2s0.2,0.3,0.2,0.4s0,0.3-0.2,0.5
		s-0.3,0.2-0.4,0.2s-0.3-0.1-0.5-0.2S245.5,333.6,245.5,333.5z M254.2,334.3v1.1l-6.3-1.1v-1.1L254.2,334.3z"/>
	<path class="st3" d="M247.8,330.5l0.8,0.2c-0.6-0.6-0.9-1.2-0.9-1.9c0-0.6,0.2-1,0.6-1.3s1-0.4,1.7-0.3l4.2,0.7v1.1l-4.2-0.7
		c-0.2,0-0.4,0-0.5,0c-0.5,0.1-0.8,0.4-0.8,1c0,0.6,0.3,1.2,1,1.7l4.5,0.8v1.1l-6.3-1.1L247.8,330.5z"/>
	<path class="st3" d="M254.2,322.2c-0.1,0-0.2,0-0.3,0l-0.3,0c0.5,0.6,0.8,1.2,0.8,1.9c0,0.6-0.2,1-0.5,1.4s-0.8,0.5-1.3,0.5
		c-0.7,0-1.2-0.3-1.6-0.9s-0.6-1.3-0.6-2.2l0-1.1l-0.5-0.1c-0.4,0-0.7,0-0.9,0.2s-0.3,0.5-0.3,0.8c0,0.4,0.1,0.7,0.3,1
		s0.4,0.5,0.7,0.5l0,1.1c-0.4,0-0.7-0.2-1-0.4s-0.5-0.6-0.7-1s-0.2-0.8-0.2-1.2c0-0.7,0.2-1.2,0.6-1.5s0.9-0.5,1.5-0.5l3.1,0.5
		l0.5,0c0.2,0,0.4,0,0.6-0.1l0.1,0V322.2z M253.4,323.9c0-0.3-0.1-0.7-0.2-1s-0.4-0.6-0.7-0.8l-1.3-0.2l0,0.8c0,0.7,0.1,1.2,0.3,1.5
		s0.5,0.6,0.9,0.6c0.3,0,0.5,0,0.7-0.2S253.3,324.2,253.4,323.9z"/>
	<path class="st3" d="M247.8,317.6l0.8,0.2c-0.6-0.6-0.9-1.2-0.9-1.9c0-0.6,0.2-1,0.6-1.3s1-0.4,1.7-0.3l4.2,0.7v1.1l-4.2-0.7
		c-0.2,0-0.4,0-0.5,0c-0.5,0.1-0.8,0.4-0.8,1c0,0.6,0.3,1.2,1,1.7l4.5,0.8v1.1l-6.3-1.1L247.8,317.6z"/>
	<path class="st3" d="M253.4,310.6c0-0.4-0.1-0.7-0.3-1s-0.5-0.5-0.9-0.6l0-1c0.4,0.1,0.8,0.2,1.1,0.5s0.6,0.6,0.8,1
		s0.3,0.8,0.3,1.2c0,0.5-0.1,1-0.4,1.3s-0.6,0.6-1.1,0.8s-1,0.2-1.6,0.2l-0.3,0c-0.6-0.1-1.2-0.3-1.6-0.5s-0.9-0.6-1.1-1.1
		s-0.4-1-0.4-1.5c0-0.7,0.2-1.2,0.7-1.6s1-0.6,1.6-0.6l0,1c-0.4,0-0.7,0.1-1,0.3s-0.4,0.5-0.4,0.9c0,0.6,0.2,1,0.6,1.4
		s1,0.6,1.8,0.7l0.2,0c0.2,0,0.5,0,0.8,0c0.5,0,0.8-0.2,1.1-0.4S253.4,311,253.4,310.6z"/>
	<path class="st3" d="M254.3,304.3c0,0.8-0.3,1.4-0.9,1.9s-1.3,0.6-2.2,0.6l-0.3,0c-0.6-0.1-1.2-0.3-1.7-0.6s-0.9-0.7-1.2-1.1
		s-0.4-0.9-0.4-1.4c0-0.7,0.2-1.2,0.7-1.5s1-0.6,1.7-0.6c0.3,0,0.5,0,0.8,0l0.5,0.1v4.1c0.6,0.1,1.1,0,1.5-0.3s0.6-0.6,0.6-1.2
		c0-0.6-0.3-1.2-0.8-1.7l0.5-0.6c0.4,0.3,0.7,0.6,0.9,1S254.3,303.8,254.3,304.3z M248.6,303.7c0,0.4,0.1,0.8,0.4,1.1
		s0.8,0.6,1.4,0.8l0-3.1l-0.1,0c-0.5-0.1-0.9,0-1.2,0.2S248.6,303.3,248.6,303.7z"/>
	<path class="st3" d="M252.5,296.9c-0.4-0.1-0.7,0.2-0.9,0.7l-0.3,1.1c-0.3,0.9-0.9,1.4-1.6,1.3c-0.6,0-1-0.3-1.4-0.8
		s-0.5-1-0.5-1.7c0-0.6,0.2-1.2,0.6-1.6s0.8-0.6,1.4-0.6l0,1.1c-0.3,0-0.6,0.1-0.8,0.3s-0.3,0.5-0.3,0.8c0,0.4,0.1,0.7,0.3,0.9
		c0.2,0.2,0.4,0.4,0.7,0.4c0.4,0.1,0.6-0.2,0.8-0.7l0.1-0.5c0.2-0.7,0.4-1.2,0.7-1.5s0.7-0.4,1.1-0.4c0.4,0,0.7,0.2,1,0.4
		s0.5,0.5,0.7,0.9s0.2,0.8,0.2,1.2c0,0.7-0.2,1.2-0.6,1.7s-0.9,0.6-1.5,0.6l0-1.1c0.4,0,0.6-0.1,0.9-0.3s0.3-0.5,0.3-0.9
		c0-0.4-0.1-0.7-0.2-1S252.8,297,252.5,296.9z"/>
	<path class="st3" d="M254.3,289.1c0,0.8-0.3,1.4-0.9,1.9s-1.3,0.6-2.2,0.6l-0.3,0c-0.6-0.1-1.2-0.3-1.7-0.6s-0.9-0.7-1.2-1.1
		s-0.4-0.9-0.4-1.4c0-0.7,0.2-1.2,0.7-1.5s1-0.6,1.7-0.6c0.3,0,0.5,0,0.8,0l0.5,0.1v4.1c0.6,0.1,1.1,0,1.5-0.3s0.6-0.6,0.6-1.2
		c0-0.6-0.3-1.2-0.8-1.7l0.5-0.6c0.4,0.3,0.7,0.6,0.9,1S254.3,288.6,254.3,289.1z M248.6,288.4c0,0.4,0.1,0.8,0.4,1.1
		s0.8,0.6,1.4,0.8l0-3.1l-0.1,0c-0.5-0.1-0.9,0-1.2,0.2S248.6,288,248.6,288.4z"/>
	<path class="st3" d="M246.3,282.8l1.5,0.3v-1.2l0.8,0.1v1.1l3.9,0.7c0.1,0,0.2,0,0.3,0c0.3,0,0.5-0.2,0.5-0.5c0-0.1,0-0.3-0.1-0.5
		l0.9,0.1c0.1,0.3,0.1,0.5,0.1,0.8c0,0.4-0.2,0.7-0.5,0.9s-0.7,0.3-1.2,0.2l-3.9-0.6v1.1l-0.8-0.1v-1.1l-1.5-0.3V282.8z"/>
	<path class="st3" d="M251.9,273.7v3.5l2.2,1.2v1.2l-8.5-4.6v-1l8.5-1.7v1.1L251.9,273.7z M251,276.7v-2.8l-4,0.7L251,276.7z"/>
	<path class="st3" d="M252.5,267.3c-0.4-0.1-0.7,0.2-0.9,0.7l-0.3,1.1c-0.3,0.9-0.9,1.4-1.6,1.3c-0.6,0-1-0.3-1.4-0.8
		s-0.5-1-0.5-1.7c0-0.6,0.2-1.2,0.6-1.6s0.8-0.6,1.4-0.6l0,1.1c-0.3,0-0.6,0.1-0.8,0.3s-0.3,0.5-0.3,0.8c0,0.4,0.1,0.7,0.3,0.9
		c0.2,0.2,0.4,0.4,0.7,0.4c0.4,0.1,0.6-0.2,0.8-0.7l0.1-0.5c0.2-0.7,0.4-1.2,0.7-1.5s0.7-0.4,1.1-0.4c0.4,0,0.7,0.2,1,0.4
		s0.5,0.5,0.7,0.9s0.2,0.8,0.2,1.2c0,0.7-0.2,1.2-0.6,1.7s-0.9,0.6-1.5,0.6l0-1.1c0.4,0,0.6-0.1,0.9-0.3s0.3-0.5,0.3-0.9
		c0-0.4-0.1-0.7-0.2-1S252.8,267.3,252.5,267.3z"/>
	<path class="st3" d="M252.5,261.2c-0.4-0.1-0.7,0.2-0.9,0.7l-0.3,1.1c-0.3,0.9-0.9,1.4-1.6,1.3c-0.6,0-1-0.3-1.4-0.8
		s-0.5-1-0.5-1.7c0-0.6,0.2-1.2,0.6-1.6s0.8-0.6,1.4-0.6l0,1.1c-0.3,0-0.6,0.1-0.8,0.3s-0.3,0.5-0.3,0.8c0,0.4,0.1,0.7,0.3,0.9
		c0.2,0.2,0.4,0.4,0.7,0.4c0.4,0.1,0.6-0.2,0.8-0.7l0.1-0.5c0.2-0.7,0.4-1.2,0.7-1.5s0.7-0.4,1.1-0.4c0.4,0,0.7,0.2,1,0.4
		s0.5,0.5,0.7,0.9s0.2,0.8,0.2,1.2c0,0.7-0.2,1.2-0.6,1.7s-0.9,0.6-1.5,0.6l0-1.1c0.4,0,0.6-0.1,0.9-0.3s0.3-0.5,0.3-0.9
		c0-0.4-0.1-0.7-0.2-1S252.8,261.2,252.5,261.2z"/>
	<path class="st3" d="M253.6,255c0.5,0.5,0.8,1.1,0.7,1.9c0,0.6-0.2,1.1-0.7,1.3s-1,0.4-1.7,0.3l-4.1-0.7v-1.1l4.1,0.7
		c0.2,0,0.3,0,0.5,0c0.3,0,0.5-0.1,0.7-0.3s0.2-0.4,0.3-0.6c0-0.8-0.3-1.3-0.9-1.8l-4.6-0.8v-1.1l6.3,1.1v1L253.6,255z"/>
	<path class="st3" d="M248.8,248.6l-0.1,0.5c0,0.7,0.3,1.2,0.9,1.6l4.5,0.8v1.1l-6.3-1.1l0-1l0.7,0.2c-0.6-0.4-0.9-1-0.9-1.6
		c0-0.1,0-0.3,0.1-0.5L248.8,248.6z"/>
	<path class="st3" d="M254.2,244.9c-0.1,0-0.2,0-0.3,0l-0.3,0c0.5,0.6,0.8,1.2,0.8,1.9c0,0.6-0.2,1-0.5,1.4s-0.8,0.5-1.3,0.5
		c-0.7,0-1.2-0.3-1.6-0.9s-0.6-1.3-0.6-2.2l0-1.1l-0.5-0.1c-0.4,0-0.7,0-0.9,0.2s-0.3,0.5-0.3,0.8c0,0.4,0.1,0.7,0.3,1
		s0.4,0.5,0.7,0.5l0,1.1c-0.4,0-0.7-0.2-1-0.4s-0.5-0.6-0.7-1s-0.2-0.8-0.2-1.2c0-0.7,0.2-1.2,0.6-1.5s0.9-0.5,1.5-0.5l3.1,0.5
		l0.5,0c0.2,0,0.4,0,0.6-0.1l0.1,0V244.9z M253.4,246.6c0-0.3-0.1-0.7-0.2-1s-0.4-0.6-0.7-0.8l-1.3-0.2l0,0.8c0,0.7,0.1,1.2,0.3,1.5
		s0.5,0.6,0.9,0.6c0.3,0,0.5,0,0.7-0.2S253.3,246.9,253.4,246.6z"/>
	<path class="st3" d="M247.8,240.3l0.8,0.2c-0.6-0.6-0.9-1.2-0.9-1.9c0-0.6,0.2-1,0.6-1.3s1-0.4,1.7-0.3l4.2,0.7v1.1l-4.2-0.7
		c-0.2,0-0.4,0-0.5,0c-0.5,0.1-0.8,0.4-0.8,1c0,0.6,0.3,1.2,1,1.7l4.5,0.8v1.1l-6.3-1.1L247.8,240.3z"/>
	<path class="st3" d="M253.4,233.3c0-0.4-0.1-0.7-0.3-1s-0.5-0.5-0.9-0.6l0-1c0.4,0.1,0.8,0.2,1.1,0.5s0.6,0.6,0.8,1
		s0.3,0.8,0.3,1.2c0,0.5-0.1,1-0.4,1.3s-0.6,0.6-1.1,0.8s-1,0.2-1.6,0.2l-0.3,0c-0.6-0.1-1.2-0.3-1.6-0.5s-0.9-0.6-1.1-1.1
		s-0.4-1-0.4-1.5c0-0.7,0.2-1.2,0.7-1.6s1-0.6,1.6-0.6l0,1c-0.4,0-0.7,0.1-1,0.3s-0.4,0.5-0.4,0.9c0,0.6,0.2,1,0.6,1.4
		s1,0.6,1.8,0.7l0.2,0c0.2,0,0.5,0,0.8,0c0.5,0,0.8-0.2,1.1-0.4S253.4,233.7,253.4,233.3z"/>
	<path class="st3" d="M254.3,227c0,0.8-0.3,1.4-0.9,1.9s-1.3,0.6-2.2,0.6l-0.3,0c-0.6-0.1-1.2-0.3-1.7-0.6s-0.9-0.7-1.2-1.1
		s-0.4-0.9-0.4-1.4c0-0.7,0.2-1.2,0.7-1.5s1-0.6,1.7-0.6c0.3,0,0.5,0,0.8,0l0.5,0.1v4.1c0.6,0.1,1.1,0,1.5-0.3s0.6-0.6,0.6-1.2
		c0-0.6-0.3-1.2-0.8-1.7l0.5-0.6c0.4,0.3,0.7,0.6,0.9,1S254.3,226.5,254.3,227z M248.6,226.4c0,0.4,0.1,0.8,0.4,1.1s0.8,0.6,1.4,0.8
		l0-3.1l-0.1,0c-0.5-0.1-0.9,0-1.2,0.2S248.6,226,248.6,226.4z"/>
	<path class="st3" d="M252.5,219.6c-0.4-0.1-0.7,0.2-0.9,0.7l-0.3,1.1c-0.3,0.9-0.9,1.4-1.6,1.3c-0.6,0-1-0.3-1.4-0.8
		s-0.5-1-0.5-1.7c0-0.6,0.2-1.2,0.6-1.6s0.8-0.6,1.4-0.6l0,1.1c-0.3,0-0.6,0.1-0.8,0.3s-0.3,0.5-0.3,0.8c0,0.4,0.1,0.7,0.3,0.9
		c0.2,0.2,0.4,0.4,0.7,0.4c0.4,0.1,0.6-0.2,0.8-0.7l0.1-0.5c0.2-0.7,0.4-1.2,0.7-1.5s0.7-0.4,1.1-0.4c0.4,0,0.7,0.2,1,0.4
		s0.5,0.5,0.7,0.9s0.2,0.8,0.2,1.2c0,0.7-0.2,1.2-0.6,1.7s-0.9,0.6-1.5,0.6l0-1.1c0.4,0,0.6-0.1,0.9-0.3s0.3-0.5,0.3-0.9
		c0-0.4-0.1-0.7-0.2-1S252.8,219.7,252.5,219.6z"/>
</g>
<g>
	<path d="M32.4,470.3c0.3-1,0.7-1.6,1-2.1c0.3-0.5,0.6-0.9,0.9-1.3c0.6-0.8,1.2-1.4,1.8-2.1c1.2-1.3,2.3-2.4,3.5-3.4
		c2.4-2.1,4.9-3.9,7.4-5.7c5-3.5,10.3-6.5,15.6-9.3c10.7-5.5,21.9-9.9,33.3-13.5c22.8-7.2,46.3-11.3,69.8-13.3
		c23.6-2.1,47.3-2,70.8-0.6c23.5,1.5,47,4.4,70.1,8.5c11.6,2,23.1,4.3,34.6,6.9c5.7,1.3,11.5,2.6,17.2,4l8.6,2.1
		c2.8,0.7,5.6,1.4,8.5,2.1c11.3,2.6,22.7,4.8,34.2,6.4c11.5,1.5,23.1,2.5,34.6,2.5c11.5,0,23.1-0.8,34.4-3
		c11.2-2.2,22.3-5.7,32.2-11.3c9.9-5.5,18.6-13.2,24.3-22.9c2.9-4.8,4.9-10.1,6.2-15.5c1.2-5.5,1.6-11.1,1.2-16.7
		c-0.8-11.3-4.7-22.3-10.3-32.2c-5.6-10-13-19-21.4-26.9c-8.4-8-17.7-14.9-27.6-21c-9.9-6.1-20.3-11.2-31.1-15.5
		c-10.8-4.3-21.9-7.9-33.2-10.7c-5.6-1.4-11.3-2.7-17.1-3.8c-5.8-1.1-11.5-2.3-17.3-3.7c-11.4-2.8-22.8-6.2-33.6-11
		c-5.4-2.5-10.6-5.3-15.4-9c-2.4-1.8-4.6-3.9-6.5-6.3c-1.9-2.4-3.5-5.1-4.4-8.1c-0.9-3-1-6.2-0.3-9.3c0.7-3,2-5.9,3.7-8.4
		c3.4-5,8-9,12.8-12.5c4.8-3.5,10-6.4,15.3-9c5.3-2.6,10.7-4.9,16.2-7c11-4.2,22.3-7.5,33.7-10.3c11.4-2.8,22.9-5.1,34.5-6.9
		c23.2-3.7,46.5-5.9,69.9-7.1c23.4-1.1,46.8-1.1,70.3-0.2c-23.4-0.7-46.8-0.5-70.2,0.8c-23.4,1.3-46.7,3.7-69.8,7.6
		c-11.5,2-23,4.3-34.3,7.2c-11.3,2.9-22.5,6.3-33.4,10.5c-5.4,2.1-10.8,4.4-16,7.1c-5.2,2.6-10.2,5.6-14.9,9c-4.6,3.4-9,7.3-12.1,12
		c-1.6,2.4-2.7,4.9-3.3,7.6c-0.6,2.7-0.4,5.5,0.4,8.1c0.8,2.6,2.3,5,4,7.2c1.8,2.2,3.9,4.1,6.2,5.8c4.5,3.5,9.7,6.2,14.9,8.6
		c10.6,4.7,21.8,7.9,33.2,10.6c5.7,1.3,11.4,2.5,17.1,3.5c5.8,1,11.6,2.3,17.3,3.6c11.4,2.8,22.7,6.3,33.7,10.6
		c11,4.3,21.7,9.4,31.8,15.5c10.1,6.1,19.8,13.1,28.4,21.3c8.7,8.1,16.4,17.4,22.4,27.7c6,10.3,10.2,21.9,11.2,34.1
		c0.5,6,0.2,12.2-1.1,18.2c-1.3,6-3.5,11.8-6.6,17.1c-3.1,5.3-7,10.1-11.4,14.3c-4.4,4.2-9.4,7.7-14.6,10.7
		c-10.5,6-22,9.8-33.7,12.2c-11.7,2.4-23.6,3.3-35.5,3.4c-11.9,0.1-23.7-0.8-35.4-2.3c-11.7-1.5-23.4-3.6-34.9-6.2
		c-2.9-0.6-5.7-1.3-8.6-2l-8.5-2c-5.7-1.3-11.4-2.6-17.1-3.8c-11.4-2.4-22.9-4.6-34.4-6.5c-23-3.8-46.2-6.5-69.4-7.7
		c-23.2-1.2-46.5-1-69.6,1.2c-23,2.2-45.9,6.5-67.8,13.6c-10.9,3.6-21.6,7.9-31.7,13.2c-5,2.6-9.9,5.5-14.5,8.8
		c-2.3,1.6-4.5,3.3-6.5,5.1c-1,0.9-1.9,1.8-2.8,2.7c-0.4,0.4-0.8,0.9-1.1,1.3c-0.1,0.2-0.3,0.4-0.3,0.5c-0.1,0.1-0.1,0.2,0-0.1
		L32.4,470.3z"/>
</g>
<path class="st1" d="M163.7,262.7c-1-1.4-2-157.2-2-157.2l35-16.7l4,144.7L163.7,262.7z"/>
<polygon class="st0" points="139.7,251.6 163.7,262.7 161.7,105.5 139.7,95.8 "/>
<polygon class="st2" points="168.7,83.2 196.7,88.8 161.7,105.5 139.7,95.8 "/>
<g>
	<path class="st3" d="M155.2,238.4v1.1l-3.9-0.7v4.2l3.9,0.7v1.1l-8.5-1.5v-1.1l3.7,0.6v-4.2l-3.7-0.6V237L155.2,238.4z"/>
	<path class="st3" d="M146.2,232.2v-1.4l1.7,1.8l0,0.9L146.2,232.2z M155.3,233.9c0,0.8-0.3,1.4-0.9,1.9s-1.3,0.6-2.2,0.6l-0.3,0
		c-0.6-0.1-1.2-0.3-1.7-0.6s-0.9-0.7-1.2-1.1s-0.4-0.9-0.4-1.4c0-0.7,0.2-1.2,0.7-1.5s1-0.6,1.7-0.6c0.3,0,0.5,0,0.8,0l0.5,0.1v4.1
		c0.6,0.1,1.1,0,1.5-0.3s0.6-0.6,0.6-1.2c0-0.6-0.3-1.2-0.8-1.7l0.5-0.6c0.4,0.3,0.7,0.6,0.9,1S155.3,233.4,155.3,233.9z
		 M149.6,233.2c0,0.4,0.1,0.8,0.4,1.1s0.8,0.6,1.4,0.8l0-3.1l-0.1,0c-0.5-0.1-0.9,0-1.2,0.2S149.6,232.8,149.6,233.2z"/>
	<path class="st3" d="M152,224.6c0.6,0.1,1.2,0.3,1.8,0.5s0.9,0.6,1.2,1s0.4,0.8,0.4,1.3c0,0.8-0.3,1.3-0.9,1.7l0.7,0.2v1l-9-1.6
		v-1.1l3.4,0.6c-0.6-0.5-0.8-1.1-0.8-1.9c0-0.6,0.2-1.1,0.7-1.4s1-0.5,1.8-0.5c0.2,0,0.5,0,0.7,0L152,224.6z M151.4,225.7
		c-0.6,0-1,0.1-1.3,0.3s-0.5,0.5-0.5,0.9c0,0.7,0.3,1.2,1,1.7l2.8,0.5c0.6-0.2,1-0.7,1-1.3c0-0.4-0.1-0.8-0.4-1.1s-0.6-0.5-1.1-0.7
		S151.9,225.7,151.4,225.7z"/>
	<path class="st3" d="M155.3,221.1c0,0.8-0.3,1.4-0.9,1.9s-1.3,0.6-2.2,0.6l-0.3,0c-0.6-0.1-1.2-0.3-1.7-0.6s-0.9-0.7-1.2-1.1
		s-0.4-0.9-0.4-1.4c0-0.7,0.2-1.2,0.7-1.5s1-0.6,1.7-0.6c0.3,0,0.5,0,0.8,0l0.5,0.1v4.1c0.6,0.1,1.1,0,1.5-0.3s0.6-0.6,0.6-1.2
		c0-0.6-0.3-1.2-0.8-1.7l0.5-0.6c0.4,0.3,0.7,0.6,0.9,1S155.3,220.6,155.3,221.1z M149.6,220.4c0,0.4,0.1,0.8,0.4,1.1
		s0.8,0.6,1.4,0.8l0-3.1l-0.1,0c-0.5-0.1-0.9,0-1.2,0.2S149.6,220,149.6,220.4z"/>
	<path class="st3" d="M149.8,213.6l-0.1,0.5c0,0.7,0.3,1.2,0.9,1.6l4.5,0.8v1.1l-6.3-1.1l0-1l0.7,0.2c-0.6-0.4-0.9-1-0.9-1.6
		c0-0.1,0-0.3,0.1-0.5L149.8,213.6z"/>
	<path class="st3" d="M152,213.3c-0.7-0.1-1.3-0.3-1.8-0.6s-0.9-0.6-1.1-1s-0.4-0.8-0.3-1.3c0-0.7,0.3-1.3,0.8-1.7l-0.7-0.2v-1
		l6.2,1.1c0.8,0.1,1.5,0.4,1.9,1s0.7,1.2,0.7,2c0,0.4-0.1,0.8-0.3,1.2s-0.5,0.7-0.8,0.9l-0.7-0.6c0.6-0.4,0.9-0.9,0.9-1.5
		c0-0.5-0.1-0.9-0.4-1.3s-0.7-0.6-1.3-0.7l-0.6-0.1c0.5,0.5,0.8,1.1,0.8,1.8c0,0.4-0.1,0.7-0.3,1s-0.5,0.5-0.9,0.7s-0.8,0.2-1.3,0.3
		C152.6,213.3,152.3,213.3,152,213.3z M152.6,212.2c0.6,0,1-0.1,1.3-0.3s0.5-0.5,0.5-0.9c0-0.6-0.3-1.2-0.9-1.6l-2.9-0.5
		c-0.6,0.2-0.9,0.7-0.9,1.3c0,0.6,0.2,1,0.7,1.4c0.5,0.4,1.1,0.6,2,0.7L152.6,212.2z"/>
	<path class="st3" d="M155.3,204.2c0,0.8-0.3,1.4-0.9,1.9s-1.3,0.6-2.2,0.6l-0.3,0c-0.6-0.1-1.2-0.3-1.7-0.6s-0.9-0.7-1.2-1.1
		s-0.4-0.9-0.4-1.4c0-0.7,0.2-1.2,0.7-1.5s1-0.6,1.7-0.6c0.3,0,0.5,0,0.8,0l0.5,0.1v4.1c0.6,0.1,1.1,0,1.5-0.3s0.6-0.6,0.6-1.2
		c0-0.6-0.3-1.2-0.8-1.7l0.5-0.6c0.4,0.3,0.7,0.6,0.9,1S155.3,203.7,155.3,204.2z M149.6,203.6c0,0.4,0.1,0.8,0.4,1.1
		s0.8,0.6,1.4,0.8l0-3.1l-0.1,0c-0.5-0.1-0.9,0-1.2,0.2S149.6,203.2,149.6,203.6z"/>
	<path class="st3" d="M148.8,198.7l0.7,0.1c-0.6-0.5-0.8-1.2-0.8-1.9c0-0.4,0.1-0.7,0.3-1s0.4-0.5,0.7-0.6c-0.7-0.6-1-1.3-1-2.1
		c0-0.6,0.2-1.1,0.6-1.4s1-0.4,1.7-0.3l4.2,0.7v1.1l-4.2-0.7c-0.2,0-0.4,0-0.6,0c-0.5,0.1-0.8,0.4-0.8,1c0,0.4,0.1,0.7,0.4,1.1
		s0.6,0.5,1,0.6l4.2,0.7v1.1l-4.2-0.7c-0.4-0.1-0.8,0-1,0.2s-0.4,0.5-0.4,0.8c0,0.7,0.3,1.2,0.9,1.6l4.6,0.8v1.1l-6.3-1.1
		L148.8,198.7z"/>
	<path class="st3" d="M155.3,187.8c0,0.8-0.3,1.4-0.9,1.9s-1.3,0.6-2.2,0.6l-0.3,0c-0.6-0.1-1.2-0.3-1.7-0.6s-0.9-0.7-1.2-1.1
		s-0.4-0.9-0.4-1.4c0-0.7,0.2-1.2,0.7-1.5s1-0.6,1.7-0.6c0.3,0,0.5,0,0.8,0l0.5,0.1v4.1c0.6,0.1,1.1,0,1.5-0.3s0.6-0.6,0.6-1.2
		c0-0.6-0.3-1.2-0.8-1.7l0.5-0.6c0.4,0.3,0.7,0.6,0.9,1S155.3,187.2,155.3,187.8z M149.6,187.1c0,0.4,0.1,0.8,0.4,1.1
		s0.8,0.6,1.4,0.8l0-3.1l-0.1,0c-0.5-0.1-0.9,0-1.2,0.2S149.6,186.7,149.6,187.1z"/>
	<path class="st3" d="M148.8,182.2l0.8,0.2c-0.6-0.6-0.9-1.2-0.9-1.9c0-0.6,0.2-1,0.6-1.3s1-0.4,1.7-0.3l4.2,0.7v1.1l-4.2-0.7
		c-0.2,0-0.4,0-0.5,0c-0.5,0.1-0.8,0.4-0.8,1c0,0.6,0.3,1.2,1,1.7l4.5,0.8v1.1l-6.3-1.1L148.8,182.2z"/>
	<path class="st3" d="M147.3,175l1.5,0.3v-1.2l0.8,0.1v1.1l3.9,0.7c0.1,0,0.2,0,0.3,0c0.3,0,0.5-0.2,0.5-0.5c0-0.1,0-0.3-0.1-0.5
		l0.9,0.1c0.1,0.3,0.1,0.5,0.1,0.8c0,0.4-0.2,0.7-0.5,0.9s-0.7,0.3-1.2,0.2l-3.9-0.6v1.1l-0.8-0.1v-1.1l-1.5-0.3V175z"/>
	<path class="st3" d="M155.3,168.2c0,0.8-0.3,1.4-0.9,1.9s-1.3,0.6-2.2,0.6l-0.3,0c-0.6-0.1-1.2-0.3-1.7-0.6s-0.9-0.7-1.2-1.1
		s-0.4-0.9-0.4-1.4c0-0.7,0.2-1.2,0.7-1.5s1-0.6,1.7-0.6c0.3,0,0.5,0,0.8,0l0.5,0.1v4.1c0.6,0.1,1.1,0,1.5-0.3s0.6-0.6,0.6-1.2
		c0-0.6-0.3-1.2-0.8-1.7l0.5-0.6c0.4,0.3,0.7,0.6,0.9,1S155.3,167.7,155.3,168.2z M149.6,167.6c0,0.4,0.1,0.8,0.4,1.1
		s0.8,0.6,1.4,0.8l0-3.1l-0.1,0c-0.5-0.1-0.9,0-1.2,0.2S149.6,167.2,149.6,167.6z"/>
	<path class="st3" d="M147.3,162l1.5,0.3v-1.2l0.8,0.1v1.1l3.9,0.7c0.1,0,0.2,0,0.3,0c0.3,0,0.5-0.2,0.5-0.5c0-0.1,0-0.3-0.1-0.5
		l0.9,0.1c0.1,0.3,0.1,0.5,0.1,0.8c0,0.4-0.2,0.7-0.5,0.9s-0.7,0.3-1.2,0.2l-3.9-0.6v1.1l-0.8-0.1v-1.1l-1.5-0.3V162z"/>
	<path class="st3" d="M149.6,156c-0.6-0.6-0.9-1.2-0.9-1.9c0-0.6,0.2-1,0.6-1.3s1-0.4,1.7-0.3l4.2,0.7v1.1l-4.2-0.7
		c-0.2,0-0.4,0-0.5,0c-0.5,0.1-0.8,0.4-0.8,1c0,0.6,0.3,1.2,1,1.7l4.5,0.8v1.1l-9-1.6v-1.1L149.6,156z"/>
	<path class="st3" d="M147.8,146.1L147.8,146.1l0.1,0.9l-1,0.7l1,1l0,0.9h-0.1l-1.6-1.6v-0.6L147.8,146.1z M148.7,148
		c0-0.5,0.2-1,0.4-1.4s0.7-0.7,1.2-0.8s1-0.2,1.6-0.2l0.1,0c0.6,0.1,1.2,0.3,1.7,0.6s0.9,0.7,1.2,1.1s0.4,1,0.4,1.5
		c0,0.5-0.2,1-0.4,1.4s-0.7,0.7-1.1,0.8s-1,0.2-1.6,0.2c-0.7-0.1-1.2-0.2-1.8-0.5s-0.9-0.7-1.2-1.1S148.7,148.5,148.7,148z
		 M152.1,150.1c0.2,0,0.5,0,0.8,0c0.5,0,0.8-0.2,1.1-0.4s0.4-0.6,0.4-0.9c0-0.4-0.1-0.7-0.3-1s-0.5-0.5-0.8-0.8s-0.8-0.3-1.2-0.4
		c-0.4,0-0.7,0-0.9,0c-0.5,0-0.8,0.2-1.1,0.4s-0.4,0.6-0.4,0.9c0,0.5,0.2,1,0.6,1.4s1,0.6,1.7,0.7L152.1,150.1z"/>
	<path class="st3" d="M147.3,142l1.5,0.3v-1.2l0.8,0.1v1.1l3.9,0.7c0.1,0,0.2,0,0.3,0c0.3,0,0.5-0.2,0.5-0.5c0-0.1,0-0.3-0.1-0.5
		l0.9,0.1c0.1,0.3,0.1,0.5,0.1,0.8c0,0.4-0.2,0.7-0.5,0.9s-0.7,0.3-1.2,0.2l-3.9-0.6v1.1l-0.8-0.1v-1.1l-1.5-0.3V142z"/>
	<path class="st3" d="M155.3,138.2c0,0.8-0.3,1.4-0.9,1.9s-1.3,0.6-2.2,0.6l-0.3,0c-0.6-0.1-1.2-0.3-1.7-0.6s-0.9-0.7-1.2-1.1
		s-0.4-0.9-0.4-1.4c0-0.7,0.2-1.2,0.7-1.5s1-0.6,1.7-0.6c0.3,0,0.5,0,0.8,0l0.5,0.1v4.1c0.6,0.1,1.1,0,1.5-0.3s0.6-0.6,0.6-1.2
		c0-0.6-0.3-1.2-0.8-1.7l0.5-0.6c0.4,0.3,0.7,0.6,0.9,1S155.3,137.7,155.3,138.2z M149.6,137.5c0,0.4,0.1,0.8,0.4,1.1
		s0.8,0.6,1.4,0.8l0-3.1l-0.1,0c-0.5-0.1-0.9,0-1.2,0.2S149.6,137.1,149.6,137.5z"/>
	<path class="st3" d="M155.2,133.5v1.1l-9-1.6V132L155.2,133.5z"/>
	<path class="st3" d="M155.2,130.7v1.1l-9-1.6v-1.1L155.2,130.7z"/>
	<path class="st3" d="M155.3,126.2c0,0.8-0.3,1.4-0.9,1.9s-1.3,0.6-2.2,0.6l-0.3,0c-0.6-0.1-1.2-0.3-1.7-0.6s-0.9-0.7-1.2-1.1
		s-0.4-0.9-0.4-1.4c0-0.7,0.2-1.2,0.7-1.5s1-0.6,1.7-0.6c0.3,0,0.5,0,0.8,0l0.5,0.1v4.1c0.6,0.1,1.1,0,1.5-0.3s0.6-0.6,0.6-1.2
		c0-0.6-0.3-1.2-0.8-1.7l0.5-0.6c0.4,0.3,0.7,0.6,0.9,1S155.3,125.7,155.3,126.2z M149.6,125.5c0,0.4,0.1,0.8,0.4,1.1
		s0.8,0.6,1.4,0.8l0-3.1l-0.1,0c-0.5-0.1-0.9,0-1.2,0.2S149.6,125.1,149.6,125.5z"/>
	<path class="st3" d="M149.8,118.8l-0.1,0.5c0,0.7,0.3,1.2,0.9,1.6l4.5,0.8v1.1l-6.3-1.1l0-1l0.7,0.2c-0.6-0.4-0.9-1-0.9-1.6
		c0-0.1,0-0.3,0.1-0.5L149.8,118.8z"/>
	<path class="st3" d="M146.5,116.7c0-0.2,0-0.3,0.2-0.4s0.3-0.2,0.5-0.2c0.2,0,0.3,0.1,0.5,0.2s0.2,0.3,0.2,0.4s0,0.3-0.2,0.5
		s-0.3,0.2-0.4,0.2s-0.3-0.1-0.5-0.2S146.5,116.9,146.5,116.7z M155.2,117.5v1.1l-6.3-1.1v-1.1L155.2,117.5z"/>
	<path class="st3" d="M155.3,113.1c0,0.8-0.3,1.4-0.9,1.9s-1.3,0.6-2.2,0.6l-0.3,0c-0.6-0.1-1.2-0.3-1.7-0.6s-0.9-0.7-1.2-1.1
		s-0.4-0.9-0.4-1.4c0-0.7,0.2-1.2,0.7-1.5s1-0.6,1.7-0.6c0.3,0,0.5,0,0.8,0l0.5,0.1v4.1c0.6,0.1,1.1,0,1.5-0.3s0.6-0.6,0.6-1.2
		c0-0.6-0.3-1.2-0.8-1.7l0.5-0.6c0.4,0.3,0.7,0.6,0.9,1S155.3,112.6,155.3,113.1z M149.6,112.4c0,0.4,0.1,0.8,0.4,1.1
		s0.8,0.6,1.4,0.8l0-3.1l-0.1,0c-0.5-0.1-0.9,0-1.2,0.2S149.6,112,149.6,112.4z"/>
</g>
<path class="st0" d="M117.7,367.7l-3-180.7c0,0-48-9.5-48-6.3c0,3.2,1,175.9,1,175.9L117.7,367.7z"/>
<polygon class="st1" points="129.7,353.5 117.7,367.7 114.7,187.1 126.7,177.6 "/>
<polygon class="st2" points="66.7,180.7 83.7,171.2 126.7,177.6 114.7,187.1 "/>
<polygon class="st1" points="201.2,350.7 198.2,181.3 226.2,165.9 228.2,323.8 "/>
<polygon class="st0" points="201.2,350.7 181.7,332.1 180.2,174.3 198.2,181.3 "/>
<polygon class="st2" points="206.2,158.2 226.2,165.9 198.2,181.3 180.2,174.3 "/>
<path class="st0" d="M378.6,310.8L376,181.7c0,0-42.3-6.8-42.3-4.5c0,2.3,0.9,125.8,0.9,125.8L378.6,310.8z"/>
<polygon class="st1" points="389.2,300.6 378.6,310.8 376,181.7 386.5,174.9 "/>
<polygon class="st2" points="333.7,177.1 348.7,170.3 386.5,174.9 376,181.7 "/>
<path class="st1" d="M332.7,425.2c-1.3-0.9-3-106-3-106l36.4-11.3l5.1,97.1L332.7,425.2z"/>
<polygon class="st0" points="293.4,417.3 332.7,424.7 329.4,319.2 293.4,312.6 "/>
<polygon class="st2" points="330.4,304.2 366.1,308 329.7,319.2 293.4,312.6 "/>
<path class="st1" d="M157,487.7c-1-1.4-2-162.5-2-162.5l35-17.3l4,149.6L157,487.7z"/>
<polygon class="st0" points="133,476.2 157,487.7 155,325.2 133,315.2 "/>
<polygon class="st2" points="162,302.2 190,308 155,325.2 133,315.2 "/>
<path class="st0" d="M459.2,386.7l-3-138.4c0,0-48-7.3-48-4.9s1,134.7,1,134.7L459.2,386.7z"/>
<polygon class="st1" points="471.2,375.8 459.2,386.7 456.2,248.4 468.2,241.1 "/>
<polygon class="st2" points="408.2,243.5 425.2,236.2 468.2,241.1 456.2,248.4 "/>
<polygon class="st1" points="398.2,406.7 395.2,318.7 423.2,310.7 425.2,392.7 "/>
<polygon class="st0" points="398.2,406.7 382.7,401.2 383.2,316.7 398.2,320.7 "/>
<polygon class="st2" points="403.2,306.7 423.2,310.7 398.2,320.7 383.2,316.7 "/>
<g>
	<path class="st3" d="M90.8,342.1l3.3,0.6v1.1l-8.5-1.5l0-2.8c0-0.9,0.2-1.6,0.7-2s1.1-0.7,1.9-0.6c0.8,0.1,1.5,0.4,1.9,1
		s0.7,1.3,0.7,2.3L90.8,342.1z M89.9,342l0-1.9c0-0.6-0.2-1.1-0.5-1.5s-0.7-0.6-1.3-0.7c-0.5-0.1-0.9,0-1.2,0.3s-0.5,0.6-0.5,1.1
		l0,2L89.9,342z"/>
	<path class="st3" d="M88.8,332.6l-0.1,0.5c0,0.7,0.3,1.2,0.9,1.6l4.5,0.8v1.1l-6.3-1.1l0-1l0.7,0.2c-0.6-0.4-0.9-1-0.9-1.6
		c0-0.1,0-0.3,0.1-0.5L88.8,332.6z"/>
	<path class="st3" d="M87.7,329.1c0-0.5,0.2-1,0.4-1.4s0.7-0.7,1.2-0.8s1-0.2,1.6-0.2l0.1,0c0.6,0.1,1.2,0.3,1.7,0.6
		s0.9,0.7,1.2,1.1s0.4,1,0.4,1.5c0,0.5-0.2,1-0.4,1.4s-0.7,0.7-1.1,0.8s-1,0.2-1.6,0.2c-0.7-0.1-1.2-0.2-1.8-0.5s-0.9-0.7-1.2-1.1
		S87.7,329.7,87.7,329.1z M91.1,331.3c0.2,0,0.5,0,0.8,0c0.5,0,0.8-0.2,1.1-0.4s0.4-0.6,0.4-0.9c0-0.4-0.1-0.7-0.3-1
		s-0.5-0.5-0.8-0.8s-0.8-0.3-1.2-0.4c-0.4,0-0.7,0-0.9,0c-0.5,0-0.8,0.2-1.1,0.4s-0.4,0.6-0.4,0.9c0,0.5,0.2,1,0.6,1.4
		s1,0.6,1.7,0.7L91.1,331.3z"/>
	<path class="st3" d="M91,325.7c-0.6-0.1-1.2-0.3-1.7-0.5s-0.9-0.6-1.2-1s-0.4-0.9-0.4-1.3c0-0.7,0.3-1.2,0.8-1.6l-3.3-0.6v-1.1
		l9,1.6v1l-0.7-0.1c0.5,0.5,0.8,1.1,0.8,1.9c0,0.6-0.2,1.1-0.7,1.4s-1,0.5-1.8,0.6C91.6,325.7,91.3,325.7,91,325.7z M91.6,324.7
		c0.6,0,1-0.1,1.3-0.3s0.5-0.5,0.5-0.9c0-0.6-0.3-1.2-0.9-1.6l-2.9-0.5c-0.6,0.2-0.9,0.7-0.9,1.3c0,0.4,0.1,0.8,0.4,1.1
		s0.6,0.6,1.1,0.7C90.6,324.6,91.1,324.7,91.6,324.7z"/>
	<path class="st3" d="M92.9,318.6c0-0.2,0.1-0.3,0.2-0.5s0.3-0.2,0.5-0.2s0.3,0.1,0.5,0.2s0.2,0.3,0.2,0.5s0,0.3-0.2,0.5
		s-0.3,0.2-0.5,0.2s-0.4-0.1-0.5-0.2S93,318.8,92.9,318.6z"/>
	<path class="st3" d="M94.2,312.8l-5.5-1v1l-0.8-0.1v-1l-0.8-0.1c-0.6-0.1-1.1-0.3-1.5-0.7c-0.4-0.4-0.6-0.9-0.6-1.6
		c0-0.2,0-0.5,0.1-0.8l0.9,0.1c0,0.2-0.1,0.4-0.1,0.6c0,0.4,0.1,0.7,0.3,0.9c0.2,0.2,0.5,0.4,0.9,0.4l0.6,0.1v-1.3l0.8,0.1v1.3
		l5.5,1V312.8z"/>
	<path class="st3" d="M85.5,307.2c0-0.2,0-0.3,0.2-0.4s0.3-0.2,0.5-0.2c0.2,0,0.3,0.1,0.5,0.2s0.2,0.3,0.2,0.4s0,0.3-0.2,0.5
		s-0.3,0.2-0.4,0.2s-0.3-0.1-0.5-0.2S85.5,307.4,85.5,307.2z M94.2,308v1.1l-6.3-1.1v-1.1L94.2,308z"/>
	<path class="st3" d="M94.2,305.2v1.1l-9-1.6v-1.1L94.2,305.2z"/>
	<path class="st3" d="M87.8,301.3l0.7,0.1c-0.6-0.5-0.8-1.2-0.8-1.9c0-0.4,0.1-0.7,0.3-1s0.4-0.5,0.7-0.6c-0.7-0.6-1-1.3-1-2.1
		c0-0.6,0.2-1.1,0.6-1.4s1-0.4,1.7-0.3l4.2,0.7v1.1l-4.2-0.7c-0.2,0-0.4,0-0.6,0c-0.5,0.1-0.8,0.4-0.8,1c0,0.4,0.1,0.7,0.4,1.1
		s0.6,0.5,1,0.6l4.2,0.7v1.1l-4.2-0.7c-0.4-0.1-0.8,0-1,0.2s-0.4,0.5-0.4,0.8c0,0.7,0.3,1.2,0.9,1.6l4.6,0.8v1.1l-6.3-1.1
		L87.8,301.3z"/>
	<path class="st3" d="M92.5,289.2c-0.4-0.1-0.7,0.2-0.9,0.7l-0.3,1.1c-0.3,0.9-0.9,1.4-1.6,1.3c-0.6,0-1-0.3-1.4-0.8s-0.5-1-0.5-1.7
		c0-0.6,0.2-1.2,0.6-1.6s0.8-0.6,1.4-0.6l0,1.1c-0.3,0-0.6,0.1-0.8,0.3s-0.3,0.5-0.3,0.8c0,0.4,0.1,0.7,0.3,0.9
		c0.2,0.2,0.4,0.4,0.7,0.4c0.4,0.1,0.6-0.2,0.8-0.7l0.1-0.5c0.2-0.7,0.4-1.2,0.7-1.5s0.7-0.4,1.1-0.4c0.4,0,0.7,0.2,1,0.4
		s0.5,0.5,0.7,0.9s0.2,0.8,0.2,1.2c0,0.7-0.2,1.2-0.6,1.7s-0.9,0.6-1.5,0.6l0-1.1c0.4,0,0.6-0.1,0.9-0.3s0.3-0.5,0.3-0.9
		c0-0.4-0.1-0.7-0.2-1S92.8,289.3,92.5,289.2z"/>
	<path class="st3" d="M95.9,287.3l-0.4,0.6c-0.6-0.5-1.1-0.7-1.7-0.8l-0.9-0.2v-1l0.8,0.1C94.6,286.2,95.3,286.6,95.9,287.3z"/>
	<path class="st3" d="M92.7,279.5l-4.9-2.3v-1.1l6.3,3.2v0.8l-6.3,1.2v-1L92.7,279.5z"/>
	<path class="st3" d="M85.5,274.1c0-0.2,0-0.3,0.2-0.4s0.3-0.2,0.5-0.2c0.2,0,0.3,0.1,0.5,0.2s0.2,0.3,0.2,0.4s0,0.3-0.2,0.5
		s-0.3,0.2-0.4,0.2s-0.3-0.1-0.5-0.2S85.5,274.3,85.5,274.1z M94.2,275v1.1l-6.3-1.1v-1.1L94.2,275z"/>
	<path class="st3" d="M91,272.9c-0.6-0.1-1.2-0.3-1.7-0.5s-0.9-0.6-1.2-1s-0.4-0.9-0.4-1.3c0-0.7,0.3-1.2,0.8-1.6l-3.3-0.6v-1.1
		l9,1.6v1l-0.7-0.1c0.5,0.5,0.8,1.1,0.8,1.9c0,0.6-0.2,1.1-0.7,1.4s-1,0.5-1.8,0.6C91.6,273,91.3,273,91,272.9z M91.6,271.9
		c0.6,0,1-0.1,1.3-0.3s0.5-0.5,0.5-0.9c0-0.6-0.3-1.2-0.9-1.6l-2.9-0.5c-0.6,0.2-0.9,0.7-0.9,1.3c0,0.4,0.1,0.8,0.4,1.1
		s0.6,0.6,1.1,0.7C90.6,271.8,91.1,271.9,91.6,271.9z"/>
	<path class="st3" d="M85.2,262.2v-1.4l1.7,1.8l0,0.9L85.2,262.2z M94.3,263.9c0,0.8-0.3,1.4-0.9,1.9s-1.3,0.6-2.2,0.6l-0.3,0
		c-0.6-0.1-1.2-0.3-1.7-0.6s-0.9-0.7-1.2-1.1s-0.4-0.9-0.4-1.4c0-0.7,0.2-1.2,0.7-1.5s1-0.6,1.7-0.6c0.3,0,0.5,0,0.8,0l0.5,0.1v4.1
		c0.6,0.1,1.1,0,1.5-0.3s0.6-0.6,0.6-1.2c0-0.6-0.3-1.2-0.8-1.7l0.5-0.6c0.4,0.3,0.7,0.6,0.9,1S94.3,263.3,94.3,263.9z M88.6,263.2
		c0,0.4,0.1,0.8,0.4,1.1s0.8,0.6,1.4,0.8l0-3.1l-0.1,0c-0.5-0.1-0.9,0-1.2,0.2S88.6,262.8,88.6,263.2z"/>
	<path class="st3" d="M87.7,256.8c0-0.5,0.2-1,0.4-1.4s0.7-0.7,1.2-0.8s1-0.2,1.6-0.2l0.1,0c0.6,0.1,1.2,0.3,1.7,0.6
		s0.9,0.7,1.2,1.1s0.4,1,0.4,1.5c0,0.5-0.2,1-0.4,1.4s-0.7,0.7-1.1,0.8s-1,0.2-1.6,0.2c-0.7-0.1-1.2-0.2-1.8-0.5s-0.9-0.7-1.2-1.1
		S87.7,257.4,87.7,256.8z M91.1,259c0.2,0,0.5,0,0.8,0c0.5,0,0.8-0.2,1.1-0.4s0.4-0.6,0.4-0.9c0-0.4-0.1-0.7-0.3-1s-0.5-0.5-0.8-0.8
		s-0.8-0.3-1.2-0.4c-0.4,0-0.7,0-0.9,0c-0.5,0-0.8,0.2-1.1,0.4s-0.4,0.6-0.4,0.9c0,0.5,0.2,1,0.6,1.4s1,0.6,1.7,0.7L91.1,259z"/>
	<path class="st3" d="M95.9,253.9l-0.4,0.6c-0.6-0.5-1.1-0.7-1.7-0.8l-0.9-0.2v-1l0.8,0.1C94.6,252.8,95.3,253.2,95.9,253.9z"/>
	<path class="st3" d="M87.8,246.3l0.7,0.1c-0.6-0.5-0.8-1.2-0.8-1.9c0-0.4,0.1-0.7,0.3-1s0.4-0.5,0.7-0.6c-0.7-0.6-1-1.3-1-2.1
		c0-0.6,0.2-1.1,0.6-1.4s1-0.4,1.7-0.3l4.2,0.7v1.1l-4.2-0.7c-0.2,0-0.4,0-0.6,0c-0.5,0.1-0.8,0.4-0.8,1c0,0.4,0.1,0.7,0.4,1.1
		s0.6,0.5,1,0.6l4.2,0.7v1.1l-4.2-0.7c-0.4-0.1-0.8,0-1,0.2s-0.4,0.5-0.4,0.8c0,0.7,0.3,1.2,0.9,1.6l4.6,0.8v1.1l-6.3-1.1
		L87.8,246.3z"/>
	<path class="st3" d="M93.6,234.1c0.5,0.5,0.8,1.1,0.7,1.9c0,0.6-0.2,1.1-0.7,1.3s-1,0.4-1.7,0.3l-4.1-0.7v-1.1l4.1,0.7
		c0.2,0,0.3,0,0.5,0c0.3,0,0.5-0.1,0.7-0.3s0.2-0.4,0.3-0.6c0-0.8-0.3-1.3-0.9-1.8l-4.6-0.8v-1.1l6.3,1.1v1L93.6,234.1z"/>
	<path class="st3" d="M92.5,227.7c-0.4-0.1-0.7,0.2-0.9,0.7l-0.3,1.1c-0.3,0.9-0.9,1.4-1.6,1.3c-0.6,0-1-0.3-1.4-0.8s-0.5-1-0.5-1.7
		c0-0.6,0.2-1.2,0.6-1.6s0.8-0.6,1.4-0.6l0,1.1c-0.3,0-0.6,0.1-0.8,0.3s-0.3,0.5-0.3,0.8c0,0.4,0.1,0.7,0.3,0.9
		c0.2,0.2,0.4,0.4,0.7,0.4c0.4,0.1,0.6-0.2,0.8-0.7l0.1-0.5c0.2-0.7,0.4-1.2,0.7-1.5s0.7-0.4,1.1-0.4c0.4,0,0.7,0.2,1,0.4
		s0.5,0.5,0.7,0.9s0.2,0.8,0.2,1.2c0,0.7-0.2,1.2-0.6,1.7s-0.9,0.6-1.5,0.6l0-1.1c0.4,0,0.6-0.1,0.9-0.3s0.3-0.5,0.3-0.9
		c0-0.4-0.1-0.7-0.2-1S92.8,227.8,92.5,227.7z"/>
	<path class="st3" d="M85.5,223.6c0-0.2,0-0.3,0.2-0.4s0.3-0.2,0.5-0.2c0.2,0,0.3,0.1,0.5,0.2s0.2,0.3,0.2,0.4s0,0.3-0.2,0.5
		s-0.3,0.2-0.4,0.2s-0.3-0.1-0.5-0.2S85.5,223.8,85.5,223.6z M94.2,224.4v1.1l-6.3-1.1v-1.1L94.2,224.4z"/>
	<path class="st3" d="M87.7,219.4c0-0.7,0.3-1.3,0.8-1.6l-0.6-0.2v-1l8.8,1.5v1.1l-3-0.6c0.5,0.5,0.7,1.1,0.7,1.8
		c0,0.6-0.2,1.1-0.7,1.4s-1,0.5-1.8,0.6c-0.5,0-1,0-1.5-0.2s-1-0.3-1.4-0.6s-0.7-0.6-0.9-1S87.7,219.9,87.7,219.4z M91.1,221.3
		l0.5,0c0.6,0,1-0.1,1.3-0.3s0.5-0.5,0.5-0.9c0-0.6-0.3-1.1-0.9-1.6l-3.1-0.6c-0.5,0.3-0.8,0.7-0.8,1.3c0,0.5,0.2,1,0.6,1.4
		S90.3,221.2,91.1,221.3z"/>
	<path class="st3" d="M93.6,212c0.5,0.5,0.8,1.1,0.7,1.9c0,0.6-0.2,1.1-0.7,1.3s-1,0.4-1.7,0.3l-4.1-0.7v-1.1l4.1,0.7
		c0.2,0,0.3,0,0.5,0c0.3,0,0.5-0.1,0.7-0.3s0.2-0.4,0.3-0.6c0-0.8-0.3-1.3-0.9-1.8l-4.6-0.8V210l6.3,1.1v1L93.6,212z"/>
	<path class="st3" d="M94.3,206.8c0,0.8-0.3,1.4-0.9,1.9s-1.3,0.6-2.2,0.6l-0.3,0c-0.6-0.1-1.2-0.3-1.7-0.6s-0.9-0.7-1.2-1.1
		s-0.4-0.9-0.4-1.4c0-0.7,0.2-1.2,0.7-1.5s1-0.6,1.7-0.6c0.3,0,0.5,0,0.8,0l0.5,0.1v4.1c0.6,0.1,1.1,0,1.5-0.3s0.6-0.6,0.6-1.2
		c0-0.6-0.3-1.2-0.8-1.7l0.5-0.6c0.4,0.3,0.7,0.6,0.9,1S94.3,206.3,94.3,206.8z M88.6,206.1c0,0.4,0.1,0.8,0.4,1.1s0.8,0.6,1.4,0.8
		l0-3.1l-0.1,0c-0.5-0.1-0.9,0-1.2,0.2S88.6,205.7,88.6,206.1z"/>
</g>
<g>
	<path class="st3" d="M302.3,404.1l3.3,0.6v1.1l-8.5-1.5l0-2.8c0-0.9,0.2-1.6,0.7-2s1.1-0.7,1.9-0.6c0.8,0.1,1.5,0.4,1.9,1
		s0.7,1.3,0.7,2.3L302.3,404.1z M301.4,404l0-1.9c0-0.6-0.2-1.1-0.5-1.5s-0.7-0.6-1.3-0.7c-0.5-0.1-0.9,0-1.2,0.3s-0.5,0.6-0.5,1.1
		l0,2L301.4,404z"/>
	<path class="st3" d="M300.3,394.6l-0.1,0.5c0,0.7,0.3,1.2,0.9,1.6l4.5,0.8v1.1l-6.3-1.1l0-1l0.7,0.2c-0.6-0.4-0.9-1-0.9-1.6
		c0-0.1,0-0.3,0.1-0.5L300.3,394.6z"/>
	<path class="st3" d="M299.2,391.1c0-0.5,0.2-1,0.4-1.4s0.7-0.7,1.2-0.8s1-0.2,1.6-0.2l0.1,0c0.6,0.1,1.2,0.3,1.7,0.6
		s0.9,0.7,1.2,1.1s0.4,1,0.4,1.5c0,0.5-0.2,1-0.4,1.4s-0.7,0.7-1.1,0.8s-1,0.2-1.6,0.2c-0.7-0.1-1.2-0.2-1.8-0.5s-0.9-0.7-1.2-1.1
		S299.2,391.7,299.2,391.1z M302.6,393.3c0.2,0,0.5,0,0.8,0c0.5,0,0.8-0.2,1.1-0.4s0.4-0.6,0.4-0.9c0-0.4-0.1-0.7-0.3-1
		s-0.5-0.5-0.8-0.8s-0.8-0.3-1.2-0.4c-0.4,0-0.7,0-0.9,0c-0.5,0-0.8,0.2-1.1,0.4s-0.4,0.6-0.4,0.9c0,0.5,0.2,1,0.6,1.4
		s1,0.6,1.7,0.7L302.6,393.3z"/>
	<path class="st3" d="M302.5,387.7c-0.7-0.1-1.3-0.3-1.8-0.6s-0.9-0.6-1.1-1s-0.4-0.8-0.3-1.3c0-0.7,0.3-1.3,0.8-1.7l-0.7-0.2v-1
		l6.2,1.1c0.8,0.1,1.5,0.4,1.9,1s0.7,1.2,0.7,2c0,0.4-0.1,0.8-0.3,1.2s-0.5,0.7-0.8,0.9l-0.7-0.6c0.6-0.4,0.9-0.9,0.9-1.5
		c0-0.5-0.1-0.9-0.4-1.3s-0.7-0.6-1.3-0.7l-0.6-0.1c0.5,0.5,0.8,1.1,0.8,1.8c0,0.4-0.1,0.7-0.3,1s-0.5,0.5-0.9,0.7s-0.8,0.2-1.3,0.3
		C303.1,387.7,302.8,387.7,302.5,387.7z M303.1,386.7c0.6,0,1-0.1,1.3-0.3s0.5-0.5,0.5-0.9c0-0.6-0.3-1.2-0.9-1.6l-2.9-0.5
		c-0.6,0.2-0.9,0.7-0.9,1.3c0,0.6,0.2,1,0.7,1.4c0.5,0.4,1.1,0.6,2,0.7L303.1,386.7z"/>
	<path class="st3" d="M300.3,377.4l-0.1,0.5c0,0.7,0.3,1.2,0.9,1.6l4.5,0.8v1.1l-6.3-1.1l0-1l0.7,0.2c-0.6-0.4-0.9-1-0.9-1.6
		c0-0.1,0-0.3,0.1-0.5L300.3,377.4z"/>
	<path class="st3" d="M305.7,373.8c-0.1,0-0.2,0-0.3,0l-0.3,0c0.5,0.6,0.8,1.2,0.8,1.9c0,0.6-0.2,1-0.5,1.4s-0.8,0.5-1.3,0.5
		c-0.7,0-1.2-0.3-1.6-0.9s-0.6-1.3-0.6-2.2l0-1.1l-0.5-0.1c-0.4,0-0.7,0-0.9,0.2s-0.3,0.5-0.3,0.8c0,0.4,0.1,0.7,0.3,1
		s0.4,0.5,0.7,0.5l0,1.1c-0.4,0-0.7-0.2-1-0.4s-0.5-0.6-0.7-1s-0.2-0.8-0.2-1.2c0-0.7,0.2-1.2,0.6-1.5s0.9-0.5,1.5-0.5l3.1,0.5
		l0.5,0c0.2,0,0.4,0,0.6-0.1l0.1,0V373.8z M304.9,375.4c0-0.3-0.1-0.7-0.2-1s-0.4-0.6-0.7-0.8l-1.3-0.2l0,0.8c0,0.7,0.1,1.2,0.3,1.5
		s0.5,0.6,0.9,0.6c0.3,0,0.5,0,0.7-0.2S304.8,375.7,304.9,375.4z"/>
	<path class="st3" d="M299.3,369.1l0.7,0.1c-0.6-0.5-0.8-1.2-0.8-1.9c0-0.4,0.1-0.7,0.3-1s0.4-0.5,0.7-0.6c-0.7-0.6-1-1.3-1-2.1
		c0-0.6,0.2-1.1,0.6-1.4s1-0.4,1.7-0.3l4.2,0.7v1.1l-4.2-0.7c-0.2,0-0.4,0-0.6,0c-0.5,0.1-0.8,0.4-0.8,1c0,0.4,0.1,0.7,0.4,1.1
		s0.6,0.5,1,0.6l4.2,0.7v1.1l-4.2-0.7c-0.4-0.1-0.8,0-1,0.2s-0.4,0.5-0.4,0.8c0,0.7,0.3,1.2,0.9,1.6l4.6,0.8v1.1l-6.3-1.1
		L299.3,369.1z"/>
	<path class="st3" d="M299.3,358.9l0.7,0.1c-0.6-0.5-0.8-1.2-0.8-1.9c0-0.4,0.1-0.7,0.3-1s0.4-0.5,0.7-0.6c-0.7-0.6-1-1.3-1-2.1
		c0-0.6,0.2-1.1,0.6-1.4s1-0.4,1.7-0.3l4.2,0.7v1.1l-4.2-0.7c-0.2,0-0.4,0-0.6,0c-0.5,0.1-0.8,0.4-0.8,1c0,0.4,0.1,0.7,0.4,1.1
		s0.6,0.5,1,0.6l4.2,0.7v1.1l-4.2-0.7c-0.4-0.1-0.8,0-1,0.2s-0.4,0.5-0.4,0.8c0,0.7,0.3,1.2,0.9,1.6l4.6,0.8v1.1l-6.3-1.1
		L299.3,358.9z"/>
	<path class="st3" d="M305.7,346.8c-0.1,0-0.2,0-0.3,0l-0.3,0c0.5,0.6,0.8,1.2,0.8,1.9c0,0.6-0.2,1-0.5,1.4s-0.8,0.5-1.3,0.5
		c-0.7,0-1.2-0.3-1.6-0.9s-0.6-1.3-0.6-2.2l0-1.1l-0.5-0.1c-0.4,0-0.7,0-0.9,0.2s-0.3,0.5-0.3,0.8c0,0.4,0.1,0.7,0.3,1
		s0.4,0.5,0.7,0.5l0,1.1c-0.4,0-0.7-0.2-1-0.4s-0.5-0.6-0.7-1s-0.2-0.8-0.2-1.2c0-0.7,0.2-1.2,0.6-1.5s0.9-0.5,1.5-0.5l3.1,0.5
		l0.5,0c0.2,0,0.4,0,0.6-0.1l0.1,0V346.8z M304.9,348.5c0-0.3-0.1-0.7-0.2-1s-0.4-0.6-0.7-0.8l-1.3-0.2l0,0.8c0,0.7,0.1,1.2,0.3,1.5
		s0.5,0.6,0.9,0.6c0.3,0,0.5,0,0.7-0.2S304.8,348.8,304.9,348.5z"/>
	<path class="st3" d="M297.8,341.5l1.5,0.3v-1.2l0.8,0.1v1.1l3.9,0.7c0.1,0,0.2,0,0.3,0c0.3,0,0.5-0.2,0.5-0.5c0-0.1,0-0.3-0.1-0.5
		l0.9,0.1c0.1,0.3,0.1,0.5,0.1,0.8c0,0.4-0.2,0.7-0.5,0.9s-0.7,0.3-1.2,0.2l-3.9-0.6v1.1l-0.8-0.1v-1.1l-1.5-0.3V341.5z"/>
	<path class="st3" d="M297,338.4c0-0.2,0-0.3,0.2-0.4s0.3-0.2,0.5-0.2c0.2,0,0.3,0.1,0.5,0.2s0.2,0.3,0.2,0.4s0,0.3-0.2,0.5
		s-0.3,0.2-0.4,0.2s-0.3-0.1-0.5-0.2S297,338.6,297,338.4z M305.7,339.3v1.1l-6.3-1.1v-1.1L305.7,339.3z"/>
	<path class="st3" d="M299.2,334c0-0.5,0.2-1,0.4-1.4s0.7-0.7,1.2-0.8s1-0.2,1.6-0.2l0.1,0c0.6,0.1,1.2,0.3,1.7,0.6s0.9,0.7,1.2,1.1
		s0.4,1,0.4,1.5c0,0.5-0.2,1-0.4,1.4s-0.7,0.7-1.1,0.8s-1,0.2-1.6,0.2c-0.7-0.1-1.2-0.2-1.8-0.5s-0.9-0.7-1.2-1.1
		S299.2,334.6,299.2,334z M302.6,336.2c0.2,0,0.5,0,0.8,0c0.5,0,0.8-0.2,1.1-0.4s0.4-0.6,0.4-0.9c0-0.4-0.1-0.7-0.3-1
		s-0.5-0.5-0.8-0.8s-0.8-0.3-1.2-0.4c-0.4,0-0.7,0-0.9,0c-0.5,0-0.8,0.2-1.1,0.4s-0.4,0.6-0.4,0.9c0,0.5,0.2,1,0.6,1.4
		s1,0.6,1.7,0.7L302.6,336.2z"/>
	<path class="st3" d="M299.3,328.8l0.8,0.2c-0.6-0.6-0.9-1.2-0.9-1.9c0-0.6,0.2-1,0.6-1.3s1-0.4,1.7-0.3l4.2,0.7v1.1l-4.2-0.7
		c-0.2,0-0.4,0-0.5,0c-0.5,0.1-0.8,0.4-0.8,1c0,0.6,0.3,1.2,1,1.7l4.5,0.8v1.1l-6.3-1.1L299.3,328.8z"/>
</g>
<g>
	<path class="st3" d="M347.7,289.2v3.5l2.2,1.2v1.2l-8.5-4.6v-1l8.5-1.7v1.1L347.7,289.2z M346.8,292.1v-2.8l-4,0.7L346.8,292.1z"/>
	<path class="st3" d="M349.2,284c0-0.4-0.1-0.7-0.3-1s-0.5-0.5-0.9-0.6l0-1c0.4,0.1,0.8,0.2,1.1,0.5s0.6,0.6,0.8,1s0.3,0.8,0.3,1.2
		c0,0.5-0.1,1-0.4,1.3s-0.6,0.6-1.1,0.8s-1,0.2-1.6,0.2l-0.3,0c-0.6-0.1-1.2-0.3-1.6-0.5s-0.9-0.6-1.1-1.1s-0.4-1-0.4-1.5
		c0-0.7,0.2-1.2,0.7-1.6s1-0.6,1.6-0.6l0,1c-0.4,0-0.7,0.1-1,0.3s-0.4,0.5-0.4,0.9c0,0.6,0.2,1,0.6,1.4s1,0.6,1.8,0.7l0.2,0
		c0.2,0,0.5,0,0.8,0c0.5,0,0.8-0.2,1.1-0.4S349.2,284.4,349.2,284z"/>
	<path class="st3" d="M342.1,277.7l1.5,0.3v-1.2l0.8,0.1v1.1l3.9,0.7c0.1,0,0.2,0,0.3,0c0.3,0,0.5-0.2,0.5-0.5c0-0.1,0-0.3-0.1-0.5
		l0.9,0.1c0.1,0.3,0.1,0.5,0.1,0.8c0,0.4-0.2,0.7-0.5,0.9s-0.7,0.3-1.2,0.2l-3.9-0.6v1.1l-0.8-0.1V279l-1.5-0.3V277.7z"/>
	<path class="st3" d="M341.3,274.6c0-0.2,0-0.3,0.2-0.4s0.3-0.2,0.5-0.2c0.2,0,0.3,0.1,0.5,0.2s0.2,0.3,0.2,0.4s0,0.3-0.2,0.5
		s-0.3,0.2-0.4,0.2s-0.3-0.1-0.5-0.2S341.3,274.8,341.3,274.6z M349.9,275.5v1.1l-6.3-1.1v-1.1L349.9,275.5z"/>
	<path class="st3" d="M348.5,271.5l-4.9-2.3V268l6.3,3.2v0.8l-6.3,1.2v-1L348.5,271.5z"/>
	<path class="st3" d="M341.3,266c0-0.2,0-0.3,0.2-0.4s0.3-0.2,0.5-0.2c0.2,0,0.3,0.1,0.5,0.2s0.2,0.3,0.2,0.4s0,0.3-0.2,0.5
		s-0.3,0.2-0.4,0.2s-0.3-0.1-0.5-0.2S341.3,266.2,341.3,266z M349.9,266.9v1.1l-6.3-1.1v-1.1L349.9,266.9z"/>
	<path class="st3" d="M342.1,262.4l1.5,0.3v-1.2l0.8,0.1v1.1l3.9,0.7c0.1,0,0.2,0,0.3,0c0.3,0,0.5-0.2,0.5-0.5c0-0.1,0-0.3-0.1-0.5
		l0.9,0.1c0.1,0.3,0.1,0.5,0.1,0.8c0,0.4-0.2,0.7-0.5,0.9s-0.7,0.3-1.2,0.2l-3.9-0.6v1.1l-0.8-0.1v-1.1l-1.5-0.3V262.4z"/>
	<path class="st3" d="M340.9,256.9v-1.4l1.7,1.8l0,0.9L340.9,256.9z M350.1,258.6c0,0.8-0.3,1.4-0.9,1.9s-1.3,0.6-2.2,0.6l-0.3,0
		c-0.6-0.1-1.2-0.3-1.7-0.6s-0.9-0.7-1.2-1.1s-0.4-0.9-0.4-1.4c0-0.7,0.2-1.2,0.7-1.5s1-0.6,1.7-0.6c0.3,0,0.5,0,0.8,0l0.5,0.1v4.1
		c0.6,0.1,1.1,0,1.5-0.3s0.6-0.6,0.6-1.2c0-0.6-0.3-1.2-0.8-1.7l0.5-0.6c0.4,0.3,0.7,0.6,0.9,1S350.1,258.1,350.1,258.6z
		 M344.4,257.9c0,0.4,0.1,0.8,0.4,1.1s0.8,0.6,1.4,0.8l0-3.1l-0.1,0c-0.5-0.1-0.9,0-1.2,0.2S344.4,257.5,344.4,257.9z"/>
	<path class="st3" d="M348.2,251.2c-0.4-0.1-0.7,0.2-0.9,0.7L347,253c-0.3,0.9-0.9,1.4-1.6,1.3c-0.6,0-1-0.3-1.4-0.8s-0.5-1-0.5-1.7
		c0-0.6,0.2-1.2,0.6-1.6s0.8-0.6,1.4-0.6l0,1.1c-0.3,0-0.6,0.1-0.8,0.3s-0.3,0.5-0.3,0.8c0,0.4,0.1,0.7,0.3,0.9
		c0.2,0.2,0.4,0.4,0.7,0.4c0.4,0.1,0.6-0.2,0.8-0.7l0.1-0.5c0.2-0.7,0.4-1.2,0.7-1.5s0.7-0.4,1.1-0.4c0.4,0,0.7,0.2,1,0.4
		s0.5,0.5,0.7,0.9s0.2,0.8,0.2,1.2c0,0.7-0.2,1.2-0.6,1.7s-0.9,0.6-1.5,0.6l0-1.1c0.4,0,0.6-0.1,0.9-0.3s0.3-0.5,0.3-0.9
		c0-0.4-0.1-0.7-0.2-1S348.5,251.2,348.2,251.2z"/>
	<path class="st3" d="M341.9,244.8c-0.2,0-0.3-0.1-0.5-0.2s-0.2-0.3-0.2-0.4c0-0.2,0-0.3,0.2-0.4s0.3-0.2,0.4-0.2
		c0.2,0,0.3,0.1,0.5,0.2s0.2,0.3,0.2,0.5c0,0.2,0,0.3-0.2,0.4S342.1,244.8,341.9,244.8z M343.6,243.9l7.1,1.2
		c0.6,0.1,1.1,0.3,1.4,0.6s0.5,0.7,0.5,1.3c0,0.2,0,0.4-0.1,0.7l-0.9-0.1c0-0.1,0.1-0.3,0.1-0.5c0-0.5-0.3-0.8-0.9-0.9l-7.1-1.2
		V243.9z"/>
	<path class="st3" d="M349.3,239.2c0.5,0.5,0.8,1.1,0.7,1.9c0,0.6-0.2,1.1-0.7,1.3s-1,0.4-1.7,0.3l-4.1-0.7V241l4.1,0.7
		c0.2,0,0.3,0,0.5,0c0.3,0,0.5-0.1,0.7-0.3s0.2-0.4,0.3-0.6c0-0.8-0.3-1.3-0.9-1.8l-4.6-0.8v-1.1l6.3,1.1v1L349.3,239.2z"/>
	<path class="st3" d="M344.6,232.8l-0.1,0.5c0,0.7,0.3,1.2,0.9,1.6l4.5,0.8v1.1l-6.3-1.1l0-1l0.7,0.2c-0.6-0.4-0.9-1-0.9-1.6
		c0-0.1,0-0.3,0.1-0.5L344.6,232.8z"/>
	<path class="st3" d="M341.3,230.7c0-0.2,0-0.3,0.2-0.4s0.3-0.2,0.5-0.2c0.2,0,0.3,0.1,0.5,0.2s0.2,0.3,0.2,0.4s0,0.3-0.2,0.5
		s-0.3,0.2-0.4,0.2s-0.3-0.1-0.5-0.2S341.3,230.9,341.3,230.7z M349.9,231.6v1.1l-6.3-1.1v-1.1L349.9,231.6z"/>
	<path class="st3" d="M346.8,229.6c-0.6-0.1-1.2-0.3-1.7-0.5s-0.9-0.6-1.2-1s-0.4-0.9-0.4-1.3c0-0.7,0.3-1.2,0.8-1.6l-3.3-0.6v-1.1
		l9,1.6v1l-0.7-0.1c0.5,0.5,0.8,1.1,0.8,1.9c0,0.6-0.2,1.1-0.7,1.4s-1,0.5-1.8,0.6C347.4,229.6,347.1,229.6,346.8,229.6z
		 M347.4,228.6c0.6,0,1-0.1,1.3-0.3c0.3-0.2,0.5-0.5,0.5-0.9c0-0.6-0.3-1.2-0.9-1.6l-2.9-0.5c-0.6,0.2-0.9,0.7-0.9,1.3
		c0,0.4,0.1,0.8,0.4,1.1c0.3,0.3,0.6,0.6,1.1,0.7C346.4,228.5,346.8,228.6,347.4,228.6z"/>
	<path class="st3" d="M341.3,221.2c0-0.2,0-0.3,0.2-0.4s0.3-0.2,0.5-0.2c0.2,0,0.3,0.1,0.5,0.2s0.2,0.3,0.2,0.4s0,0.3-0.2,0.5
		s-0.3,0.2-0.4,0.2s-0.3-0.1-0.5-0.2S341.3,221.4,341.3,221.2z M349.9,222.1v1.1l-6.3-1.1V221L349.9,222.1z"/>
	<path class="st3" d="M343.5,217.1c0-0.7,0.3-1.3,0.8-1.6l-0.6-0.2v-1l8.8,1.5v1.1l-3-0.6c0.5,0.5,0.7,1.1,0.7,1.8
		c0,0.6-0.2,1.1-0.7,1.4s-1,0.5-1.8,0.6c-0.5,0-1,0-1.5-0.2s-1-0.3-1.4-0.6s-0.7-0.6-0.9-1S343.5,217.6,343.5,217.1z M346.9,219
		l0.5,0c0.6,0,1-0.1,1.3-0.3s0.5-0.5,0.5-0.9c0-0.6-0.3-1.1-0.9-1.6l-3.1-0.6c-0.5,0.3-0.8,0.7-0.8,1.3c0,0.5,0.2,1,0.6,1.4
		S346,218.9,346.9,219z"/>
	<path class="st3" d="M349.3,209.7c0.5,0.5,0.8,1.1,0.7,1.9c0,0.6-0.2,1.1-0.7,1.3s-1,0.4-1.7,0.3l-4.1-0.7v-1.1l4.1,0.7
		c0.2,0,0.3,0,0.5,0c0.3,0,0.5-0.1,0.7-0.3s0.2-0.4,0.3-0.6c0-0.8-0.3-1.3-0.9-1.8l-4.6-0.8v-1.1l6.3,1.1v1L349.3,209.7z"/>
	<path class="st3" d="M350.1,204.5c0,0.8-0.3,1.4-0.9,1.9s-1.3,0.6-2.2,0.6l-0.3,0c-0.6-0.1-1.2-0.3-1.7-0.6s-0.9-0.7-1.2-1.1
		s-0.4-0.9-0.4-1.4c0-0.7,0.2-1.2,0.7-1.5s1-0.6,1.7-0.6c0.3,0,0.5,0,0.8,0l0.5,0.1v4.1c0.6,0.1,1.1,0,1.5-0.3s0.6-0.6,0.6-1.2
		c0-0.6-0.3-1.2-0.8-1.7l0.5-0.6c0.4,0.3,0.7,0.6,0.9,1S350.1,204,350.1,204.5z M344.4,203.8c0,0.4,0.1,0.8,0.4,1.1s0.8,0.6,1.4,0.8
		l0-3.1l-0.1,0c-0.5-0.1-0.9,0-1.2,0.2S344.4,203.4,344.4,203.8z"/>
	<path class="st3" d="M348.2,197.1c-0.4-0.1-0.7,0.2-0.9,0.7l-0.3,1.1c-0.3,0.9-0.9,1.4-1.6,1.3c-0.6,0-1-0.3-1.4-0.8
		s-0.5-1-0.5-1.7c0-0.6,0.2-1.2,0.6-1.6s0.8-0.6,1.4-0.6l0,1.1c-0.3,0-0.6,0.1-0.8,0.3s-0.3,0.5-0.3,0.8c0,0.4,0.1,0.7,0.3,0.9
		c0.2,0.2,0.4,0.4,0.7,0.4c0.4,0.1,0.6-0.2,0.8-0.7l0.1-0.5c0.2-0.7,0.4-1.2,0.7-1.5s0.7-0.4,1.1-0.4c0.4,0,0.7,0.2,1,0.4
		s0.5,0.5,0.7,0.9s0.2,0.8,0.2,1.2c0,0.7-0.2,1.2-0.6,1.7s-0.9,0.6-1.5,0.6l0-1.1c0.4,0,0.6-0.1,0.9-0.3s0.3-0.5,0.3-0.9
		c0-0.4-0.1-0.7-0.2-1S348.5,197.1,348.2,197.1z"/>
</g>
<g>
	<path class="st3" d="M367.7,280.8c0,0.8-0.3,1.4-0.9,1.9s-1.3,0.6-2.2,0.6l-0.3,0c-0.6-0.1-1.2-0.3-1.7-0.6s-0.9-0.7-1.2-1.1
		s-0.4-0.9-0.4-1.4c0-0.7,0.2-1.2,0.7-1.5s1-0.6,1.7-0.6c0.3,0,0.5,0,0.8,0l0.5,0.1v4.1c0.6,0.1,1.1,0,1.5-0.3s0.6-0.6,0.6-1.2
		c0-0.6-0.3-1.2-0.8-1.7l0.5-0.6c0.4,0.3,0.7,0.6,0.9,1S367.7,280.2,367.7,280.8z M362,280.1c0,0.4,0.1,0.8,0.4,1.1s0.8,0.6,1.4,0.8
		l0-3.1l-0.1,0c-0.5-0.1-0.9,0-1.2,0.2S362,279.7,362,280.1z"/>
	<path class="st3" d="M359.7,274.5l1.5,0.3v-1.2l0.8,0.1v1.1l3.9,0.7c0.1,0,0.2,0,0.3,0c0.3,0,0.5-0.2,0.5-0.5c0-0.1,0-0.3-0.1-0.5
		l0.9,0.1c0.1,0.3,0.1,0.5,0.1,0.8c0,0.4-0.2,0.7-0.5,0.9s-0.7,0.3-1.2,0.2l-3.9-0.6v1.1l-0.8-0.1v-1.1l-1.5-0.3V274.5z"/>
	<path class="st3" d="M366.8,267.8c0-0.4-0.1-0.7-0.3-1s-0.5-0.5-0.9-0.6l0-1c0.4,0.1,0.8,0.2,1.1,0.5s0.6,0.6,0.8,1
		s0.3,0.8,0.3,1.2c0,0.5-0.1,1-0.4,1.3s-0.6,0.6-1.1,0.8s-1,0.2-1.6,0.2l-0.3,0c-0.6-0.1-1.2-0.3-1.6-0.5s-0.9-0.6-1.1-1.1
		s-0.4-1-0.4-1.5c0-0.7,0.2-1.2,0.7-1.6s1-0.6,1.6-0.6l0,1c-0.4,0-0.7,0.1-1,0.3s-0.4,0.5-0.4,0.9c0,0.6,0.2,1,0.6,1.4
		s1,0.6,1.8,0.7l0.2,0c0.2,0,0.5,0,0.8,0c0.5,0,0.8-0.2,1.1-0.4S366.8,268.2,366.8,267.8z"/>
	<path class="st3" d="M361.1,260.8c0-0.5,0.2-1,0.4-1.4s0.7-0.7,1.2-0.8s1-0.2,1.6-0.2l0.1,0c0.6,0.1,1.2,0.3,1.7,0.6
		s0.9,0.7,1.2,1.1s0.4,1,0.4,1.5c0,0.5-0.2,1-0.4,1.4s-0.7,0.7-1.1,0.8s-1,0.2-1.6,0.2c-0.7-0.1-1.2-0.2-1.8-0.5s-0.9-0.7-1.2-1.1
		S361.1,261.4,361.1,260.8z M364.5,263c0.2,0,0.5,0,0.8,0c0.5,0,0.8-0.2,1.1-0.4s0.4-0.6,0.4-0.9c0-0.4-0.1-0.7-0.3-1
		s-0.5-0.5-0.8-0.8s-0.8-0.3-1.2-0.4c-0.4,0-0.7,0-0.9,0c-0.5,0-0.8,0.2-1.1,0.4s-0.4,0.6-0.4,0.9c0,0.5,0.2,1,0.6,1.4
		s1,0.6,1.7,0.7L364.5,263z"/>
	<path class="st3" d="M361.2,255.5l0.7,0.1c-0.6-0.5-0.8-1.2-0.8-1.9c0-0.4,0.1-0.7,0.3-1s0.4-0.5,0.7-0.6c-0.7-0.6-1-1.3-1-2.1
		c0-0.6,0.2-1.1,0.6-1.4s1-0.4,1.7-0.3l4.2,0.7v1.1l-4.2-0.7c-0.2,0-0.4,0-0.6,0c-0.5,0.1-0.8,0.4-0.8,1c0,0.4,0.1,0.7,0.4,1.1
		s0.6,0.5,1,0.6l4.2,0.7v1.1l-4.2-0.7c-0.4-0.1-0.8,0-1,0.2s-0.4,0.5-0.4,0.8c0,0.7,0.3,1.2,0.9,1.6l4.6,0.8v1.1l-6.3-1.1
		L361.2,255.5z"/>
	<path class="st3" d="M364.5,241.6c0.6,0.1,1.2,0.3,1.7,0.5s0.9,0.6,1.2,1s0.4,0.8,0.4,1.3c0,0.7-0.3,1.3-0.7,1.7l3.1,0.6v1.1
		l-8.8-1.5l0-1l0.7,0.1c-0.6-0.5-0.8-1.2-0.8-1.9c0-0.6,0.2-1.1,0.7-1.4s1-0.5,1.8-0.5c0.2,0,0.5,0,0.7,0L364.5,241.6z M364.3,242.6
		l-0.5,0c-0.6,0-1,0.1-1.3,0.3c-0.3,0.2-0.5,0.5-0.5,0.9c0,0.6,0.3,1.1,0.9,1.6l3,0.5c0.6-0.2,0.8-0.7,0.9-1.3c0-0.5-0.2-1-0.6-1.3
		S365.2,242.8,364.3,242.6z"/>
	<path class="st3" d="M359.7,238l1.5,0.3v-1.2l0.8,0.1v1.1l3.9,0.7c0.1,0,0.2,0,0.3,0c0.3,0,0.5-0.2,0.5-0.5c0-0.1,0-0.3-0.1-0.5
		l0.9,0.1c0.1,0.3,0.1,0.5,0.1,0.8c0,0.4-0.2,0.7-0.5,0.9s-0.7,0.3-1.2,0.2l-3.9-0.6v1.1l-0.8-0.1v-1.1l-1.5-0.3V238z"/>
	<path class="st3" d="M367.6,233c-0.1,0-0.2,0-0.3,0l-0.3,0c0.5,0.6,0.8,1.2,0.8,1.9c0,0.6-0.2,1-0.5,1.4s-0.8,0.5-1.3,0.5
		c-0.7,0-1.2-0.3-1.6-0.9s-0.6-1.3-0.6-2.2l0-1.1l-0.5-0.1c-0.4,0-0.7,0-0.9,0.2s-0.3,0.5-0.3,0.8c0,0.4,0.1,0.7,0.3,1
		s0.4,0.5,0.7,0.5l0,1.1c-0.4,0-0.7-0.2-1-0.4s-0.5-0.6-0.7-1s-0.2-0.8-0.2-1.2c0-0.7,0.2-1.2,0.6-1.5s0.9-0.5,1.5-0.5l3.1,0.5
		l0.5,0c0.2,0,0.4,0,0.6-0.1l0.1,0V233z M366.8,234.7c0-0.3-0.1-0.7-0.2-1s-0.4-0.6-0.7-0.8l-1.3-0.2l0,0.8c0,0.7,0.1,1.2,0.3,1.5
		s0.5,0.6,0.9,0.6c0.3,0,0.5,0,0.7-0.2S366.8,235,366.8,234.7z"/>
	<path class="st3" d="M364.5,224.8c0.6,0.1,1.2,0.3,1.8,0.5s0.9,0.6,1.2,1s0.4,0.8,0.4,1.3c0,0.8-0.3,1.3-0.9,1.7l0.7,0.2v1l-9-1.6
		v-1.1l3.4,0.6c-0.6-0.5-0.8-1.1-0.8-1.9c0-0.6,0.2-1.1,0.7-1.4s1-0.5,1.8-0.5c0.2,0,0.5,0,0.7,0L364.5,224.8z M363.8,225.8
		c-0.6,0-1,0.1-1.3,0.3c-0.3,0.2-0.5,0.5-0.5,0.9c0,0.7,0.3,1.2,1,1.7l2.8,0.5c0.6-0.2,1-0.7,1-1.3c0-0.4-0.1-0.8-0.4-1.1
		c-0.3-0.3-0.6-0.5-1.1-0.7C364.9,225.9,364.4,225.8,363.8,225.8z"/>
	<path class="st3" d="M367.6,222.8v1.1l-9-1.6v-1.1L367.6,222.8z"/>
	<path class="st3" d="M367.7,218.3c0,0.8-0.3,1.4-0.9,1.9s-1.3,0.6-2.2,0.6l-0.3,0c-0.6-0.1-1.2-0.3-1.7-0.6s-0.9-0.7-1.2-1.1
		s-0.4-0.9-0.4-1.4c0-0.7,0.2-1.2,0.7-1.5s1-0.6,1.7-0.6c0.3,0,0.5,0,0.8,0l0.5,0.1v4.1c0.6,0.1,1.1,0,1.5-0.3s0.6-0.6,0.6-1.2
		c0-0.6-0.3-1.2-0.8-1.7l0.5-0.6c0.4,0.3,0.7,0.6,0.9,1S367.7,217.8,367.7,218.3z M362,217.6c0,0.4,0.1,0.8,0.4,1.1s0.8,0.6,1.4,0.8
		l0-3.1l-0.1,0c-0.5-0.1-0.9,0-1.2,0.2S362,217.2,362,217.6z"/>
	<path class="st3" d="M365.9,210.9c-0.4-0.1-0.7,0.2-0.9,0.7l-0.3,1.1c-0.3,0.9-0.9,1.4-1.6,1.3c-0.6,0-1-0.3-1.4-0.8
		s-0.5-1-0.5-1.7c0-0.6,0.2-1.2,0.6-1.6s0.8-0.6,1.4-0.6l0,1.1c-0.3,0-0.6,0.1-0.8,0.3s-0.3,0.5-0.3,0.8c0,0.4,0.1,0.7,0.3,0.9
		c0.2,0.2,0.4,0.4,0.7,0.4c0.4,0.1,0.6-0.2,0.8-0.7l0.1-0.5c0.2-0.7,0.4-1.2,0.7-1.5s0.7-0.4,1.1-0.4c0.4,0,0.7,0.2,1,0.4
		s0.5,0.5,0.7,0.9s0.2,0.8,0.2,1.2c0,0.7-0.2,1.2-0.6,1.7s-0.9,0.6-1.5,0.6l0-1.1c0.4,0,0.6-0.1,0.9-0.3s0.3-0.5,0.3-0.9
		c0-0.4-0.1-0.7-0.2-1S366.2,210.9,365.9,210.9z"/>
</g>
<g>
	<path class="st3" d="M190.4,281.8v3.5l2.2,1.2v1.2l-8.5-4.6v-1l8.5-1.7v1.1L190.4,281.8z M189.5,284.8V282l-4,0.7L189.5,284.8z"/>
	<path class="st3" d="M191.9,276.6c0-0.4-0.1-0.7-0.3-1s-0.5-0.5-0.9-0.6l0-1c0.4,0.1,0.8,0.2,1.1,0.5s0.6,0.6,0.8,1
		s0.3,0.8,0.3,1.2c0,0.5-0.1,1-0.4,1.3s-0.6,0.6-1.1,0.8s-1,0.2-1.6,0.2l-0.3,0c-0.6-0.1-1.2-0.3-1.6-0.5s-0.9-0.6-1.1-1.1
		s-0.4-1-0.4-1.5c0-0.7,0.2-1.2,0.7-1.6s1-0.6,1.6-0.6l0,1c-0.4,0-0.7,0.1-1,0.3s-0.4,0.5-0.4,0.9c0,0.6,0.2,1,0.6,1.4
		s1,0.6,1.8,0.7l0.2,0c0.2,0,0.5,0,0.8,0c0.5,0,0.8-0.2,1.1-0.4S191.9,277,191.9,276.6z"/>
	<path class="st3" d="M184.8,270.4l1.5,0.3v-1.2l0.8,0.1v1.1l3.9,0.7c0.1,0,0.2,0,0.3,0c0.3,0,0.5-0.2,0.5-0.5c0-0.1,0-0.3-0.1-0.5
		l0.9,0.1c0.1,0.3,0.1,0.5,0.1,0.8c0,0.4-0.2,0.7-0.5,0.9s-0.7,0.3-1.2,0.2l-3.9-0.6v1.1l-0.8-0.1v-1.1l-1.5-0.3V270.4z"/>
	<path class="st3" d="M184,267.3c0-0.2,0-0.3,0.2-0.4s0.3-0.2,0.5-0.2c0.2,0,0.3,0.1,0.5,0.2s0.2,0.3,0.2,0.4s0,0.3-0.2,0.5
		s-0.3,0.2-0.4,0.2s-0.3-0.1-0.5-0.2S184,267.4,184,267.3z M192.7,268.1v1.1l-6.3-1.1V267L192.7,268.1z"/>
	<path class="st3" d="M191.4,265.6c0-0.2,0.1-0.3,0.2-0.5s0.3-0.2,0.5-0.2s0.3,0.1,0.5,0.2s0.2,0.3,0.2,0.5s0,0.3-0.2,0.5
		s-0.3,0.2-0.5,0.2s-0.4-0.1-0.5-0.2S191.5,265.8,191.4,265.6z"/>
	<path class="st3" d="M184,258.3c0-0.2,0-0.3,0.2-0.4s0.3-0.2,0.5-0.2c0.2,0,0.3,0.1,0.5,0.2s0.2,0.3,0.2,0.4s0,0.3-0.2,0.5
		s-0.3,0.2-0.4,0.2s-0.3-0.1-0.5-0.2S184,258.5,184,258.3z M192.7,259.2v1.1l-6.3-1.1v-1.1L192.7,259.2z"/>
	<path class="st3" d="M186.3,255.4l0.7,0.1c-0.6-0.5-0.8-1.2-0.8-1.9c0-0.4,0.1-0.7,0.3-1s0.4-0.5,0.7-0.6c-0.7-0.6-1-1.3-1-2.1
		c0-0.6,0.2-1.1,0.6-1.4s1-0.4,1.7-0.3l4.2,0.7v1.1l-4.2-0.7c-0.2,0-0.4,0-0.6,0c-0.5,0.1-0.8,0.4-0.8,1c0,0.4,0.1,0.7,0.4,1.1
		s0.6,0.5,1,0.6l4.2,0.7v1.1l-4.2-0.7c-0.4-0.1-0.8,0-1,0.2s-0.4,0.5-0.4,0.8c0,0.7,0.3,1.2,0.9,1.6l4.6,0.8v1.1l-6.3-1.1
		L186.3,255.4z"/>
	<path class="st3" d="M186.3,245.1l0.7,0.1c-0.6-0.5-0.8-1.2-0.8-1.9c0-0.4,0.1-0.7,0.3-1s0.4-0.5,0.7-0.6c-0.7-0.6-1-1.3-1-2.1
		c0-0.6,0.2-1.1,0.6-1.4s1-0.4,1.7-0.3l4.2,0.7v1.1l-4.2-0.7c-0.2,0-0.4,0-0.6,0c-0.5,0.1-0.8,0.4-0.8,1c0,0.4,0.1,0.7,0.4,1.1
		s0.6,0.5,1,0.6l4.2,0.7v1.1l-4.2-0.7c-0.4-0.1-0.8,0-1,0.2s-0.4,0.5-0.4,0.8c0,0.7,0.3,1.2,0.9,1.6l4.6,0.8v1.1l-6.3-1.1
		L186.3,245.1z"/>
	<path class="st3" d="M186.2,233.4c0-0.5,0.2-1,0.4-1.4s0.7-0.7,1.2-0.8s1-0.2,1.6-0.2l0.1,0c0.6,0.1,1.2,0.3,1.7,0.6
		s0.9,0.7,1.2,1.1s0.4,1,0.4,1.5c0,0.5-0.2,1-0.4,1.4s-0.7,0.7-1.1,0.8s-1,0.2-1.6,0.2c-0.7-0.1-1.2-0.2-1.8-0.5s-0.9-0.7-1.2-1.1
		S186.2,234,186.2,233.4z M189.6,235.6c0.2,0,0.5,0,0.8,0c0.5,0,0.8-0.2,1.1-0.4s0.4-0.6,0.4-0.9c0-0.4-0.1-0.7-0.3-1
		s-0.5-0.5-0.8-0.8s-0.8-0.3-1.2-0.4c-0.4,0-0.7,0-0.9,0c-0.5,0-0.8,0.2-1.1,0.4s-0.4,0.6-0.4,0.9c0,0.5,0.2,1,0.6,1.4
		s1,0.6,1.7,0.7L189.6,235.6z"/>
	<path class="st3" d="M189.5,224.5c0.6,0.1,1.2,0.3,1.8,0.5s0.9,0.6,1.2,1s0.4,0.8,0.4,1.3c0,0.8-0.3,1.3-0.9,1.7l0.7,0.2v1l-9-1.6
		v-1.1l3.4,0.6c-0.6-0.5-0.8-1.1-0.8-1.9c0-0.6,0.2-1.1,0.7-1.4s1-0.5,1.8-0.5c0.2,0,0.5,0,0.7,0L189.5,224.5z M188.9,225.5
		c-0.6,0-1,0.1-1.3,0.3s-0.5,0.5-0.5,0.9c0,0.7,0.3,1.2,1,1.7l2.8,0.5c0.6-0.2,1-0.7,1-1.3c0-0.4-0.1-0.8-0.4-1.1s-0.6-0.5-1.1-0.7
		S189.4,225.5,188.9,225.5z"/>
	<path class="st3" d="M184,221.6c0-0.2,0-0.3,0.2-0.4s0.3-0.2,0.5-0.2c0.2,0,0.3,0.1,0.5,0.2s0.2,0.3,0.2,0.4s0,0.3-0.2,0.5
		s-0.3,0.2-0.4,0.2s-0.3-0.1-0.5-0.2S184,221.8,184,221.6z M192.7,222.5v1.1l-6.3-1.1v-1.1L192.7,222.5z"/>
	<path class="st3" d="M192.7,219.6v1.1l-9-1.6V218L192.7,219.6z"/>
	<path class="st3" d="M184,215.8c0-0.2,0-0.3,0.2-0.4s0.3-0.2,0.5-0.2c0.2,0,0.3,0.1,0.5,0.2s0.2,0.3,0.2,0.4s0,0.3-0.2,0.5
		s-0.3,0.2-0.4,0.2s-0.3-0.1-0.5-0.2S184,216,184,215.8z M192.7,216.7v1.1l-6.3-1.1v-1.1L192.7,216.7z"/>
	<path class="st3" d="M185.4,210.8l0,0.8l-1.7,1.2v-1.2L185.4,210.8z M192.8,212.2c0,0.8-0.3,1.4-0.9,1.9s-1.3,0.6-2.2,0.6l-0.3,0
		c-0.6-0.1-1.2-0.3-1.7-0.6s-0.9-0.7-1.2-1.1s-0.4-0.9-0.4-1.4c0-0.7,0.2-1.2,0.7-1.5s1-0.6,1.7-0.6c0.3,0,0.5,0,0.8,0l0.5,0.1v4.1
		c0.6,0.1,1.1,0,1.5-0.3s0.6-0.6,0.6-1.2c0-0.6-0.3-1.2-0.8-1.7l0.5-0.6c0.4,0.3,0.7,0.6,0.9,1S192.8,211.7,192.8,212.2z
		 M187.1,211.6c0,0.4,0.1,0.8,0.4,1.1s0.8,0.6,1.4,0.8l0-3.1l-0.1,0c-0.5-0.1-0.9,0-1.2,0.2S187.1,211.1,187.1,211.6z"/>
	<path class="st3" d="M187.3,204.8l-0.1,0.5c0,0.7,0.3,1.2,0.9,1.6l4.5,0.8v1.1l-6.3-1.1l0-1l0.7,0.2c-0.6-0.4-0.9-1-0.9-1.6
		c0-0.1,0-0.3,0.1-0.5L187.3,204.8z"/>
	<path class="st3" d="M192.8,202c0,0.8-0.3,1.4-0.9,1.9s-1.3,0.6-2.2,0.6l-0.3,0c-0.6-0.1-1.2-0.3-1.7-0.6s-0.9-0.7-1.2-1.1
		s-0.4-0.9-0.4-1.4c0-0.7,0.2-1.2,0.7-1.5s1-0.6,1.7-0.6c0.3,0,0.5,0,0.8,0l0.5,0.1v4.1c0.6,0.1,1.1,0,1.5-0.3s0.6-0.6,0.6-1.2
		c0-0.6-0.3-1.2-0.8-1.7l0.5-0.6c0.4,0.3,0.7,0.6,0.9,1S192.8,201.5,192.8,202z M187.1,201.3c0,0.4,0.1,0.8,0.4,1.1s0.8,0.6,1.4,0.8
		l0-3.1l-0.1,0c-0.5-0.1-0.9,0-1.2,0.2S187.1,200.9,187.1,201.3z"/>
	<path class="st3" d="M191,194.6c-0.4-0.1-0.7,0.2-0.9,0.7l-0.3,1.1c-0.3,0.9-0.9,1.4-1.6,1.3c-0.6,0-1-0.3-1.4-0.8s-0.5-1-0.5-1.7
		c0-0.6,0.2-1.2,0.6-1.6s0.8-0.6,1.4-0.6l0,1.1c-0.3,0-0.6,0.1-0.8,0.3s-0.3,0.5-0.3,0.8c0,0.4,0.1,0.7,0.3,0.9
		c0.2,0.2,0.4,0.4,0.7,0.4c0.4,0.1,0.6-0.2,0.8-0.7l0.1-0.5c0.2-0.7,0.4-1.2,0.7-1.5s0.7-0.4,1.1-0.4c0.4,0,0.7,0.2,1,0.4
		s0.5,0.5,0.7,0.9s0.2,0.8,0.2,1.2c0,0.7-0.2,1.2-0.6,1.7s-0.9,0.6-1.5,0.6l0-1.1c0.4,0,0.6-0.1,0.9-0.3s0.3-0.5,0.3-0.9
		c0-0.4-0.1-0.7-0.2-1S191.3,194.7,191,194.6z"/>
</g>
<g>
	<path class="st3" d="M322.8,394.2c0,0.8-0.3,1.4-0.9,1.9s-1.3,0.6-2.2,0.6l-0.3,0c-0.6-0.1-1.2-0.3-1.7-0.6s-0.9-0.7-1.2-1.1
		s-0.4-0.9-0.4-1.4c0-0.7,0.2-1.2,0.7-1.5s1-0.6,1.7-0.6c0.3,0,0.5,0,0.8,0l0.5,0.1v4.1c0.6,0.1,1.1,0,1.5-0.3s0.6-0.6,0.6-1.2
		c0-0.6-0.3-1.2-0.8-1.7l0.5-0.6c0.4,0.3,0.7,0.6,0.9,1S322.8,393.7,322.8,394.2z M317.1,393.6c0,0.4,0.1,0.8,0.4,1.1
		s0.8,0.6,1.4,0.8l0-3.1l-0.1,0c-0.5-0.1-0.9,0-1.2,0.2S317.1,393.1,317.1,393.6z"/>
	<path class="st3" d="M314.8,387.9l1.5,0.3V387l0.8,0.1v1.1l3.9,0.7c0.1,0,0.2,0,0.3,0c0.3,0,0.5-0.2,0.5-0.5c0-0.1,0-0.3-0.1-0.5
		l0.9,0.1c0.1,0.3,0.1,0.5,0.1,0.8c0,0.4-0.2,0.7-0.5,0.9s-0.7,0.3-1.2,0.2l-3.9-0.6v1.1l-0.8-0.1v-1.1l-1.5-0.3V387.9z"/>
	<path class="st3" d="M319.5,383.6c-0.6-0.1-1.2-0.3-1.7-0.5s-0.9-0.6-1.2-1s-0.4-0.9-0.4-1.3c0-0.7,0.3-1.2,0.8-1.6l-3.3-0.6v-1.1
		l9,1.6v1l-0.7-0.1c0.5,0.5,0.8,1.1,0.8,1.9c0,0.6-0.2,1.1-0.7,1.4s-1,0.5-1.8,0.6C320.1,383.7,319.8,383.6,319.5,383.6z
		 M320.1,382.6c0.6,0,1-0.1,1.3-0.3s0.5-0.5,0.5-0.9c0-0.6-0.3-1.2-0.9-1.6l-2.9-0.5c-0.6,0.2-0.9,0.7-0.9,1.3
		c0,0.4,0.1,0.8,0.4,1.1s0.6,0.6,1.1,0.7C319.1,382.5,319.6,382.6,320.1,382.6z"/>
	<path class="st3" d="M314,375.3c0-0.2,0-0.3,0.2-0.4s0.3-0.2,0.5-0.2c0.2,0,0.3,0.1,0.5,0.2s0.2,0.3,0.2,0.4s0,0.3-0.2,0.5
		s-0.3,0.2-0.4,0.2s-0.3-0.1-0.5-0.2S314,375.5,314,375.3z M322.7,376.2v1.1l-6.3-1.1v-1.1L322.7,376.2z"/>
	<path class="st3" d="M322.7,373.9l-5.5-1v1l-0.8-0.1v-1l-0.8-0.1c-0.6-0.1-1.1-0.3-1.5-0.7c-0.4-0.4-0.6-0.9-0.6-1.6
		c0-0.2,0-0.5,0.1-0.8l0.9,0.1c0,0.2-0.1,0.4-0.1,0.6c0,0.4,0.1,0.7,0.3,0.9c0.2,0.2,0.5,0.4,0.9,0.4l0.6,0.1v-1.3l0.8,0.1v1.3
		l5.5,1V373.9z"/>
	<path class="st3" d="M322.7,369.8l-5.5-1v1l-0.8-0.1v-1l-0.8-0.1c-0.6-0.1-1.1-0.3-1.5-0.7c-0.4-0.4-0.6-0.9-0.6-1.6
		c0-0.2,0-0.5,0.1-0.8l0.9,0.1c0,0.2-0.1,0.4-0.1,0.6c0,0.4,0.1,0.7,0.3,0.9c0.2,0.2,0.5,0.4,0.9,0.4l0.6,0.1v-1.3l0.8,0.1v1.3
		l5.5,1V369.8z"/>
	<path class="st3" d="M322.1,362.2c0.5,0.5,0.8,1.1,0.7,1.9c0,0.6-0.2,1.1-0.7,1.3s-1,0.4-1.7,0.3l-4.1-0.7V364l4.1,0.7
		c0.2,0,0.3,0,0.5,0c0.3,0,0.5-0.1,0.7-0.3s0.2-0.4,0.3-0.6c0-0.8-0.3-1.3-0.9-1.8l-4.6-0.8v-1.1l6.3,1.1v1L322.1,362.2z"/>
	<path class="st3" d="M321,355.8c-0.4-0.1-0.7,0.2-0.9,0.7l-0.3,1.1c-0.3,0.9-0.9,1.4-1.6,1.3c-0.6,0-1-0.3-1.4-0.8s-0.5-1-0.5-1.7
		c0-0.6,0.2-1.2,0.6-1.6s0.8-0.6,1.4-0.6l0,1.1c-0.3,0-0.6,0.1-0.8,0.3s-0.3,0.5-0.3,0.8c0,0.4,0.1,0.7,0.3,0.9
		c0.2,0.2,0.4,0.4,0.7,0.4c0.4,0.1,0.6-0.2,0.8-0.7l0.1-0.5c0.2-0.7,0.4-1.2,0.7-1.5s0.7-0.4,1.1-0.4c0.4,0,0.7,0.2,1,0.4
		s0.5,0.5,0.7,0.9s0.2,0.8,0.2,1.2c0,0.7-0.2,1.2-0.6,1.7s-0.9,0.6-1.5,0.6l0-1.1c0.4,0,0.6-0.1,0.9-0.3s0.3-0.5,0.3-0.9
		c0-0.4-0.1-0.7-0.2-1S321.3,355.9,321,355.8z"/>
	<path class="st3" d="M314,351.6c0-0.2,0-0.3,0.2-0.4s0.3-0.2,0.5-0.2c0.2,0,0.3,0.1,0.5,0.2s0.2,0.3,0.2,0.4s0,0.3-0.2,0.5
		s-0.3,0.2-0.4,0.2s-0.3-0.1-0.5-0.2S314,351.8,314,351.6z M322.7,352.5v1.1l-6.3-1.1v-1.1L322.7,352.5z"/>
	<path class="st3" d="M316.2,347.3c0-0.5,0.2-1,0.4-1.4s0.7-0.7,1.2-0.8s1-0.2,1.6-0.2l0.1,0c0.6,0.1,1.2,0.3,1.7,0.6
		s0.9,0.7,1.2,1.1s0.4,1,0.4,1.5c0,0.5-0.2,1-0.4,1.4s-0.7,0.7-1.1,0.8s-1,0.2-1.6,0.2c-0.7-0.1-1.2-0.2-1.8-0.5s-0.9-0.7-1.2-1.1
		S316.2,347.8,316.2,347.3z M319.6,349.4c0.2,0,0.5,0,0.8,0c0.5,0,0.8-0.2,1.1-0.4s0.4-0.6,0.4-0.9c0-0.4-0.1-0.7-0.3-1
		s-0.5-0.5-0.8-0.8s-0.8-0.3-1.2-0.4c-0.4,0-0.7,0-0.9,0c-0.5,0-0.8,0.2-1.1,0.4s-0.4,0.6-0.4,0.9c0,0.5,0.2,1,0.6,1.4
		s1,0.6,1.7,0.7L319.6,349.4z"/>
	<path class="st3" d="M316.3,342l0.8,0.2c-0.6-0.6-0.9-1.2-0.9-1.9c0-0.6,0.2-1,0.6-1.3s1-0.4,1.7-0.3l4.2,0.7v1.1l-4.2-0.7
		c-0.2,0-0.4,0-0.5,0c-0.5,0.1-0.8,0.4-0.8,1c0,0.6,0.3,1.2,1,1.7l4.5,0.8v1.1l-6.3-1.1L316.3,342z"/>
</g>
<g>
	<path class="st3" d="M147.6,467.7c0,0.5-0.1,1-0.4,1.4c-0.2,0.4-0.6,0.7-1.1,1c-0.5,0.2-1,0.4-1.6,0.4c-0.5,0-1.1,0-1.8-0.1
		c-0.7-0.1-1.3-0.3-1.9-0.7s-1-0.7-1.3-1.1c-0.5-0.6-0.7-1.3-0.7-2.1c0-0.8,0.3-1.5,0.9-2c0.6-0.5,1.3-0.7,2.3-0.8
		c0.4,0,0.9,0,1.6,0.1c0.6,0.1,1.2,0.3,1.8,0.5c0.5,0.3,1,0.6,1.4,1C147.3,466,147.6,466.8,147.6,467.7z M142.2,464.8
		c-0.8,0-1.4,0.1-1.8,0.4s-0.6,0.7-0.7,1.3c0,0.5,0.1,1,0.4,1.4c0.3,0.4,0.7,0.7,1.3,1s1.3,0.4,2.2,0.5l0.4,0c0.8,0,1.4-0.1,1.8-0.4
		c0.4-0.3,0.7-0.7,0.7-1.3c0-0.7-0.3-1.3-0.8-1.8s-1.3-0.8-2.3-1C143,464.8,142.6,464.8,142.2,464.8z"/>
	<path class="st3" d="M142.1,459l-0.1,0.5c0,0.7,0.3,1.2,0.9,1.6l4.5,0.8l0,1.1l-6.3-1.1l0-1l0.7,0.2c-0.6-0.4-0.9-1-0.9-1.6
		c0-0.1,0-0.3,0.1-0.5L142.1,459z"/>
	<path class="st3" d="M144.3,458.7c-0.7-0.1-1.3-0.3-1.8-0.6c-0.5-0.3-0.9-0.6-1.1-1c-0.2-0.4-0.4-0.8-0.4-1.3
		c0-0.7,0.3-1.3,0.8-1.7l-0.7-0.2l0-1l6.2,1c0.8,0.1,1.5,0.4,1.9,1c0.5,0.5,0.7,1.2,0.7,2c0,0.4-0.1,0.8-0.3,1.2
		c-0.2,0.4-0.5,0.7-0.8,0.9l-0.7-0.6c0.6-0.4,0.9-0.9,0.9-1.5c0-0.5-0.1-0.9-0.4-1.3c-0.3-0.3-0.7-0.6-1.3-0.7l-0.6-0.1
		c0.5,0.5,0.8,1.1,0.8,1.8c0,0.4-0.1,0.7-0.3,1s-0.5,0.5-0.9,0.7c-0.4,0.2-0.8,0.3-1.3,0.3C144.9,458.7,144.6,458.7,144.3,458.7z
		 M144.9,457.7c0.6,0,1-0.1,1.3-0.3c0.3-0.2,0.5-0.5,0.5-0.9c0-0.6-0.3-1.2-0.9-1.6l-2.9-0.5c-0.6,0.2-0.9,0.7-0.9,1.3
		c0,0.6,0.2,1,0.7,1.4c0.5,0.4,1.1,0.6,2,0.6L144.9,457.7z"/>
	<path class="st3" d="M147.4,448.5c-0.1,0-0.2,0-0.3,0l-0.3,0c0.5,0.6,0.8,1.2,0.8,1.8c0,0.6-0.2,1-0.5,1.4
		c-0.3,0.4-0.8,0.5-1.3,0.5c-0.7,0-1.2-0.3-1.6-0.9s-0.6-1.3-0.6-2.2l0-1.1L143,448c-0.4,0-0.7,0-0.9,0.2s-0.3,0.5-0.3,0.8
		c0,0.4,0.1,0.7,0.3,1s0.4,0.4,0.7,0.5l0,1.1c-0.4,0-0.7-0.2-1-0.4c-0.3-0.3-0.5-0.6-0.7-1c-0.2-0.4-0.2-0.8-0.2-1.2
		c0-0.7,0.2-1.2,0.6-1.5s0.9-0.5,1.5-0.5l3.1,0.5l0.5,0c0.2,0,0.4,0,0.6-0.1l0.1,0L147.4,448.5z M146.6,450.2c0-0.3-0.1-0.7-0.2-1
		s-0.4-0.6-0.7-0.8l-1.3-0.2l0,0.8c0,0.7,0.1,1.2,0.3,1.5c0.2,0.4,0.5,0.6,0.9,0.6c0.3,0,0.5,0,0.7-0.2S146.6,450.5,146.6,450.2z"/>
	<path class="st3" d="M141,443.9l0.8,0.1c-0.6-0.6-0.9-1.2-0.9-1.9c0-0.6,0.2-1,0.6-1.3s1-0.4,1.7-0.3l4.2,0.7l0,1.1l-4.2-0.7
		c-0.2,0-0.4,0-0.5,0c-0.5,0.1-0.8,0.4-0.8,1c0,0.6,0.3,1.2,1,1.7l4.5,0.8l0,1.1l-6.3-1.1L141,443.9z"/>
	<path class="st3" d="M138.7,437.5c0-0.2,0-0.3,0.2-0.4c0.1-0.1,0.3-0.2,0.5-0.2c0.2,0,0.3,0.1,0.5,0.2c0.1,0.1,0.2,0.3,0.2,0.4
		c0,0.2,0,0.3-0.2,0.5c-0.1,0.1-0.3,0.2-0.4,0.2s-0.3-0.1-0.5-0.2S138.7,437.7,138.7,437.5z M147.3,438.3l0,1.1l-6.3-1.1l0-1.1
		L147.3,438.3z"/>
	<path class="st3" d="M145.6,432.7c-0.4-0.1-0.7,0.2-0.9,0.7l-0.3,1.1c-0.3,0.9-0.8,1.4-1.6,1.4c-0.6,0-1-0.3-1.4-0.8
		c-0.4-0.5-0.5-1-0.5-1.7c0-0.6,0.2-1.2,0.6-1.6s0.8-0.6,1.4-0.6l0,1.1c-0.3,0-0.6,0.1-0.8,0.3s-0.3,0.5-0.3,0.8
		c0,0.4,0.1,0.7,0.3,0.9c0.2,0.2,0.4,0.4,0.7,0.4c0.4,0,0.6-0.2,0.8-0.7l0.1-0.5c0.2-0.7,0.4-1.2,0.7-1.6c0.3-0.3,0.7-0.4,1.1-0.4
		c0.4,0,0.7,0.1,1,0.4c0.3,0.2,0.5,0.5,0.7,0.9c0.2,0.4,0.2,0.8,0.2,1.2c0,0.7-0.2,1.2-0.6,1.7c-0.4,0.4-0.9,0.7-1.5,0.6l0-1.1
		c0.4,0,0.6-0.1,0.9-0.3c0.2-0.2,0.3-0.5,0.3-0.9c0-0.4-0.1-0.7-0.2-1S145.9,432.7,145.6,432.7z"/>
	<path class="st3" d="M147.3,426.7c-0.1,0-0.2,0-0.3,0l-0.3,0c0.5,0.6,0.8,1.2,0.8,1.8c0,0.6-0.2,1-0.5,1.4
		c-0.3,0.4-0.8,0.5-1.3,0.5c-0.7,0-1.2-0.3-1.6-0.9s-0.6-1.3-0.6-2.2l0-1.1l-0.5-0.1c-0.4,0-0.7,0-0.9,0.2s-0.3,0.5-0.3,0.8
		c0,0.4,0.1,0.7,0.3,1s0.4,0.4,0.7,0.5l0,1.1c-0.4,0-0.7-0.2-1-0.4c-0.3-0.3-0.5-0.6-0.7-1c-0.2-0.4-0.2-0.8-0.2-1.2
		c0-0.7,0.2-1.2,0.6-1.5s0.9-0.5,1.5-0.5l3.1,0.5l0.5,0c0.2,0,0.4,0,0.6-0.1l0.1,0L147.3,426.7z M146.5,428.4c0-0.3-0.1-0.7-0.2-1
		s-0.4-0.6-0.7-0.8l-1.3-0.2l0,0.8c0,0.7,0.1,1.2,0.3,1.5c0.2,0.4,0.5,0.6,0.9,0.6c0.3,0,0.5,0,0.7-0.2S146.5,428.7,146.5,428.4z"/>
	<path class="st3" d="M139.4,421.4l1.5,0.3l0-1.2l0.8,0.1l0,1.1l3.9,0.6c0.1,0,0.2,0,0.3,0c0.3,0,0.5-0.2,0.5-0.5
		c0-0.1,0-0.3-0.1-0.5l0.9,0.1c0.1,0.3,0.1,0.5,0.1,0.8c0,0.4-0.2,0.7-0.5,1c-0.3,0.2-0.7,0.3-1.2,0.3l-3.9-0.6l0,1.1l-0.8-0.1
		l0-1.1l-1.5-0.3L139.4,421.4z"/>
	<path class="st3" d="M138.6,418.3c0-0.2,0-0.3,0.2-0.4c0.1-0.1,0.3-0.2,0.5-0.2c0.2,0,0.3,0.1,0.5,0.2c0.1,0.1,0.2,0.3,0.2,0.4
		c0,0.2,0,0.3-0.2,0.5c-0.1,0.1-0.3,0.2-0.4,0.2s-0.3-0.1-0.5-0.2S138.6,418.5,138.6,418.3z M147.2,419.1l0,1.1l-6.3-1.1l0-1.1
		L147.2,419.1z"/>
	<path class="st3" d="M140.8,413.9c0-0.5,0.1-1,0.4-1.4c0.3-0.4,0.7-0.7,1.2-0.8c0.5-0.2,1-0.2,1.6-0.2l0.1,0
		c0.6,0.1,1.2,0.3,1.7,0.5c0.5,0.3,0.9,0.7,1.2,1.1c0.3,0.5,0.4,1,0.4,1.5c0,0.5-0.1,1-0.4,1.4c-0.3,0.4-0.7,0.7-1.1,0.8
		c-0.5,0.2-1,0.2-1.6,0.2c-0.7-0.1-1.2-0.2-1.8-0.5s-0.9-0.7-1.2-1.1C140.9,415,140.8,414.5,140.8,413.9z M144.2,416.1
		c0.2,0,0.5,0,0.8,0c0.5,0,0.8-0.2,1.1-0.4c0.3-0.2,0.4-0.6,0.4-0.9c0-0.4-0.1-0.7-0.3-1s-0.5-0.5-0.8-0.7c-0.4-0.2-0.8-0.3-1.2-0.4
		c-0.4,0-0.7,0-0.9,0c-0.5,0-0.8,0.2-1.1,0.4c-0.3,0.2-0.4,0.6-0.4,1c0,0.5,0.2,1,0.7,1.4c0.4,0.4,1,0.6,1.7,0.7L144.2,416.1z"/>
	<path class="st3" d="M140.9,408.6l0.8,0.1c-0.6-0.6-0.9-1.2-0.9-1.9c0-0.6,0.2-1,0.6-1.3s1-0.4,1.7-0.3l4.2,0.7l0,1.1l-4.2-0.7
		c-0.2,0-0.4,0-0.5,0c-0.5,0.1-0.8,0.4-0.8,1c0,0.6,0.3,1.2,1,1.7l4.5,0.8l0,1.1l-6.3-1.1L140.9,408.6z"/>
	<path class="st3" d="M145.4,400.3c-0.4-0.1-0.7,0.2-0.9,0.7l-0.3,1.1c-0.3,0.9-0.8,1.4-1.6,1.4c-0.6,0-1-0.3-1.4-0.8
		c-0.4-0.5-0.5-1-0.5-1.7c0-0.6,0.2-1.2,0.6-1.6c0.4-0.4,0.8-0.6,1.4-0.6l0,1.1c-0.3,0-0.6,0.1-0.8,0.3s-0.3,0.5-0.3,0.8
		c0,0.4,0.1,0.7,0.3,0.9c0.2,0.2,0.4,0.4,0.7,0.4c0.4,0,0.6-0.2,0.8-0.7l0.1-0.5c0.2-0.7,0.4-1.2,0.7-1.5c0.3-0.3,0.7-0.4,1.1-0.4
		c0.4,0,0.7,0.1,1,0.4c0.3,0.2,0.5,0.5,0.7,0.9s0.2,0.8,0.2,1.2c0,0.7-0.2,1.2-0.6,1.7s-0.9,0.7-1.5,0.6l0-1.1
		c0.4,0,0.6-0.1,0.9-0.3c0.2-0.2,0.3-0.5,0.3-0.9c0-0.4-0.1-0.7-0.2-1S145.7,400.3,145.4,400.3z"/>
	<path class="st3" d="M147.1,391.3c-0.1,0-0.2,0-0.3,0l-0.3,0c0.5,0.6,0.8,1.2,0.8,1.8c0,0.6-0.2,1-0.5,1.4
		c-0.3,0.4-0.8,0.5-1.3,0.5c-0.7,0-1.2-0.3-1.6-0.9c-0.4-0.5-0.6-1.3-0.6-2.2l0-1.1l-0.5-0.1c-0.4,0-0.7,0-0.9,0.2s-0.3,0.5-0.3,0.8
		c0,0.4,0.1,0.7,0.3,1s0.4,0.4,0.7,0.5l0,1.1c-0.4,0-0.7-0.2-1-0.4c-0.3-0.3-0.5-0.6-0.7-1c-0.2-0.4-0.2-0.8-0.2-1.2
		c0-0.7,0.2-1.2,0.6-1.5s0.9-0.5,1.5-0.5l3.1,0.5l0.5,0c0.2,0,0.4,0,0.6-0.1l0.1,0L147.1,391.3z M146.3,393c0-0.3-0.1-0.7-0.2-1
		c-0.2-0.3-0.4-0.6-0.7-0.8L144,391l0,0.8c0,0.7,0.1,1.2,0.3,1.5c0.2,0.4,0.5,0.6,0.9,0.6c0.3,0,0.5,0,0.7-0.2
		S146.3,393.3,146.3,393z"/>
	<path class="st3" d="M145.4,384.9c-0.4-0.1-0.7,0.2-0.9,0.7l-0.3,1.1c-0.3,0.9-0.8,1.4-1.6,1.4c-0.6,0-1-0.3-1.4-0.8
		c-0.4-0.5-0.5-1-0.5-1.7c0-0.6,0.2-1.2,0.6-1.6c0.4-0.4,0.8-0.6,1.4-0.6l0,1.1c-0.3,0-0.6,0.1-0.8,0.3s-0.3,0.5-0.3,0.8
		c0,0.4,0.1,0.7,0.3,0.9c0.2,0.2,0.4,0.4,0.7,0.4c0.4,0,0.6-0.2,0.8-0.7l0.1-0.5c0.2-0.7,0.4-1.2,0.7-1.5c0.3-0.3,0.7-0.4,1.1-0.4
		c0.4,0,0.7,0.1,1,0.4c0.3,0.2,0.5,0.5,0.7,0.9s0.2,0.8,0.2,1.2c0,0.7-0.2,1.2-0.6,1.7s-0.9,0.7-1.5,0.6l0-1.1
		c0.4,0,0.6-0.1,0.9-0.3c0.2-0.2,0.3-0.5,0.3-0.9c0-0.4-0.1-0.7-0.2-1S145.7,385,145.4,384.9z"/>
	<path class="st3" d="M145.3,378.9c-0.4-0.1-0.7,0.2-0.9,0.7l-0.3,1.1c-0.3,0.9-0.8,1.4-1.6,1.4c-0.6,0-1-0.3-1.4-0.8
		c-0.4-0.5-0.5-1-0.5-1.7c0-0.6,0.2-1.2,0.6-1.6c0.4-0.4,0.8-0.6,1.4-0.6l0,1.1c-0.3,0-0.6,0.1-0.8,0.3s-0.3,0.5-0.3,0.8
		c0,0.4,0.1,0.7,0.3,0.9c0.2,0.2,0.4,0.4,0.7,0.4c0.4,0,0.6-0.2,0.8-0.7l0.1-0.5c0.2-0.7,0.4-1.2,0.7-1.5c0.3-0.3,0.7-0.4,1.1-0.4
		c0.4,0,0.7,0.1,1,0.4c0.3,0.2,0.5,0.5,0.7,0.9s0.2,0.8,0.2,1.2c0,0.7-0.2,1.2-0.6,1.7s-0.9,0.7-1.5,0.6l0-1.1
		c0.4,0,0.6-0.1,0.9-0.3c0.2-0.2,0.3-0.5,0.3-0.9c0-0.4-0.1-0.7-0.2-1S145.6,378.9,145.3,378.9z"/>
	<path class="st3" d="M140.6,373.2c0-0.5,0.1-1,0.4-1.4c0.3-0.4,0.7-0.7,1.2-0.8c0.5-0.2,1-0.2,1.6-0.2l0.1,0
		c0.6,0.1,1.2,0.3,1.7,0.5c0.5,0.3,0.9,0.7,1.2,1.1c0.3,0.5,0.4,1,0.4,1.5c0,0.5-0.1,1-0.4,1.4c-0.3,0.4-0.7,0.7-1.1,0.8
		c-0.5,0.2-1,0.2-1.6,0.2c-0.7-0.1-1.2-0.2-1.8-0.5c-0.5-0.3-0.9-0.7-1.2-1.1C140.7,374.3,140.6,373.8,140.6,373.2z M144,375.4
		c0.2,0,0.5,0,0.8,0c0.5,0,0.8-0.2,1.1-0.4c0.3-0.2,0.4-0.6,0.4-0.9c0-0.4-0.1-0.7-0.3-1s-0.5-0.5-0.8-0.7c-0.4-0.2-0.8-0.3-1.2-0.4
		c-0.4,0-0.7,0-0.9,0c-0.5,0-0.8,0.2-1.1,0.4c-0.3,0.2-0.4,0.6-0.4,1c0,0.5,0.2,1,0.7,1.4s1,0.6,1.7,0.7L144,375.4z"/>
	<path class="st3" d="M146.2,367.3c0-0.4-0.1-0.7-0.3-1s-0.5-0.5-0.9-0.6l0-1c0.4,0.1,0.8,0.2,1.1,0.5c0.3,0.3,0.6,0.6,0.8,1
		s0.3,0.8,0.3,1.2c0,0.5-0.1,1-0.4,1.3c-0.3,0.4-0.6,0.6-1.1,0.8c-0.5,0.2-1,0.2-1.6,0.2l-0.3,0c-0.6-0.1-1.2-0.2-1.6-0.5
		c-0.5-0.3-0.9-0.6-1.1-1.1c-0.3-0.5-0.4-1-0.4-1.5c0-0.7,0.2-1.2,0.7-1.6s1-0.6,1.6-0.6l0,1c-0.4,0-0.7,0.1-1,0.4
		c-0.3,0.2-0.4,0.5-0.4,0.9c0,0.6,0.2,1,0.6,1.4s1,0.6,1.8,0.7l0.2,0c0.2,0,0.5,0,0.8,0c0.5,0,0.8-0.2,1.1-0.4
		S146.2,367.7,146.2,367.3z"/>
	<path class="st3" d="M138.3,361.9c0-0.2,0-0.3,0.2-0.4c0.1-0.1,0.3-0.2,0.5-0.2c0.2,0,0.3,0.1,0.5,0.2c0.1,0.1,0.2,0.3,0.2,0.4
		c0,0.2,0,0.3-0.2,0.5c-0.1,0.1-0.3,0.2-0.4,0.2s-0.3-0.1-0.5-0.2C138.4,362.2,138.3,362.1,138.3,361.9z M147,362.7l0,1.1l-6.3-1.1
		l0-1.1L147,362.7z"/>
	<path class="st3" d="M146.9,357.1c-0.1,0-0.2,0-0.3,0l-0.3,0c0.5,0.6,0.8,1.2,0.8,1.8c0,0.6-0.2,1-0.5,1.4
		c-0.3,0.4-0.8,0.5-1.3,0.5c-0.7,0-1.2-0.3-1.6-0.9s-0.6-1.3-0.6-2.2l0-1.1l-0.5-0.1c-0.4,0-0.7,0-0.9,0.2s-0.3,0.5-0.3,0.8
		c0,0.4,0.1,0.7,0.3,1s0.4,0.4,0.7,0.5l0,1.1c-0.4,0-0.7-0.2-1-0.4c-0.3-0.3-0.5-0.6-0.7-1c-0.2-0.4-0.2-0.8-0.2-1.2
		c0-0.7,0.2-1.2,0.6-1.5s0.9-0.5,1.5-0.5l3.1,0.5l0.5,0c0.2,0,0.4,0,0.6-0.1l0.1,0L146.9,357.1z M146.1,358.8c0-0.3-0.1-0.7-0.2-1
		s-0.4-0.6-0.7-0.8l-1.3-0.2l0,0.8c0,0.7,0.1,1.2,0.3,1.5c0.2,0.4,0.5,0.6,0.9,0.6c0.3,0,0.5,0,0.7-0.2S146.1,359.1,146.1,358.8z"/>
	<path class="st3" d="M139,351.8l1.5,0.3l0-1.2l0.8,0.1l0,1.1l3.9,0.6c0.1,0,0.2,0,0.3,0c0.3,0,0.5-0.2,0.5-0.5c0-0.1,0-0.3-0.1-0.5
		l0.9,0.1c0.1,0.3,0.1,0.5,0.1,0.8c0,0.4-0.2,0.7-0.5,1c-0.3,0.2-0.7,0.3-1.2,0.3l-3.9-0.6l0,1.1l-0.8-0.1l0-1.1l-1.5-0.3L139,351.8
		z"/>
	<path class="st3" d="M138.3,348.7c0-0.2,0-0.3,0.2-0.4c0.1-0.1,0.3-0.2,0.5-0.2c0.2,0,0.3,0.1,0.5,0.2c0.1,0.1,0.2,0.3,0.2,0.4
		c0,0.2,0,0.3-0.2,0.5c-0.1,0.1-0.3,0.2-0.4,0.2s-0.3-0.1-0.5-0.2C138.3,349.1,138.3,348.9,138.3,348.7z M146.9,349.6l0,1.1
		l-6.3-1.1l0-1.1L146.9,349.6z"/>
	<path class="st3" d="M145.4,345.5l-4.9-2.3l0-1.1l6.4,3.2l0,0.8l-6.3,1.3l0-1L145.4,345.5z"/>
	<path class="st3" d="M147,339.4c0,0.8-0.3,1.4-0.9,1.9c-0.6,0.4-1.3,0.6-2.2,0.6l-0.3,0c-0.6-0.1-1.2-0.2-1.7-0.6s-0.9-0.7-1.2-1.1
		c-0.3-0.4-0.4-0.9-0.4-1.4c0-0.7,0.2-1.2,0.6-1.5c0.4-0.4,1-0.6,1.7-0.6c0.3,0,0.5,0,0.8,0l0.5,0.1l0,4.1c0.6,0.1,1.1,0,1.5-0.3
		c0.4-0.3,0.6-0.7,0.6-1.2c0-0.6-0.3-1.2-0.9-1.7l0.5-0.6c0.4,0.3,0.7,0.6,0.9,1S147,338.9,147,339.4z M141.3,338.8
		c0,0.4,0.1,0.8,0.5,1.1c0.3,0.3,0.8,0.6,1.4,0.8l0-3.1l-0.1,0c-0.5-0.1-0.9,0-1.2,0.2C141.5,338,141.3,338.3,141.3,338.8z"/>
	<path class="st3" d="M145.1,332c-0.4-0.1-0.7,0.2-0.9,0.7l-0.3,1.1c-0.3,0.9-0.8,1.4-1.6,1.4c-0.6,0-1-0.3-1.4-0.8
		c-0.4-0.5-0.5-1-0.5-1.7c0-0.6,0.2-1.2,0.6-1.6s0.8-0.6,1.4-0.6l0,1.1c-0.3,0-0.6,0.1-0.8,0.3s-0.3,0.5-0.3,0.8
		c0,0.4,0.1,0.7,0.3,0.9c0.2,0.2,0.4,0.4,0.7,0.4c0.4,0,0.6-0.2,0.8-0.7l0.1-0.5c0.2-0.7,0.4-1.2,0.7-1.6c0.3-0.3,0.7-0.4,1.1-0.4
		c0.4,0,0.7,0.1,1,0.4c0.3,0.2,0.5,0.5,0.7,0.9c0.2,0.4,0.2,0.8,0.2,1.2c0,0.7-0.2,1.2-0.6,1.7s-0.9,0.7-1.5,0.6l0-1.1
		c0.4,0,0.6-0.1,0.9-0.3c0.2-0.2,0.3-0.5,0.3-0.9c0-0.4-0.1-0.7-0.2-1S145.4,332,145.1,332z"/>
</g>
<g>
	<path class="st3" d="M391.2,390.1v2l3.4,0.6v1.1l-8.5-1.5l0-2.6c0-0.9,0.2-1.6,0.7-2c0.5-0.5,1.1-0.7,1.8-0.6c0.5,0,1,0.2,1.4,0.6
		c0.4,0.3,0.7,0.8,0.9,1.4l3.6-1.3l0.1,0v1.2L391.2,390.1z M390.3,391.9l0-1.6c0-0.6-0.1-1-0.4-1.4s-0.7-0.6-1.2-0.7
		c-0.5-0.1-0.9,0-1.1,0.3s-0.4,0.6-0.4,1.2l0,1.7L390.3,391.9z"/>
	<path class="st3" d="M394.8,384c0,0.8-0.3,1.4-0.9,1.9s-1.3,0.6-2.2,0.6l-0.3,0c-0.6-0.1-1.2-0.3-1.7-0.6s-0.9-0.7-1.2-1.1
		s-0.4-0.9-0.4-1.4c0-0.7,0.2-1.2,0.7-1.5s1-0.6,1.7-0.6c0.3,0,0.5,0,0.8,0l0.5,0.1v4.1c0.6,0.1,1.1,0,1.5-0.3s0.6-0.6,0.6-1.2
		c0-0.6-0.3-1.2-0.8-1.7l0.5-0.6c0.4,0.3,0.7,0.6,0.9,1S394.8,383.5,394.8,384z M389.1,383.3c0,0.4,0.1,0.8,0.4,1.1s0.8,0.6,1.4,0.8
		l0-3.1l-0.1,0c-0.5-0.1-0.9,0-1.2,0.2S389.1,382.9,389.1,383.3z"/>
	<path class="st3" d="M393,376.6c-0.4-0.1-0.7,0.2-0.9,0.7l-0.3,1.1c-0.3,0.9-0.9,1.4-1.6,1.3c-0.6,0-1-0.3-1.4-0.8s-0.5-1-0.5-1.7
		c0-0.6,0.2-1.2,0.6-1.6s0.8-0.6,1.4-0.6l0,1.1c-0.3,0-0.6,0.1-0.8,0.3s-0.3,0.5-0.3,0.8c0,0.4,0.1,0.7,0.3,0.9
		c0.2,0.2,0.4,0.4,0.7,0.4c0.4,0.1,0.6-0.2,0.8-0.7l0.1-0.5c0.2-0.7,0.4-1.2,0.7-1.5s0.7-0.4,1.1-0.4c0.4,0,0.7,0.2,1,0.4
		s0.5,0.5,0.7,0.9s0.2,0.8,0.2,1.2c0,0.7-0.2,1.2-0.6,1.7s-0.9,0.6-1.5,0.6l0-1.1c0.4,0,0.6-0.1,0.9-0.3s0.3-0.5,0.3-0.9
		c0-0.4-0.1-0.7-0.2-1S393.3,376.6,393,376.6z"/>
	<path class="st3" d="M386.8,371.6l1.5,0.3v-1.2l0.8,0.1v1.1l3.9,0.7c0.1,0,0.2,0,0.3,0c0.3,0,0.5-0.2,0.5-0.5c0-0.1,0-0.3-0.1-0.5
		l0.9,0.1c0.1,0.3,0.1,0.5,0.1,0.8c0,0.4-0.2,0.7-0.5,0.9s-0.7,0.3-1.2,0.2l-3.9-0.6v1.1l-0.8-0.1V373l-1.5-0.3V371.6z"/>
	<path class="st3" d="M394.7,366.7c-0.1,0-0.2,0-0.3,0l-0.3,0c0.5,0.6,0.8,1.2,0.8,1.9c0,0.6-0.2,1-0.5,1.4s-0.8,0.5-1.3,0.5
		c-0.7,0-1.2-0.3-1.6-0.9s-0.6-1.3-0.6-2.2l0-1.1l-0.5-0.1c-0.4,0-0.7,0-0.9,0.2s-0.3,0.5-0.3,0.8c0,0.4,0.1,0.7,0.3,1
		s0.4,0.5,0.7,0.5l0,1.1c-0.4,0-0.7-0.2-1-0.4s-0.5-0.6-0.7-1s-0.2-0.8-0.2-1.2c0-0.7,0.2-1.2,0.6-1.5s0.9-0.5,1.5-0.5l3.1,0.5
		l0.5,0c0.2,0,0.4,0,0.6-0.1l0.1,0V366.7z M393.9,368.4c0-0.3-0.1-0.7-0.2-1s-0.4-0.6-0.7-0.8l-1.3-0.2l0,0.8c0,0.7,0.1,1.2,0.3,1.5
		s0.5,0.6,0.9,0.6c0.3,0,0.5,0,0.7-0.2S393.8,368.7,393.9,368.4z"/>
	<path class="st3" d="M394,360.2c0.5,0.5,0.8,1.1,0.7,1.9c0,0.6-0.2,1.1-0.7,1.3s-1,0.4-1.7,0.3l-4.1-0.7V362l4.1,0.7
		c0.2,0,0.3,0,0.5,0c0.3,0,0.5-0.1,0.7-0.3s0.2-0.4,0.3-0.6c0-0.8-0.3-1.3-0.9-1.8l-4.6-0.8v-1.1l6.3,1.1v1L394,360.2z"/>
	<path class="st3" d="M389.3,353.8l-0.1,0.5c0,0.7,0.3,1.2,0.9,1.6l4.5,0.8v1.1l-6.3-1.1l0-1l0.7,0.2c-0.6-0.4-0.9-1-0.9-1.6
		c0-0.1,0-0.3,0.1-0.5L389.3,353.8z"/>
	<path class="st3" d="M394.7,350.1c-0.1,0-0.2,0-0.3,0l-0.3,0c0.5,0.6,0.8,1.2,0.8,1.9c0,0.6-0.2,1-0.5,1.4s-0.8,0.5-1.3,0.5
		c-0.7,0-1.2-0.3-1.6-0.9s-0.6-1.3-0.6-2.2l0-1.1l-0.5-0.1c-0.4,0-0.7,0-0.9,0.2s-0.3,0.5-0.3,0.8c0,0.4,0.1,0.7,0.3,1
		s0.4,0.5,0.7,0.5l0,1.1c-0.4,0-0.7-0.2-1-0.4s-0.5-0.6-0.7-1s-0.2-0.8-0.2-1.2c0-0.7,0.2-1.2,0.6-1.5s0.9-0.5,1.5-0.5l3.1,0.5
		l0.5,0c0.2,0,0.4,0,0.6-0.1l0.1,0V350.1z M393.9,351.7c0-0.3-0.1-0.7-0.2-1s-0.4-0.6-0.7-0.8l-1.3-0.2l0,0.8c0,0.7,0.1,1.2,0.3,1.5
		s0.5,0.6,0.9,0.6c0.3,0,0.5,0,0.7-0.2S393.8,352.1,393.9,351.7z"/>
	<path class="st3" d="M386.8,344.7l1.5,0.3v-1.2l0.8,0.1v1.1l3.9,0.7c0.1,0,0.2,0,0.3,0c0.3,0,0.5-0.2,0.5-0.5c0-0.1,0-0.3-0.1-0.5
		l0.9,0.1c0.1,0.3,0.1,0.5,0.1,0.8c0,0.4-0.2,0.7-0.5,0.9s-0.7,0.3-1.2,0.2l-3.9-0.6v1.1l-0.8-0.1v-1.1l-1.5-0.3V344.7z"/>
	<path class="st3" d="M386,341.7c0-0.2,0-0.3,0.2-0.4s0.3-0.2,0.5-0.2c0.2,0,0.3,0.1,0.5,0.2s0.2,0.3,0.2,0.4s0,0.3-0.2,0.5
		s-0.3,0.2-0.4,0.2s-0.3-0.1-0.5-0.2S386,341.9,386,341.7z M394.7,342.5v1.1l-6.3-1.1v-1.1L394.7,342.5z"/>
	<path class="st3" d="M388.2,337.3c0-0.5,0.2-1,0.4-1.4s0.7-0.7,1.2-0.8s1-0.2,1.6-0.2l0.1,0c0.6,0.1,1.2,0.3,1.7,0.6
		s0.9,0.7,1.2,1.1s0.4,1,0.4,1.5c0,0.5-0.2,1-0.4,1.4s-0.7,0.7-1.1,0.8s-1,0.2-1.6,0.2c-0.7-0.1-1.2-0.2-1.8-0.5s-0.9-0.7-1.2-1.1
		S388.2,337.9,388.2,337.3z M391.6,339.4c0.2,0,0.5,0,0.8,0c0.5,0,0.8-0.2,1.1-0.4s0.4-0.6,0.4-0.9c0-0.4-0.1-0.7-0.3-1
		s-0.5-0.5-0.8-0.8s-0.8-0.3-1.2-0.4c-0.4,0-0.7,0-0.9,0c-0.5,0-0.8,0.2-1.1,0.4s-0.4,0.6-0.4,0.9c0,0.5,0.2,1,0.6,1.4
		s1,0.6,1.7,0.7L391.6,339.4z"/>
	<path class="st3" d="M388.3,332l0.8,0.2c-0.6-0.6-0.9-1.2-0.9-1.9c0-0.6,0.2-1,0.6-1.3s1-0.4,1.7-0.3l4.2,0.7v1.1l-4.2-0.7
		c-0.2,0-0.4,0-0.5,0c-0.5,0.1-0.8,0.4-0.8,1c0,0.6,0.3,1.2,1,1.7l4.5,0.8v1.1l-6.3-1.1L388.3,332z"/>
</g>
<polygon class="st1" points="267.7,473.2 267.7,388.2 282.7,376.2 283.7,459.7 "/>
<polygon class="st0" points="267.7,472.7 253.7,466.7 252.7,382.7 267.7,386.7 "/>
<polygon class="st2" points="267.4,372.7 282.2,376.7 267.7,388.2 252.7,382.7 "/>
<g>
	<path class="st3" d="M190.4,281.9v3.5l2.2,1.2v1.2l-8.5-4.6v-1l8.5-1.7v1.1L190.4,281.9z M189.5,284.9v-2.8l-4,0.7L189.5,284.9z"/>
	<path class="st3" d="M191.9,276.7c0-0.4-0.1-0.7-0.3-1s-0.5-0.5-0.9-0.6l0-1c0.4,0.1,0.8,0.2,1.1,0.5s0.6,0.6,0.8,1
		s0.3,0.8,0.3,1.2c0,0.5-0.1,1-0.4,1.3s-0.6,0.6-1.1,0.8s-1,0.2-1.6,0.2l-0.3,0c-0.6-0.1-1.2-0.3-1.6-0.5s-0.9-0.6-1.1-1.1
		s-0.4-1-0.4-1.5c0-0.7,0.2-1.2,0.7-1.6s1-0.6,1.6-0.6l0,1c-0.4,0-0.7,0.1-1,0.3s-0.4,0.5-0.4,0.9c0,0.6,0.2,1,0.6,1.4
		s1,0.6,1.8,0.7l0.2,0c0.2,0,0.5,0,0.8,0c0.5,0,0.8-0.2,1.1-0.4S191.9,277.1,191.9,276.7z"/>
	<path class="st3" d="M184.8,270.4l1.5,0.3v-1.2l0.8,0.1v1.1l3.9,0.7c0.1,0,0.2,0,0.3,0c0.3,0,0.5-0.2,0.5-0.5c0-0.1,0-0.3-0.1-0.5
		l0.9,0.1c0.1,0.3,0.1,0.5,0.1,0.8c0,0.4-0.2,0.7-0.5,0.9s-0.7,0.3-1.2,0.2l-3.9-0.6v1.1l-0.8-0.1v-1.1l-1.5-0.3V270.4z"/>
	<path class="st3" d="M184,267.3c0-0.2,0-0.3,0.2-0.4s0.3-0.2,0.5-0.2c0.2,0,0.3,0.1,0.5,0.2s0.2,0.3,0.2,0.4s0,0.3-0.2,0.5
		s-0.3,0.2-0.4,0.2s-0.3-0.1-0.5-0.2S184,267.5,184,267.3z M192.7,268.2v1.1l-6.3-1.1v-1.1L192.7,268.2z"/>
	<path class="st3" d="M191.4,265.7c0-0.2,0.1-0.3,0.2-0.5s0.3-0.2,0.5-0.2s0.3,0.1,0.5,0.2s0.2,0.3,0.2,0.5s0,0.3-0.2,0.5
		s-0.3,0.2-0.5,0.2s-0.4-0.1-0.5-0.2S191.5,265.9,191.4,265.7z"/>
	<path class="st3" d="M184,258.4c0-0.2,0-0.3,0.2-0.4s0.3-0.2,0.5-0.2c0.2,0,0.3,0.1,0.5,0.2s0.2,0.3,0.2,0.4s0,0.3-0.2,0.5
		s-0.3,0.2-0.4,0.2s-0.3-0.1-0.5-0.2S184,258.6,184,258.4z M192.7,259.3v1.1l-6.3-1.1v-1.1L192.7,259.3z"/>
	<path class="st3" d="M186.3,255.4l0.7,0.1c-0.6-0.5-0.8-1.2-0.8-1.9c0-0.4,0.1-0.7,0.3-1s0.4-0.5,0.7-0.6c-0.7-0.6-1-1.3-1-2.1
		c0-0.6,0.2-1.1,0.6-1.4s1-0.4,1.7-0.3l4.2,0.7v1.1l-4.2-0.7c-0.2,0-0.4,0-0.6,0c-0.5,0.1-0.8,0.4-0.8,1c0,0.4,0.1,0.7,0.4,1.1
		s0.6,0.5,1,0.6l4.2,0.7v1.1l-4.2-0.7c-0.4-0.1-0.8,0-1,0.2s-0.4,0.5-0.4,0.8c0,0.7,0.3,1.2,0.9,1.6l4.6,0.8v1.1l-6.3-1.1
		L186.3,255.4z"/>
	<path class="st3" d="M186.3,245.2l0.7,0.1c-0.6-0.5-0.8-1.2-0.8-1.9c0-0.4,0.1-0.7,0.3-1s0.4-0.5,0.7-0.6c-0.7-0.6-1-1.3-1-2.1
		c0-0.6,0.2-1.1,0.6-1.4s1-0.4,1.7-0.3l4.2,0.7v1.1l-4.2-0.7c-0.2,0-0.4,0-0.6,0c-0.5,0.1-0.8,0.4-0.8,1c0,0.4,0.1,0.7,0.4,1.1
		s0.6,0.5,1,0.6l4.2,0.7v1.1l-4.2-0.7c-0.4-0.1-0.8,0-1,0.2s-0.4,0.5-0.4,0.8c0,0.7,0.3,1.2,0.9,1.6l4.6,0.8v1.1l-6.3-1.1
		L186.3,245.2z"/>
	<path class="st3" d="M186.2,233.5c0-0.5,0.2-1,0.4-1.4s0.7-0.7,1.2-0.8s1-0.2,1.6-0.2l0.1,0c0.6,0.1,1.2,0.3,1.7,0.6
		s0.9,0.7,1.2,1.1s0.4,1,0.4,1.5c0,0.5-0.2,1-0.4,1.4s-0.7,0.7-1.1,0.8s-1,0.2-1.6,0.2c-0.7-0.1-1.2-0.2-1.8-0.5s-0.9-0.7-1.2-1.1
		S186.2,234,186.2,233.5z M189.6,235.6c0.2,0,0.5,0,0.8,0c0.5,0,0.8-0.2,1.1-0.4s0.4-0.6,0.4-0.9c0-0.4-0.1-0.7-0.3-1
		s-0.5-0.5-0.8-0.8s-0.8-0.3-1.2-0.4c-0.4,0-0.7,0-0.9,0c-0.5,0-0.8,0.2-1.1,0.4s-0.4,0.6-0.4,0.9c0,0.5,0.2,1,0.6,1.4
		s1,0.6,1.7,0.7L189.6,235.6z"/>
	<path class="st3" d="M189.5,224.5c0.6,0.1,1.2,0.3,1.8,0.5s0.9,0.6,1.2,1s0.4,0.8,0.4,1.3c0,0.8-0.3,1.3-0.9,1.7l0.7,0.2v1l-9-1.6
		v-1.1l3.4,0.6c-0.6-0.5-0.8-1.1-0.8-1.9c0-0.6,0.2-1.1,0.7-1.4s1-0.5,1.8-0.5c0.2,0,0.5,0,0.7,0L189.5,224.5z M188.9,225.5
		c-0.6,0-1,0.1-1.3,0.3s-0.5,0.5-0.5,0.9c0,0.7,0.3,1.2,1,1.7l2.8,0.5c0.6-0.2,1-0.7,1-1.3c0-0.4-0.1-0.8-0.4-1.1s-0.6-0.5-1.1-0.7
		S189.4,225.6,188.9,225.5z"/>
	<path class="st3" d="M184,221.7c0-0.2,0-0.3,0.2-0.4s0.3-0.2,0.5-0.2c0.2,0,0.3,0.1,0.5,0.2s0.2,0.3,0.2,0.4s0,0.3-0.2,0.5
		s-0.3,0.2-0.4,0.2s-0.3-0.1-0.5-0.2S184,221.9,184,221.7z M192.7,222.6v1.1l-6.3-1.1v-1.1L192.7,222.6z"/>
	<path class="st3" d="M192.7,219.7v1.1l-9-1.6v-1.1L192.7,219.7z"/>
	<path class="st3" d="M184,215.9c0-0.2,0-0.3,0.2-0.4s0.3-0.2,0.5-0.2c0.2,0,0.3,0.1,0.5,0.2s0.2,0.3,0.2,0.4s0,0.3-0.2,0.5
		s-0.3,0.2-0.4,0.2s-0.3-0.1-0.5-0.2S184,216.1,184,215.9z M192.7,216.8v1.1l-6.3-1.1v-1.1L192.7,216.8z"/>
	<path class="st3" d="M185.4,210.9l0,0.8l-1.7,1.2v-1.2L185.4,210.9z M192.8,212.3c0,0.8-0.3,1.4-0.9,1.9s-1.3,0.6-2.2,0.6l-0.3,0
		c-0.6-0.1-1.2-0.3-1.7-0.6s-0.9-0.7-1.2-1.1s-0.4-0.9-0.4-1.4c0-0.7,0.2-1.2,0.7-1.5s1-0.6,1.7-0.6c0.3,0,0.5,0,0.8,0l0.5,0.1v4.1
		c0.6,0.1,1.1,0,1.5-0.3s0.6-0.6,0.6-1.2c0-0.6-0.3-1.2-0.8-1.7l0.5-0.6c0.4,0.3,0.7,0.6,0.9,1S192.8,211.8,192.8,212.3z
		 M187.1,211.6c0,0.4,0.1,0.8,0.4,1.1s0.8,0.6,1.4,0.8l0-3.1l-0.1,0c-0.5-0.1-0.9,0-1.2,0.2S187.1,211.2,187.1,211.6z"/>
	<path class="st3" d="M187.3,204.9l-0.1,0.5c0,0.7,0.3,1.2,0.9,1.6l4.5,0.8v1.1l-6.3-1.1l0-1l0.7,0.2c-0.6-0.4-0.9-1-0.9-1.6
		c0-0.1,0-0.3,0.1-0.5L187.3,204.9z"/>
	<path class="st3" d="M192.8,202.1c0,0.8-0.3,1.4-0.9,1.9s-1.3,0.6-2.2,0.6l-0.3,0c-0.6-0.1-1.2-0.3-1.7-0.6s-0.9-0.7-1.2-1.1
		s-0.4-0.9-0.4-1.4c0-0.7,0.2-1.2,0.7-1.5s1-0.6,1.7-0.6c0.3,0,0.5,0,0.8,0l0.5,0.1v4.1c0.6,0.1,1.1,0,1.5-0.3s0.6-0.6,0.6-1.2
		c0-0.6-0.3-1.2-0.8-1.7l0.5-0.6c0.4,0.3,0.7,0.6,0.9,1S192.8,201.6,192.8,202.1z M187.1,201.4c0,0.4,0.1,0.8,0.4,1.1
		s0.8,0.6,1.4,0.8l0-3.1l-0.1,0c-0.5-0.1-0.9,0-1.2,0.2S187.1,201,187.1,201.4z"/>
	<path class="st3" d="M191,194.7c-0.4-0.1-0.7,0.2-0.9,0.7l-0.3,1.1c-0.3,0.9-0.9,1.4-1.6,1.3c-0.6,0-1-0.3-1.4-0.8s-0.5-1-0.5-1.7
		c0-0.6,0.2-1.2,0.6-1.6s0.8-0.6,1.4-0.6l0,1.1c-0.3,0-0.6,0.1-0.8,0.3s-0.3,0.5-0.3,0.8c0,0.4,0.1,0.7,0.3,0.9
		c0.2,0.2,0.4,0.4,0.7,0.4c0.4,0.1,0.6-0.2,0.8-0.7l0.1-0.5c0.2-0.7,0.4-1.2,0.7-1.5s0.7-0.4,1.1-0.4c0.4,0,0.7,0.2,1,0.4
		s0.5,0.5,0.7,0.9s0.2,0.8,0.2,1.2c0,0.7-0.2,1.2-0.6,1.7s-0.9,0.6-1.5,0.6l0-1.1c0.4,0,0.6-0.1,0.9-0.3s0.3-0.5,0.3-0.9
		c0-0.4-0.1-0.7-0.2-1S191.3,194.7,191,194.7z"/>
</g>
<circle cx="511.2" cy="378.7" r="4"/>
<circle cx="507.7" cy="462.2" r="4"/>
<circle cx="409.2" cy="185.7" r="2.5"/>
<circle cx="481.2" cy="160.7" r="1.5"/>
<circle cx="486.9" cy="288" r="2.8"/>
<circle cx="359.2" cy="460.7" r="4"/>
<circle cx="231.2" cy="406.7" r="4"/>
<circle cx="107.4" cy="455.5" r="4.8"/>
<circle cx="42.9" cy="438" r="5.2"/>
<circle cx="522.7" cy="174.2" r="1"/>
<g>
	<path class="st3" d="M260.7,435.4v3.6l3,0.5v-4.2l0.9,0.2v5.3l-8.5-1.5v-5.2l0.9,0.2v4.1l2.7,0.5v-3.6L260.7,435.4z"/>
	<path class="st3" d="M261.5,434c-0.6-0.1-1.2-0.3-1.7-0.5s-0.9-0.6-1.2-1s-0.4-0.9-0.4-1.3c0-0.7,0.3-1.2,0.8-1.6l-3.3-0.6v-1.1
		l9,1.6v1l-0.7-0.1c0.5,0.5,0.8,1.1,0.8,1.9c0,0.6-0.2,1.1-0.7,1.4s-1,0.5-1.8,0.6C262.1,434,261.8,434,261.5,434z M262.1,433
		c0.6,0,1-0.1,1.3-0.3s0.5-0.5,0.5-0.9c0-0.6-0.3-1.2-0.9-1.6l-2.9-0.5c-0.6,0.2-0.9,0.7-0.9,1.3c0,0.4,0.1,0.8,0.4,1.1
		s0.6,0.6,1.1,0.7C261.1,432.9,261.6,433,262.1,433z"/>
	<path class="st3" d="M256,425.6c0-0.2,0-0.3,0.2-0.4s0.3-0.2,0.5-0.2c0.2,0,0.3,0.1,0.5,0.2s0.2,0.3,0.2,0.4s0,0.3-0.2,0.5
		s-0.3,0.2-0.4,0.2s-0.3-0.1-0.5-0.2S256,425.8,256,425.6z M264.7,426.5v1.1l-6.3-1.1v-1.1L264.7,426.5z"/>
	<path class="st3" d="M256.8,422l1.5,0.3v-1.2l0.8,0.1v1.1l3.9,0.7c0.1,0,0.2,0,0.3,0c0.3,0,0.5-0.2,0.5-0.5c0-0.1,0-0.3-0.1-0.5
		l0.9,0.1c0.1,0.3,0.1,0.5,0.1,0.8c0,0.4-0.2,0.7-0.5,0.9s-0.7,0.3-1.2,0.2l-3.9-0.6v1.1l-0.8-0.1v-1.1l-1.5-0.3V422z"/>
	<path class="st3" d="M256,418.9c0-0.2,0-0.3,0.2-0.4s0.3-0.2,0.5-0.2c0.2,0,0.3,0.1,0.5,0.2s0.2,0.3,0.2,0.4s0,0.3-0.2,0.5
		s-0.3,0.2-0.4,0.2s-0.3-0.1-0.5-0.2S256,419.1,256,418.9z M264.7,419.8v1.1l-6.3-1.1v-1.1L264.7,419.8z"/>
	<path class="st3" d="M258.2,414.5c0-0.5,0.2-1,0.4-1.4s0.7-0.7,1.2-0.8s1-0.2,1.6-0.2l0.1,0c0.6,0.1,1.2,0.3,1.7,0.6
		s0.9,0.7,1.2,1.1s0.4,1,0.4,1.5c0,0.5-0.2,1-0.4,1.4s-0.7,0.7-1.1,0.8s-1,0.2-1.6,0.2c-0.7-0.1-1.2-0.2-1.8-0.5s-0.9-0.7-1.2-1.1
		S258.2,415.1,258.2,414.5z M261.6,416.7c0.2,0,0.5,0,0.8,0c0.5,0,0.8-0.2,1.1-0.4s0.4-0.6,0.4-0.9c0-0.4-0.1-0.7-0.3-1
		s-0.5-0.5-0.8-0.8s-0.8-0.3-1.2-0.4c-0.4,0-0.7,0-0.9,0c-0.5,0-0.8,0.2-1.1,0.4s-0.4,0.6-0.4,0.9c0,0.5,0.2,1,0.6,1.4
		s1,0.6,1.7,0.7L261.6,416.7z"/>
	<path class="st3" d="M258.3,409.2l0.8,0.2c-0.6-0.6-0.9-1.2-0.9-1.9c0-0.6,0.2-1,0.6-1.3s1-0.4,1.7-0.3l4.2,0.7v1.1l-4.2-0.7
		c-0.2,0-0.4,0-0.5,0c-0.5,0.1-0.8,0.4-0.8,1c0,0.6,0.3,1.2,1,1.7l4.5,0.8v1.1l-6.3-1.1L258.3,409.2z"/>
</g>
<g>
	<path class="st3" d="M444.1,368c-0.6-0.1-1.1,0.3-1.4,1l-0.3,1l-0.1,0.3c-0.5,1.1-1.2,1.7-2.2,1.6c-0.5,0-0.9-0.2-1.3-0.5
		c-0.4-0.3-0.7-0.7-0.9-1.1c-0.2-0.5-0.3-1-0.3-1.5c0-0.5,0.1-1,0.3-1.4c0.2-0.4,0.5-0.7,0.9-0.9c0.4-0.2,0.8-0.3,1.3-0.3l0,1.1
		c-0.5,0-0.9,0.1-1.2,0.4c-0.3,0.3-0.4,0.7-0.4,1.2c0,0.5,0.1,1,0.4,1.3s0.6,0.6,1.1,0.6c0.6,0.1,1-0.3,1.3-1.1l0.3-0.9l0.2-0.4
		c0.5-1.1,1.2-1.6,2.2-1.6c0.5,0,0.9,0.2,1.3,0.5s0.6,0.7,0.8,1.1s0.3,1,0.3,1.6c0,0.5-0.1,1-0.3,1.5s-0.5,0.8-0.9,1
		s-0.8,0.3-1.3,0.3l0-1.1c0.5,0,0.9-0.1,1.2-0.4c0.3-0.3,0.4-0.8,0.4-1.3s-0.1-1-0.4-1.4C444.9,368.3,444.5,368.1,444.1,368z"/>
	<path class="st3" d="M446.3,363.2c0,0.8-0.3,1.4-0.8,1.9c-0.6,0.5-1.3,0.7-2.2,0.6l-0.3,0c-0.6-0.1-1.2-0.2-1.7-0.5
		c-0.5-0.3-0.9-0.7-1.2-1.1c-0.3-0.4-0.4-0.9-0.4-1.4c0-0.7,0.2-1.2,0.6-1.5c0.4-0.4,1-0.6,1.7-0.6c0.3,0,0.5,0,0.8,0l0.5,0.1
		l0.1,4.1c0.6,0.1,1.1,0,1.5-0.3c0.4-0.3,0.6-0.7,0.6-1.2c0-0.6-0.3-1.2-0.9-1.7l0.5-0.6c0.4,0.3,0.7,0.6,0.9,1
		C446.2,362.3,446.3,362.7,446.3,363.2z M440.6,362.7c0,0.4,0.2,0.8,0.5,1.1s0.8,0.6,1.4,0.7l-0.1-3.1l-0.1,0
		c-0.5-0.1-0.9,0-1.2,0.3C440.8,362,440.6,362.3,440.6,362.7z"/>
	<path class="st3" d="M440.7,355.9l0,0.5c0,0.7,0.3,1.2,1,1.6l4.5,0.7l0,1.1l-6.4-1l0-1l0.7,0.1c-0.6-0.4-0.9-1-0.9-1.6
		c0-0.1,0-0.3,0.1-0.5L440.7,355.9z"/>
	<path class="st3" d="M444.5,353.4l-4.9-2.2l0-1.1l6.4,3.1l0,0.8l-6.3,1.4l0-1L444.5,353.4z"/>
	<path class="st3" d="M437.2,348.1c0-0.2,0-0.3,0.2-0.5s0.3-0.2,0.5-0.2c0.2,0,0.3,0.1,0.5,0.2s0.2,0.3,0.2,0.4s0,0.3-0.1,0.5
		c-0.1,0.1-0.3,0.2-0.4,0.2c-0.2,0-0.3-0.1-0.5-0.2C437.3,348.4,437.3,348.3,437.2,348.1z M445.9,348.8l0,1.1l-6.4-1l0-1.1
		L445.9,348.8z"/>
	<path class="st3" d="M445.1,344.4c0-0.4-0.1-0.7-0.4-1c-0.2-0.3-0.5-0.5-0.9-0.6l0-1c0.4,0.1,0.8,0.2,1.1,0.5
		c0.3,0.3,0.6,0.6,0.8,1s0.3,0.8,0.3,1.2c0,0.5-0.1,1-0.4,1.3c-0.3,0.4-0.6,0.6-1.1,0.8c-0.5,0.2-1,0.3-1.6,0.2l-0.3,0
		c-0.6-0.1-1.2-0.2-1.6-0.5c-0.5-0.3-0.9-0.6-1.1-1.1c-0.3-0.4-0.4-0.9-0.4-1.5c0-0.7,0.2-1.2,0.6-1.6c0.4-0.4,1-0.6,1.6-0.6l0,1
		c-0.4,0-0.7,0.1-1,0.4c-0.3,0.2-0.4,0.5-0.4,0.9c0,0.6,0.2,1,0.6,1.4c0.4,0.4,1,0.6,1.8,0.6l0.2,0c0.2,0,0.5,0,0.8,0
		c0.5,0,0.8-0.2,1.1-0.4C444.9,345.1,445.1,344.8,445.1,344.4z"/>
	<path class="st3" d="M445.8,338.2c0,0.8-0.3,1.4-0.8,1.9c-0.6,0.5-1.3,0.7-2.2,0.6l-0.3,0c-0.6-0.1-1.2-0.2-1.7-0.5
		c-0.5-0.3-0.9-0.7-1.2-1.1c-0.3-0.4-0.4-0.9-0.4-1.4c0-0.7,0.2-1.2,0.6-1.5s1-0.6,1.7-0.6c0.3,0,0.5,0,0.8,0l0.5,0.1l0.1,4.1
		c0.6,0.1,1.1,0,1.5-0.3c0.4-0.3,0.6-0.7,0.6-1.2c0-0.6-0.3-1.2-0.9-1.7l0.5-0.6c0.4,0.3,0.7,0.6,0.9,1
		C445.7,337.2,445.8,337.7,445.8,338.2z M440.1,337.6c0,0.4,0.2,0.8,0.5,1.1s0.8,0.6,1.4,0.7l-0.1-3.1l-0.1,0
		c-0.5-0.1-0.9,0-1.2,0.3C440.3,336.9,440.1,337.2,440.1,337.6z"/>
	<path class="st3" d="M443.8,330.8c-0.4,0-0.7,0.2-0.9,0.7l-0.3,1.1c-0.3,0.9-0.8,1.4-1.6,1.4c-0.6,0-1-0.3-1.4-0.7
		c-0.4-0.5-0.6-1-0.6-1.7c0-0.6,0.2-1.2,0.5-1.6c0.4-0.4,0.8-0.6,1.4-0.6l0,1.1c-0.3,0-0.6,0.1-0.8,0.3c-0.2,0.2-0.3,0.5-0.3,0.8
		c0,0.4,0.1,0.7,0.3,0.9c0.2,0.2,0.4,0.4,0.7,0.4c0.4,0,0.6-0.2,0.8-0.7l0.1-0.5c0.2-0.7,0.4-1.3,0.7-1.6c0.3-0.3,0.7-0.5,1.1-0.4
		c0.4,0,0.7,0.1,1,0.4c0.3,0.2,0.5,0.5,0.7,0.9s0.2,0.8,0.2,1.2c0,0.7-0.2,1.2-0.6,1.7s-0.9,0.7-1.5,0.7l0-1.1
		c0.4,0,0.6-0.1,0.8-0.4s0.3-0.5,0.3-0.9c0-0.4-0.1-0.7-0.3-1C444.4,331,444.1,330.8,443.8,330.8z"/>
	<path class="st3" d="M442.3,325.4c-0.6-0.1-1.2-0.2-1.8-0.5s-0.9-0.6-1.2-1c-0.3-0.4-0.4-0.8-0.4-1.3c0-0.7,0.2-1.3,0.7-1.6
		l-3.3-0.5l0-1.1l9,1.4l0,1l-0.7-0.1c0.6,0.5,0.8,1.1,0.8,1.8c0,0.6-0.2,1.1-0.7,1.4s-1,0.6-1.8,0.6
		C442.9,325.5,442.6,325.5,442.3,325.4z M442.8,324.4c0.6,0,1-0.1,1.3-0.3c0.3-0.2,0.5-0.5,0.5-0.9c0-0.6-0.3-1.2-1-1.6l-2.9-0.4
		c-0.6,0.2-0.9,0.7-0.9,1.3c0,0.4,0.1,0.8,0.4,1.1c0.3,0.3,0.6,0.5,1.1,0.7C441.8,324.3,442.3,324.4,442.8,324.4z"/>
	<path class="st3" d="M439.2,318l-0.4,0.6c-0.6-0.4-1.1-0.7-1.7-0.8l-0.8-0.1l0-1l0.7,0.1C437.9,316.8,438.6,317.3,439.2,318z"/>
	<path class="st3" d="M436.6,314.8c0-0.2,0-0.3,0.2-0.5s0.3-0.2,0.5-0.2c0.2,0,0.3,0.1,0.5,0.2c0.1,0.1,0.2,0.3,0.2,0.4
		c0,0.2,0,0.3-0.1,0.5c-0.1,0.1-0.3,0.2-0.4,0.2c-0.2,0-0.3-0.1-0.5-0.2S436.6,315,436.6,314.8z M445.2,315.5l0,1.1l-6.4-1l0-1.1
		L445.2,315.5z"/>
	<path class="st3" d="M438.8,311.8l0.8,0.1c-0.6-0.6-1-1.2-1-1.9c0-0.6,0.2-1,0.6-1.3s1-0.4,1.7-0.4l4.2,0.6l0,1.1l-4.2-0.6
		c-0.2,0-0.4,0-0.5,0c-0.5,0.1-0.8,0.4-0.8,1c0,0.6,0.4,1.2,1.1,1.7l4.5,0.7l0,1.1l-6.4-1L438.8,311.8z"/>
	<path class="st3" d="M445.1,306.8l-5.5-0.9l0,1l-0.8-0.1l0-1l-0.8-0.1c-0.6-0.1-1.1-0.3-1.5-0.7c-0.4-0.4-0.6-0.9-0.6-1.6
		c0-0.2,0-0.5,0.1-0.8l0.9,0.1c0,0.2-0.1,0.4-0.1,0.6c0,0.4,0.1,0.7,0.4,0.9s0.5,0.4,0.9,0.4l0.6,0.1l0-1.3l0.8,0.1l0,1.3l5.5,0.8
		L445.1,306.8z"/>
	<path class="st3" d="M438.5,299.8c0-0.5,0.1-1,0.4-1.4c0.3-0.4,0.7-0.7,1.1-0.9c0.5-0.2,1-0.3,1.6-0.2l0.1,0
		c0.6,0.1,1.2,0.2,1.7,0.5c0.5,0.3,0.9,0.7,1.2,1.1c0.3,0.5,0.4,1,0.4,1.5c0,0.5-0.1,1-0.4,1.4s-0.7,0.7-1.1,0.9
		c-0.5,0.2-1,0.3-1.6,0.2c-0.7,0-1.3-0.2-1.8-0.5c-0.5-0.3-0.9-0.7-1.2-1.1C438.6,300.9,438.5,300.4,438.5,299.8z M441.9,301.9
		c0.2,0,0.5,0,0.8,0c0.5,0,0.8-0.2,1.1-0.4c0.3-0.2,0.4-0.6,0.4-1c0-0.4-0.1-0.7-0.3-1s-0.5-0.5-0.9-0.7c-0.4-0.2-0.8-0.3-1.3-0.4
		c-0.4,0-0.7,0-0.9,0c-0.5,0.1-0.8,0.2-1.1,0.5s-0.4,0.6-0.4,1c0,0.5,0.2,1,0.7,1.4c0.4,0.4,1,0.6,1.7,0.7L441.9,301.9z"/>
	<path class="st3" d="M439.4,292.7l0,0.5c0,0.7,0.3,1.2,1,1.6l4.5,0.7l0,1.1l-6.4-1l0-1l0.7,0.1c-0.6-0.4-0.9-1-0.9-1.6
		c0-0.1,0-0.3,0.1-0.5L439.4,292.7z"/>
	<path class="st3" d="M438.4,290.6l0.7,0.1c-0.6-0.5-0.9-1.2-0.9-1.9c0-0.4,0.1-0.7,0.3-1s0.4-0.5,0.7-0.6c-0.7-0.6-1.1-1.3-1.1-2.1
		c0-0.6,0.2-1.1,0.6-1.4c0.4-0.3,1-0.4,1.6-0.4l4.2,0.6l0,1.1l-4.2-0.6c-0.2,0-0.4,0-0.6,0c-0.5,0.1-0.8,0.4-0.8,1.1
		c0,0.4,0.1,0.7,0.4,1c0.3,0.3,0.6,0.5,1,0.6l4.2,0.6l0,1.1l-4.2-0.6c-0.4,0-0.8,0-1,0.2c-0.2,0.2-0.3,0.5-0.3,0.9
		c0,0.7,0.3,1.2,0.9,1.6l4.6,0.7l0,1.1l-6.4-1L438.4,290.6z"/>
	<path class="st3" d="M444.5,278.4c-0.1,0-0.2,0-0.3,0l-0.3,0c0.6,0.6,0.8,1.2,0.8,1.8c0,0.6-0.2,1-0.5,1.4
		c-0.3,0.4-0.8,0.5-1.3,0.5c-0.7,0-1.2-0.3-1.6-0.8c-0.4-0.5-0.6-1.3-0.6-2.2l0-1.1l-0.5-0.1c-0.4,0-0.7,0-0.9,0.2
		c-0.2,0.2-0.3,0.5-0.3,0.8c0,0.4,0.1,0.7,0.3,1c0.2,0.3,0.4,0.4,0.7,0.5l0,1.1c-0.4,0-0.7-0.2-1-0.4s-0.5-0.6-0.7-1
		c-0.2-0.4-0.2-0.8-0.2-1.2c0-0.7,0.2-1.2,0.6-1.6s0.9-0.5,1.5-0.5l3.2,0.5l0.5,0c0.2,0,0.4,0,0.6-0.1l0.1,0L444.5,278.4z
		 M443.7,280.1c0-0.3-0.1-0.7-0.3-1c-0.2-0.3-0.4-0.6-0.7-0.8l-1.3-0.2l0,0.8c0,0.7,0.1,1.2,0.3,1.5c0.2,0.4,0.5,0.5,0.9,0.6
		c0.3,0,0.5,0,0.7-0.2C443.6,280.7,443.7,280.4,443.7,280.1z"/>
	<path class="st3" d="M436.5,273.2l1.5,0.2l0-1.2l0.8,0.1l0,1.1l4,0.6c0.1,0,0.2,0,0.3,0c0.3,0,0.5-0.2,0.4-0.5c0-0.1,0-0.3-0.1-0.5
		l0.9,0.1c0.1,0.3,0.1,0.5,0.1,0.8c0,0.4-0.1,0.7-0.4,1c-0.3,0.2-0.7,0.3-1.2,0.3l-3.9-0.6l0,1.1l-0.8-0.1l0-1.1l-1.5-0.2
		L436.5,273.2z"/>
	<path class="st3" d="M435.7,270.1c0-0.2,0-0.3,0.2-0.5s0.3-0.2,0.5-0.2c0.2,0,0.3,0.1,0.5,0.2c0.1,0.1,0.2,0.3,0.2,0.4
		c0,0.2,0,0.3-0.1,0.5c-0.1,0.1-0.3,0.2-0.4,0.2c-0.2,0-0.3-0.1-0.5-0.2C435.7,270.5,435.7,270.3,435.7,270.1z M444.3,270.8l0,1.1
		l-6.4-1l0-1.1L444.3,270.8z"/>
	<path class="st3" d="M437.8,265.7c0-0.5,0.1-1,0.4-1.4c0.3-0.4,0.7-0.7,1.1-0.9c0.5-0.2,1-0.3,1.6-0.2l0.1,0
		c0.6,0.1,1.2,0.2,1.7,0.5c0.5,0.3,0.9,0.7,1.2,1.1c0.3,0.5,0.4,1,0.4,1.5c0,0.5-0.1,1-0.4,1.4s-0.7,0.7-1.1,0.9s-1,0.3-1.6,0.2
		c-0.7,0-1.3-0.2-1.8-0.5c-0.5-0.3-0.9-0.7-1.2-1.1C437.9,266.8,437.8,266.3,437.8,265.7z M441.2,267.8c0.2,0,0.5,0,0.8,0
		c0.5,0,0.8-0.2,1.1-0.4s0.4-0.6,0.4-1c0-0.4-0.1-0.7-0.3-1s-0.5-0.5-0.9-0.7s-0.8-0.3-1.3-0.4c-0.4,0-0.7,0-0.9,0
		c-0.5,0.1-0.8,0.2-1.1,0.4c-0.3,0.2-0.4,0.6-0.4,1c0,0.5,0.2,1,0.7,1.4c0.4,0.4,1,0.6,1.7,0.7L441.2,267.8z"/>
	<path class="st3" d="M437.8,260.4l0.8,0.1c-0.6-0.6-1-1.2-1-1.9c0-0.6,0.2-1,0.6-1.3c0.4-0.3,1-0.4,1.7-0.4l4.2,0.6l0,1.1l-4.2-0.6
		c-0.2,0-0.4,0-0.5,0c-0.5,0.1-0.8,0.4-0.8,1c0,0.6,0.4,1.2,1.1,1.7l4.5,0.7l0,1.1l-6.4-1L437.8,260.4z"/>
</g>
</svg>
